<svg width="80" height="58" viewBox="0 0 80 58" fill="none" xmlns="http://www.w3.org/2000/svg">
<path d="M50.7739 16.452L44.9959 6.84204L42.6159 8.27404L38.8359 10.546L42.6159 16.84L47.6059 25.158H50.7739H55.9999L50.7739 16.452Z" fill="white"/>
<path d="M42.6161 21.7339L37.5821 13.3579L31.6181 16.9479L31.4141 17.0679L31.6181 17.4059L36.2761 25.1579H42.6161H44.6641L42.6161 21.7339Z" fill="white"/>
<path d="M31.618 22.2941L30.166 19.8821L24 23.5861L24.942 25.1581H31.618H33.336L31.618 22.2941Z" fill="white"/>
<path d="M20.6917 49.296H17.1997L16.5997 51H15.1717L18.1597 42.648H19.7437L22.7317 51H21.2917L20.6917 49.296ZM20.3077 48.18L18.9517 44.304L17.5837 48.18H20.3077ZM23.5749 47.664C23.5749 47 23.7109 46.412 23.9829 45.9C24.2629 45.388 24.6389 44.992 25.1109 44.712C25.5909 44.424 26.1229 44.28 26.7069 44.28C27.1389 44.28 27.5629 44.376 27.9789 44.568C28.4029 44.752 28.7389 45 28.9869 45.312V42.12H30.3669V51H28.9869V50.004C28.7629 50.324 28.4509 50.588 28.0509 50.796C27.6589 51.004 27.2069 51.108 26.6949 51.108C26.1189 51.108 25.5909 50.964 25.1109 50.676C24.6389 50.38 24.2629 49.972 23.9829 49.452C23.7109 48.924 23.5749 48.328 23.5749 47.664ZM28.9869 47.688C28.9869 47.232 28.8909 46.836 28.6989 46.5C28.5149 46.164 28.2709 45.908 27.9669 45.732C27.6629 45.556 27.3349 45.468 26.9829 45.468C26.6309 45.468 26.3029 45.556 25.9989 45.732C25.6949 45.9 25.4469 46.152 25.2549 46.488C25.0709 46.816 24.9789 47.208 24.9789 47.664C24.9789 48.12 25.0709 48.52 25.2549 48.864C25.4469 49.208 25.6949 49.472 25.9989 49.656C26.3109 49.832 26.6389 49.92 26.9829 49.92C27.3349 49.92 27.6629 49.832 27.9669 49.656C28.2709 49.48 28.5149 49.224 28.6989 48.888C28.8909 48.544 28.9869 48.144 28.9869 47.688ZM31.7077 47.664C31.7077 47 31.8437 46.412 32.1157 45.9C32.3957 45.388 32.7717 44.992 33.2437 44.712C33.7237 44.424 34.2557 44.28 34.8397 44.28C35.2717 44.28 35.6957 44.376 36.1117 44.568C36.5357 44.752 36.8717 45 37.1197 45.312V42.12H38.4997V51H37.1197V50.004C36.8957 50.324 36.5837 50.588 36.1837 50.796C35.7917 51.004 35.3397 51.108 34.8277 51.108C34.2517 51.108 33.7237 50.964 33.2437 50.676C32.7717 50.38 32.3957 49.972 32.1157 49.452C31.8437 48.924 31.7077 48.328 31.7077 47.664ZM37.1197 47.688C37.1197 47.232 37.0237 46.836 36.8317 46.5C36.6477 46.164 36.4037 45.908 36.0997 45.732C35.7957 45.556 35.4677 45.468 35.1157 45.468C34.7637 45.468 34.4357 45.556 34.1317 45.732C33.8277 45.9 33.5797 46.152 33.3877 46.488C33.2037 46.816 33.1117 47.208 33.1117 47.664C33.1117 48.12 33.2037 48.52 33.3877 48.864C33.5797 49.208 33.8277 49.472 34.1317 49.656C34.4437 49.832 34.7717 49.92 35.1157 49.92C35.4677 49.92 35.7957 49.832 36.0997 49.656C36.4037 49.48 36.6477 49.224 36.8317 48.888C37.0237 48.544 37.1197 48.144 37.1197 47.688ZM40.9925 43.512C40.7445 43.512 40.5365 43.428 40.3685 43.26C40.2005 43.092 40.1165 42.884 40.1165 42.636C40.1165 42.388 40.2005 42.18 40.3685 42.012C40.5365 41.844 40.7445 41.76 40.9925 41.76C41.2325 41.76 41.4365 41.844 41.6045 42.012C41.7725 42.18 41.8565 42.388 41.8565 42.636C41.8565 42.884 41.7725 43.092 41.6045 43.26C41.4365 43.428 41.2325 43.512 40.9925 43.512ZM41.6645 44.388V51H40.2965V44.388H41.6645ZM43.0045 47.664C43.0045 47 43.1405 46.412 43.4125 45.9C43.6925 45.388 44.0685 44.992 44.5405 44.712C45.0205 44.424 45.5525 44.28 46.1365 44.28C46.5685 44.28 46.9925 44.376 47.4085 44.568C47.8325 44.752 48.1685 45 48.4165 45.312V42.12H49.7965V51H48.4165V50.004C48.1925 50.324 47.8805 50.588 47.4805 50.796C47.0885 51.004 46.6365 51.108 46.1245 51.108C45.5485 51.108 45.0205 50.964 44.5405 50.676C44.0685 50.38 43.6925 49.972 43.4125 49.452C43.1405 48.924 43.0045 48.328 43.0045 47.664ZM48.4165 47.688C48.4165 47.232 48.3205 46.836 48.1285 46.5C47.9445 46.164 47.7005 45.908 47.3965 45.732C47.0925 45.556 46.7645 45.468 46.4125 45.468C46.0605 45.468 45.7325 45.556 45.4285 45.732C45.1245 45.9 44.8765 46.152 44.6845 46.488C44.5005 46.816 44.4085 47.208 44.4085 47.664C44.4085 48.12 44.5005 48.52 44.6845 48.864C44.8765 49.208 45.1245 49.472 45.4285 49.656C45.7405 49.832 46.0685 49.92 46.4125 49.92C46.7645 49.92 47.0925 49.832 47.3965 49.656C47.7005 49.48 47.9445 49.224 48.1285 48.888C48.3205 48.544 48.4165 48.144 48.4165 47.688ZM51.1374 47.664C51.1374 47 51.2734 46.412 51.5454 45.9C51.8254 45.388 52.2014 44.992 52.6734 44.712C53.1534 44.424 53.6814 44.28 54.2574 44.28C54.7774 44.28 55.2294 44.384 55.6134 44.592C56.0054 44.792 56.3174 45.044 56.5494 45.348V44.388H57.9294V51H56.5494V50.016C56.3174 50.328 56.0014 50.588 55.6014 50.796C55.2014 51.004 54.7454 51.108 54.2334 51.108C53.6654 51.108 53.1454 50.964 52.6734 50.676C52.2014 50.38 51.8254 49.972 51.5454 49.452C51.2734 48.924 51.1374 48.328 51.1374 47.664ZM56.5494 47.688C56.5494 47.232 56.4534 46.836 56.2614 46.5C56.0774 46.164 55.8334 45.908 55.5294 45.732C55.2254 45.556 54.8974 45.468 54.5454 45.468C54.1934 45.468 53.8654 45.556 53.5614 45.732C53.2574 45.9 53.0094 46.152 52.8174 46.488C52.6334 46.816 52.5414 47.208 52.5414 47.664C52.5414 48.12 52.6334 48.52 52.8174 48.864C53.0094 49.208 53.2574 49.472 53.5614 49.656C53.8734 49.832 54.2014 49.92 54.5454 49.92C54.8974 49.92 55.2254 49.832 55.5294 49.656C55.8334 49.48 56.0774 49.224 56.2614 48.888C56.4534 48.544 56.5494 48.144 56.5494 47.688ZM62.1262 51.108C61.6062 51.108 61.1382 51.016 60.7222 50.832C60.3142 50.64 59.9902 50.384 59.7502 50.064C59.5102 49.736 59.3822 49.372 59.3662 48.972H60.7822C60.8062 49.252 60.9382 49.488 61.1782 49.68C61.4262 49.864 61.7342 49.956 62.1022 49.956C62.4862 49.956 62.7822 49.884 62.9902 49.74C63.2062 49.588 63.3142 49.396 63.3142 49.164C63.3142 48.916 63.1942 48.732 62.9542 48.612C62.7222 48.492 62.3502 48.36 61.8382 48.216C61.3422 48.08 60.9382 47.948 60.6262 47.82C60.3142 47.692 60.0422 47.496 59.8102 47.232C59.5862 46.968 59.4742 46.62 59.4742 46.188C59.4742 45.836 59.5782 45.516 59.7862 45.228C59.9942 44.932 60.2902 44.7 60.6742 44.532C61.0662 44.364 61.5142 44.28 62.0182 44.28C62.7702 44.28 63.3742 44.472 63.8302 44.856C64.2942 45.232 64.5422 45.748 64.5742 46.404H63.2062C63.1822 46.108 63.0622 45.872 62.8462 45.696C62.6302 45.52 62.3382 45.432 61.9702 45.432C61.6102 45.432 61.3342 45.5 61.1422 45.636C60.9502 45.772 60.8542 45.952 60.8542 46.176C60.8542 46.352 60.9182 46.5 61.0462 46.62C61.1742 46.74 61.3302 46.836 61.5142 46.908C61.6982 46.972 61.9702 47.056 62.3302 47.16C62.8102 47.288 63.2022 47.42 63.5062 47.556C63.8182 47.684 64.0862 47.876 64.3102 48.132C64.5342 48.388 64.6502 48.728 64.6582 49.152C64.6582 49.528 64.5542 49.864 64.3462 50.16C64.1382 50.456 63.8422 50.688 63.4582 50.856C63.0822 51.024 62.6382 51.108 62.1262 51.108Z" fill="white"/>
</svg>
