<svg width="80" height="58" viewBox="0 0 80 58" fill="none" xmlns="http://www.w3.org/2000/svg">
<path d="M28.4666 26.037L28.7283 26.5336C30.0243 25.6273 30.9465 24.2617 32.4169 23.5788C33.0443 23.284 33.6557 22.9566 34.2487 22.5981C34.4107 22.5112 34.4979 22.3249 34.635 22.2008C35.3578 21.5428 36.1055 20.9096 36.8158 20.2392C37.0025 20.0649 37.1254 19.8332 37.1647 19.5812C37.2021 19.1343 37.1771 18.737 37.6881 18.5011C37.8251 18.4391 37.9373 18.0666 37.875 17.8928C37.6881 17.3217 37.4264 16.7879 37.1148 16.043C36.7285 16.552 36.4918 16.8996 36.2052 17.2224C35.9185 17.5452 35.5073 17.9176 35.1833 18.2777C34.8593 18.6377 34.6101 18.886 34.4481 19.246C34.2861 19.6061 34.1366 20.1647 34.797 20.4503L34.6599 20.6117L33.7253 20.4254C33.6341 20.5405 33.5341 20.6484 33.4263 20.7482C33.3617 20.7877 33.2895 20.8131 33.2144 20.8227C32.9901 20.3013 32.6163 20.7358 32.3297 20.6862L32.3795 20.5372L31.4823 20.1523C32.2923 20.0406 32.9527 19.7302 33.4512 19.0846C33.5327 18.9949 33.6077 18.8995 33.6755 18.7991C34.5229 17.3962 35.3453 15.9809 36.2176 14.5904C36.4172 14.292 36.6812 14.0418 36.9902 13.858C37.5011 13.5352 37.5759 13.3117 37.2021 12.8524C36.8282 12.393 36.8531 11.6729 37.3391 11.1888C37.8251 10.7046 38.4607 10.6425 38.9965 11.077L39.9934 11.8964C40.1679 11.5488 40.4046 11.1888 40.5293 10.8039C40.9156 9.55 41.2894 8.2961 41.6009 7.02978C41.7006 6.65733 41.576 6.22281 41.5012 5.83795C41.4265 5.45309 41.2395 5.19237 41.1648 4.85717C40.9779 4.02537 41.4639 3.21841 42.2489 3.0446C42.4504 2.99521 42.6597 2.98674 42.8646 3.0197C43.0694 3.05265 43.2654 3.12636 43.441 3.23643C43.6166 3.34649 43.7682 3.49066 43.8866 3.66033C44.0051 3.83001 44.0881 4.02171 44.1306 4.22401C44.305 4.99374 43.7817 5.78829 42.9592 5.98693C42.8325 6.0212 42.7034 6.0461 42.5729 6.06142C42.5231 6.90563 42.5231 7.73743 42.4109 8.54439C42.2988 9.35136 42.062 9.78588 41.9 10.419C41.6508 11.4247 41.3642 12.4303 41.1897 13.4607C41.121 13.9106 41.1951 14.3707 41.4015 14.7767C42.0246 15.9064 41.8875 17.0734 41.7131 18.2653C41.6383 18.7494 41.6632 19.1467 42.1617 19.4074C42.3112 19.4943 42.5106 19.693 42.4981 19.8171C42.4483 20.351 42.8346 20.4503 43.1835 20.6117C43.4808 20.7534 43.7681 20.9152 44.0434 21.0959C45.9624 22.4987 47.8815 23.9016 49.8005 25.3293C49.9625 25.4535 50.0373 25.7142 50.1993 25.8632C50.3613 26.0121 50.7974 26.2604 51.1713 26.0246C51.4032 25.8602 51.6734 25.7576 51.9563 25.7266L51.1713 26.2853L51.3706 26.6329C51.9563 26.4963 52.5171 26.3349 53.1028 26.2356C53.3645 26.186 53.6511 26.2232 53.9252 26.2232L54 26.4343C53.5265 26.8564 53.0654 27.2909 52.5794 27.6757C52.0934 28.0606 51.6323 28.3337 51.1837 28.6938C50.7351 29.0538 50.6977 28.8924 50.5108 28.5448C50.0497 27.713 49.4641 27.0674 48.5544 26.6081C47.6447 26.1487 46.573 25.2176 45.5387 24.572C44.978 24.2244 44.3175 24.0134 43.6944 23.7775C43.0714 23.5416 42.2614 23.2809 41.5386 23.0202C40.8159 22.7594 40.1554 22.4863 39.4576 22.2504C39.2833 22.1984 39.0955 22.2162 38.9342 22.3001C36.3048 23.6533 33.6506 24.9817 31.258 26.7695C31.0835 26.906 30.7845 26.8936 30.5975 27.0426C30.0323 27.4629 29.4915 27.9146 28.9776 28.3958C28.6909 28.6689 28.4791 28.9172 28.0305 28.7807C27.856 28.731 27.6317 28.8427 27.4448 28.9172C26.9837 29.0786 26.585 29.0166 26.2859 28.6193C26.1488 28.4331 25.9494 28.1103 26.0117 27.9861C26.0741 27.862 26.423 27.6385 26.6722 27.5268C27.1333 27.3281 27.6566 27.2412 28.0679 26.9805C28.4791 26.7198 28.3296 26.397 28.4666 26.037Z" fill="white"/>
<path d="M16.5608 49.296H13.0688L12.4688 51H11.0408L14.0288 42.648H15.6128L18.6008 51H17.1608L16.5608 49.296ZM16.1768 48.18L14.8208 44.304L13.4528 48.18H16.1768ZM20.596 43.512C20.348 43.512 20.14 43.428 19.972 43.26C19.804 43.092 19.72 42.884 19.72 42.636C19.72 42.388 19.804 42.18 19.972 42.012C20.14 41.844 20.348 41.76 20.596 41.76C20.836 41.76 21.04 41.844 21.208 42.012C21.376 42.18 21.46 42.388 21.46 42.636C21.46 42.884 21.376 43.092 21.208 43.26C21.04 43.428 20.836 43.512 20.596 43.512ZM21.268 44.388V51H19.9V44.388H21.268ZM24.4321 45.348C24.6321 45.012 24.8961 44.752 25.2241 44.568C25.5601 44.376 25.9561 44.28 26.4121 44.28V45.696H26.0641C25.5281 45.696 25.1201 45.832 24.8401 46.104C24.5681 46.376 24.4321 46.848 24.4321 47.52V51H23.0641V44.388H24.4321V45.348ZM31.4827 43.512C31.2347 43.512 31.0267 43.428 30.8587 43.26C30.6907 43.092 30.6067 42.884 30.6067 42.636C30.6067 42.388 30.6907 42.18 30.8587 42.012C31.0267 41.844 31.2347 41.76 31.4827 41.76C31.7227 41.76 31.9267 41.844 32.0947 42.012C32.2627 42.18 32.3467 42.388 32.3467 42.636C32.3467 42.884 32.2627 43.092 32.0947 43.26C31.9267 43.428 31.7227 43.512 31.4827 43.512ZM32.1547 52.296C32.1547 52.944 31.9907 53.412 31.6627 53.7C31.3427 53.996 30.8747 54.144 30.2587 54.144H29.5507V52.992H30.0187C30.2987 52.992 30.4947 52.936 30.6067 52.824C30.7267 52.72 30.7867 52.544 30.7867 52.296V44.388H32.1547V52.296ZM36.8188 51.108C36.1948 51.108 35.6308 50.968 35.1268 50.688C34.6228 50.4 34.2268 50 33.9388 49.488C33.6508 48.968 33.5068 48.368 33.5068 47.688C33.5068 47.016 33.6548 46.42 33.9508 45.9C34.2468 45.38 34.6508 44.98 35.1628 44.7C35.6748 44.42 36.2468 44.28 36.8788 44.28C37.5108 44.28 38.0828 44.42 38.5948 44.7C39.1068 44.98 39.5108 45.38 39.8068 45.9C40.1028 46.42 40.2508 47.016 40.2508 47.688C40.2508 48.36 40.0988 48.956 39.7948 49.476C39.4908 49.996 39.0748 50.4 38.5468 50.688C38.0268 50.968 37.4508 51.108 36.8188 51.108ZM36.8188 49.92C37.1708 49.92 37.4988 49.836 37.8028 49.668C38.1148 49.5 38.3668 49.248 38.5588 48.912C38.7508 48.576 38.8468 48.168 38.8468 47.688C38.8468 47.208 38.7548 46.804 38.5708 46.476C38.3868 46.14 38.1428 45.888 37.8388 45.72C37.5348 45.552 37.2068 45.468 36.8548 45.468C36.5028 45.468 36.1748 45.552 35.8708 45.72C35.5748 45.888 35.3388 46.14 35.1628 46.476C34.9868 46.804 34.8988 47.208 34.8988 47.688C34.8988 48.4 35.0788 48.952 35.4388 49.344C35.8068 49.728 36.2668 49.92 36.8188 49.92ZM42.9711 45.348C43.1711 45.012 43.4351 44.752 43.7631 44.568C44.0991 44.376 44.4951 44.28 44.9511 44.28V45.696H44.6031C44.0671 45.696 43.6591 45.832 43.3791 46.104C43.1071 46.376 42.9711 46.848 42.9711 47.52V51H41.6031V44.388H42.9711V45.348ZM45.7526 47.664C45.7526 47 45.8886 46.412 46.1606 45.9C46.4406 45.388 46.8166 44.992 47.2886 44.712C47.7686 44.424 48.3006 44.28 48.8846 44.28C49.3166 44.28 49.7406 44.376 50.1566 44.568C50.5806 44.752 50.9166 45 51.1646 45.312V42.12H52.5446V51H51.1646V50.004C50.9406 50.324 50.6286 50.588 50.2286 50.796C49.8366 51.004 49.3846 51.108 48.8726 51.108C48.2966 51.108 47.7686 50.964 47.2886 50.676C46.8166 50.38 46.4406 49.972 46.1606 49.452C45.8886 48.924 45.7526 48.328 45.7526 47.664ZM51.1646 47.688C51.1646 47.232 51.0686 46.836 50.8766 46.5C50.6926 46.164 50.4486 45.908 50.1446 45.732C49.8406 45.556 49.5126 45.468 49.1606 45.468C48.8086 45.468 48.4806 45.556 48.1766 45.732C47.8726 45.9 47.6246 46.152 47.4326 46.488C47.2486 46.816 47.1566 47.208 47.1566 47.664C47.1566 48.12 47.2486 48.52 47.4326 48.864C47.6246 49.208 47.8726 49.472 48.1766 49.656C48.4886 49.832 48.8166 49.92 49.1606 49.92C49.5126 49.92 49.8406 49.832 50.1446 49.656C50.4486 49.48 50.6926 49.224 50.8766 48.888C51.0686 48.544 51.1646 48.144 51.1646 47.688ZM53.8854 47.664C53.8854 47 54.0214 46.412 54.2934 45.9C54.5734 45.388 54.9494 44.992 55.4214 44.712C55.9014 44.424 56.4294 44.28 57.0054 44.28C57.5254 44.28 57.9774 44.384 58.3614 44.592C58.7534 44.792 59.0654 45.044 59.2974 45.348V44.388H60.6774V51H59.2974V50.016C59.0654 50.328 58.7494 50.588 58.3494 50.796C57.9494 51.004 57.4934 51.108 56.9814 51.108C56.4134 51.108 55.8934 50.964 55.4214 50.676C54.9494 50.38 54.5734 49.972 54.2934 49.452C54.0214 48.924 53.8854 48.328 53.8854 47.664ZM59.2974 47.688C59.2974 47.232 59.2014 46.836 59.0094 46.5C58.8254 46.164 58.5814 45.908 58.2774 45.732C57.9734 45.556 57.6454 45.468 57.2934 45.468C56.9414 45.468 56.6134 45.556 56.3094 45.732C56.0054 45.9 55.7574 46.152 55.5654 46.488C55.3814 46.816 55.2894 47.208 55.2894 47.664C55.2894 48.12 55.3814 48.52 55.5654 48.864C55.7574 49.208 56.0054 49.472 56.3094 49.656C56.6214 49.832 56.9494 49.92 57.2934 49.92C57.6454 49.92 57.9734 49.832 58.2774 49.656C58.5814 49.48 58.8254 49.224 59.0094 48.888C59.2014 48.544 59.2974 48.144 59.2974 47.688ZM65.8102 44.28C66.3302 44.28 66.7942 44.388 67.2022 44.604C67.6182 44.82 67.9422 45.14 68.1742 45.564C68.4062 45.988 68.5222 46.5 68.5222 47.1V51H67.1662V47.304C67.1662 46.712 67.0182 46.26 66.7222 45.948C66.4262 45.628 66.0222 45.468 65.5102 45.468C64.9982 45.468 64.5902 45.628 64.2862 45.948C63.9902 46.26 63.8422 46.712 63.8422 47.304V51H62.4742V44.388H63.8422V45.144C64.0662 44.872 64.3502 44.66 64.6942 44.508C65.0462 44.356 65.4182 44.28 65.8102 44.28Z" fill="white"/>
</svg>
