<svg width="46" height="32" viewBox="0 0 46 32" fill="none" xmlns="http://www.w3.org/2000/svg">
<path d="M11.959 11.5368C12.3101 11.0868 12.5471 10.4612 12.4818 9.83752C11.9761 9.85901 11.364 10.1943 11.0008 10.6443C10.6757 11.0419 10.3906 11.679 10.4679 12.2899C11.0319 12.3362 11.6079 11.9861 11.959 11.5368Z" fill="white"/>
<path d="M14.2176 15.3826C14.2062 14.036 15.2569 13.3895 15.3044 13.358C14.7132 12.4427 13.793 12.3173 13.4647 12.3025C12.6821 12.2187 11.9369 12.79 11.5402 12.79C11.1434 12.79 10.53 12.3146 9.88109 12.328C9.02685 12.3414 8.24041 12.8531 7.80061 13.6618C6.91405 15.2894 7.57438 17.7015 8.43749 19.0226C8.86018 19.6684 9.36335 20.396 10.0249 20.3692C10.6625 20.3423 10.9033 19.9333 11.6726 19.9333C12.4419 19.9333 12.6587 20.3692 13.3323 20.3564C14.0173 20.3423 14.4521 19.6965 14.8716 19.0487C15.3557 18.299 15.556 17.5734 15.5674 17.5352C15.5522 17.5285 14.2315 16.9927 14.2176 15.3826Z" fill="white"/>
<path d="M18.8477 19.8162V11.4758H21.9753C22.616 11.4758 23.1536 11.5953 23.588 11.8342C24.0251 12.0731 24.355 12.4016 24.5776 12.8197C24.803 13.2351 24.9156 13.7075 24.9156 14.237C24.9156 14.7718 24.803 15.2469 24.5776 15.6623C24.3523 16.0777 24.0197 16.4049 23.5799 16.6438C23.14 16.88 22.5984 16.9981 21.9549 16.9981H19.8821V15.756H21.7513C22.126 15.756 22.4328 15.6908 22.6717 15.5605C22.9106 15.4302 23.0871 15.251 23.2011 15.0229C23.3179 14.7949 23.3762 14.5329 23.3762 14.237C23.3762 13.941 23.3179 13.6804 23.2011 13.455C23.0871 13.2297 22.9093 13.0546 22.6676 12.9297C22.4287 12.8021 22.1206 12.7383 21.7432 12.7383H20.3585V19.8162H18.8477Z" fill="white"/>
<path d="M27.8509 19.9425C27.4545 19.9425 27.0975 19.8719 26.7798 19.7307C26.4649 19.5868 26.2151 19.3751 26.0305 19.0954C25.8486 18.8158 25.7576 18.471 25.7576 18.061C25.7576 17.7081 25.8228 17.4162 25.9531 17.1854C26.0834 16.9547 26.2612 16.77 26.4866 16.6316C26.7119 16.4931 26.9658 16.3886 27.2481 16.318C27.5332 16.2447 27.8278 16.1917 28.1319 16.1592C28.4984 16.1212 28.7957 16.0872 29.0237 16.0574C29.2518 16.0248 29.4174 15.9759 29.5206 15.9107C29.6265 15.8429 29.6794 15.7383 29.6794 15.5972V15.5727C29.6794 15.2659 29.5884 15.0284 29.4065 14.86C29.2246 14.6917 28.9626 14.6076 28.6206 14.6076C28.2595 14.6076 27.973 14.6863 27.7613 14.8438C27.5522 15.0012 27.411 15.1872 27.3377 15.4017L25.9612 15.2062C26.0698 14.8261 26.249 14.5085 26.4988 14.2533C26.7486 13.9953 27.054 13.8026 27.4151 13.675C27.7762 13.5446 28.1753 13.4795 28.6124 13.4795C28.9138 13.4795 29.2138 13.5148 29.5124 13.5854C29.8111 13.656 30.0839 13.7727 30.331 13.9356C30.5781 14.0958 30.7762 14.3143 30.9256 14.5913C31.0776 14.8682 31.1536 15.2144 31.1536 15.6297V19.8162H29.7364V18.9569H29.6875C29.5979 19.1307 29.4717 19.2936 29.3088 19.4456C29.1486 19.595 28.9464 19.7158 28.702 19.8081C28.4604 19.8977 28.1767 19.9425 27.8509 19.9425ZM28.2337 18.8592C28.5296 18.8592 28.7862 18.8008 29.0034 18.6841C29.2206 18.5646 29.3875 18.4072 29.5043 18.2117C29.6237 18.0162 29.6835 17.8031 29.6835 17.5723V16.8352C29.6373 16.8732 29.5586 16.9085 29.4473 16.9411C29.3387 16.9737 29.2165 17.0022 29.0807 17.0266C28.945 17.051 28.8106 17.0728 28.6776 17.0918C28.5445 17.1108 28.4291 17.1271 28.3314 17.1406C28.1115 17.1705 27.9147 17.2194 27.7409 17.2872C27.5671 17.3551 27.43 17.4501 27.3296 17.5723C27.2291 17.6918 27.1789 17.8465 27.1789 18.0366C27.1789 18.3081 27.278 18.5131 27.4762 18.6515C27.6744 18.79 27.9269 18.8592 28.2337 18.8592Z" fill="white"/>
<path d="M33.3283 22.162C33.1274 22.162 32.9414 22.1457 32.7704 22.1131C32.6021 22.0832 32.4677 22.048 32.3672 22.0072L32.7093 20.8588C32.9238 20.9212 33.1152 20.9511 33.2835 20.9484C33.4519 20.9457 33.5998 20.8927 33.7274 20.7896C33.8577 20.6891 33.9677 20.5208 34.0573 20.2846L34.1835 19.9466L31.9152 13.5609H33.479L34.9207 18.285H34.9858L36.4315 13.5609H37.9994L35.4949 20.5737C35.3781 20.9049 35.2234 21.1887 35.0306 21.4249C34.8379 21.6638 34.6016 21.8457 34.322 21.9706C34.0451 22.0982 33.7139 22.162 33.3283 22.162Z" fill="white"/>
<rect x="0.5" y="0.5" width="45" height="31" rx="5.5" stroke="#3D4347"/>
</svg>
