<svg width="79" height="30" viewBox="0 0 79 30" fill="none" xmlns="http://www.w3.org/2000/svg">
<rect width="79" height="30" rx="15" fill="#CDFE00"/>
<path d="M28.0374 17.296H24.5454L23.9454 19H22.5174L25.5054 10.648H27.0894L30.0774 19H28.6374L28.0374 17.296ZM27.6534 16.18L26.2974 12.304L24.9294 16.18H27.6534ZM32.7446 13.36C32.9766 13.056 33.2926 12.8 33.6926 12.592C34.0926 12.384 34.5446 12.28 35.0486 12.28C35.6246 12.28 36.1486 12.424 36.6206 12.712C37.1006 12.992 37.4766 13.388 37.7486 13.9C38.0206 14.412 38.1566 15 38.1566 15.664C38.1566 16.328 38.0206 16.924 37.7486 17.452C37.4766 17.972 37.1006 18.38 36.6206 18.676C36.1486 18.964 35.6246 19.108 35.0486 19.108C34.5446 19.108 34.0966 19.008 33.7046 18.808C33.3126 18.6 32.9926 18.344 32.7446 18.04V22.144H31.3766V12.388H32.7446V13.36ZM36.7646 15.664C36.7646 15.208 36.6686 14.816 36.4766 14.488C36.2926 14.152 36.0446 13.9 35.7326 13.732C35.4286 13.556 35.1006 13.468 34.7486 13.468C34.4046 13.468 34.0766 13.556 33.7646 13.732C33.4606 13.908 33.2126 14.164 33.0206 14.5C32.8366 14.836 32.7446 15.232 32.7446 15.688C32.7446 16.144 32.8366 16.544 33.0206 16.888C33.2126 17.224 33.4606 17.48 33.7646 17.656C34.0766 17.832 34.4046 17.92 34.7486 17.92C35.1006 17.92 35.4286 17.832 35.7326 17.656C36.0446 17.472 36.2926 17.208 36.4766 16.864C36.6686 16.52 36.7646 16.12 36.7646 15.664ZM40.8774 13.36C41.1094 13.056 41.4254 12.8 41.8254 12.592C42.2254 12.384 42.6774 12.28 43.1814 12.28C43.7574 12.28 44.2814 12.424 44.7534 12.712C45.2334 12.992 45.6094 13.388 45.8814 13.9C46.1534 14.412 46.2894 15 46.2894 15.664C46.2894 16.328 46.1534 16.924 45.8814 17.452C45.6094 17.972 45.2334 18.38 44.7534 18.676C44.2814 18.964 43.7574 19.108 43.1814 19.108C42.6774 19.108 42.2294 19.008 41.8374 18.808C41.4454 18.6 41.1254 18.344 40.8774 18.04V22.144H39.5094V12.388H40.8774V13.36ZM44.8974 15.664C44.8974 15.208 44.8014 14.816 44.6094 14.488C44.4254 14.152 44.1774 13.9 43.8654 13.732C43.5614 13.556 43.2334 13.468 42.8814 13.468C42.5374 13.468 42.2094 13.556 41.8974 13.732C41.5934 13.908 41.3454 14.164 41.1534 14.5C40.9694 14.836 40.8774 15.232 40.8774 15.688C40.8774 16.144 40.9694 16.544 41.1534 16.888C41.3454 17.224 41.5934 17.48 41.8974 17.656C42.2094 17.832 42.5374 17.92 42.8814 17.92C43.2334 17.92 43.5614 17.832 43.8654 17.656C44.1774 17.472 44.4254 17.208 44.6094 16.864C44.8014 16.52 44.8974 16.12 44.8974 15.664ZM49.0102 10.12V19H47.6422V10.12H49.0102ZM56.7583 12.388L52.7023 22.108H51.2863L52.6303 18.892L50.0263 12.388H51.5503L53.4103 17.428L55.3423 12.388H56.7583Z" fill="#0C1419"/>
</svg>
