<svg width="24" height="24" viewBox="0 0 24 24" fill="none" xmlns="http://www.w3.org/2000/svg">
<g clip-path="url(#clip0_9_773)">
<path d="M21.3842 21.6243L18.6735 14.4972C18.9413 14.3371 19.1741 14.1246 19.358 13.8725C19.5554 13.6011 19.6906 13.2894 19.7539 12.9597C19.8171 12.63 19.8068 12.2905 19.7238 11.9652C19.6536 11.6808 19.6654 11.3824 19.7578 11.1044C19.8503 10.8264 20.0195 10.5803 20.246 10.3946C20.5082 10.1797 20.7194 9.90918 20.8642 9.60266C21.0091 9.29615 21.084 8.96128 21.0836 8.62226C21.0831 8.28325 21.0074 7.94856 20.8618 7.64241C20.7162 7.33626 20.5043 7.0663 20.2416 6.85204C20.0159 6.66556 19.8476 6.419 19.7562 6.14089C19.6648 5.86277 19.654 5.56446 19.725 5.28045C19.8074 4.95576 19.8172 4.61692 19.7538 4.288C19.6904 3.95909 19.5553 3.64818 19.3581 3.3774C19.1559 3.09925 18.8949 2.86911 18.5936 2.70336C18.2923 2.53762 17.9581 2.44035 17.615 2.41849C17.3197 2.39862 17.0358 2.297 16.795 2.12501C16.5543 1.95301 16.3661 1.71741 16.2515 1.44457C16.1233 1.13224 15.9285 0.851638 15.6806 0.622353C15.4328 0.393068 15.1379 0.220619 14.8166 0.117037C14.4906 0.0104604 14.1453 -0.0237487 13.8048 0.0167948C13.4643 0.0573383 13.1367 0.171659 12.8449 0.351787C12.5904 0.507244 12.298 0.589498 11.9999 0.589498C11.7017 0.589498 11.4093 0.507244 11.1548 0.351787C10.863 0.171652 10.5354 0.057327 10.1949 0.0167834C9.85437 -0.0237602 9.5091 0.0104528 9.18315 0.117037C8.86191 0.220704 8.56715 0.393185 8.3194 0.622457C8.07166 0.851729 7.8769 1.13227 7.7487 1.44454C7.63382 1.71789 7.44507 1.95383 7.2036 2.12591C6.96214 2.29799 6.67751 2.39941 6.38164 2.41879C6.03905 2.44099 5.70556 2.53843 5.4049 2.70417C5.10424 2.86991 4.84381 3.09987 4.64213 3.3777C4.44463 3.64914 4.30945 3.9608 4.24621 4.29047C4.18297 4.62014 4.19324 4.9597 4.27628 5.28495C4.34646 5.56935 4.33466 5.86782 4.24224 6.14579C4.14982 6.42377 3.98056 6.66988 3.75405 6.85564C3.49186 7.07055 3.28071 7.34104 3.13587 7.64755C2.99102 7.95406 2.9161 8.28893 2.91652 8.62794C2.91695 8.96696 2.9927 9.30164 3.13831 9.60778C3.28393 9.91393 3.49575 10.1839 3.75848 10.3981C3.98414 10.5846 4.15241 10.8312 4.24382 11.1093C4.33523 11.3873 4.34606 11.6856 4.27504 11.9696C4.19267 12.2943 4.18285 12.6332 4.24627 12.9621C4.30969 13.291 4.44479 13.6019 4.64198 13.8727C4.82587 14.1247 5.05868 14.337 5.3265 14.497L2.61589 21.6243C2.59035 21.6913 2.58456 21.7642 2.59923 21.8344C2.61389 21.9046 2.64839 21.9691 2.69862 22.0203C2.74886 22.0715 2.81272 22.1072 2.88263 22.1231C2.95254 22.1391 3.02557 22.1347 3.09304 22.1104L6.04545 21.0491L7.54583 23.8043C7.57803 23.8635 7.6256 23.9129 7.68354 23.9474C7.74148 23.9818 7.80763 24 7.87504 24C7.88348 24 7.89188 23.9997 7.90032 23.9991C7.97187 23.9943 8.04054 23.969 8.09818 23.9264C8.15582 23.8837 8.20001 23.8254 8.22552 23.7584L10.7633 17.0894C10.8996 17.0378 11.0308 16.9738 11.1552 16.8981C11.4096 16.7427 11.7019 16.6605 12 16.6605C12.2981 16.6605 12.5905 16.7427 12.8449 16.8981L12.8453 16.8983C12.9694 16.973 13.1001 17.0361 13.2358 17.0868L15.7746 23.758C15.8001 23.825 15.8443 23.8834 15.9019 23.926C15.9595 23.9687 16.0282 23.994 16.0998 23.9988C16.1082 23.9993 16.1166 23.9997 16.125 23.9997C16.1924 23.9997 16.2586 23.9815 16.3165 23.9471C16.3745 23.9126 16.4221 23.8632 16.4543 23.804L17.9546 21.0488L20.907 22.11C20.9745 22.1343 21.0475 22.1388 21.1175 22.1228C21.1874 22.1068 21.2512 22.0711 21.3015 22.02C21.3517 21.9688 21.3862 21.9043 21.4009 21.8341C21.4155 21.7639 21.4097 21.6909 21.3842 21.6239V21.6243ZM7.81463 22.7297L6.55047 20.4084C6.50764 20.3299 6.43817 20.2692 6.35457 20.2374C6.27097 20.2056 6.17875 20.2046 6.09454 20.2348L3.60649 21.129L6.02303 14.7756C6.14217 14.8035 6.26328 14.8222 6.38528 14.8316C6.68052 14.8515 6.96441 14.9531 7.20519 15.1251C7.44598 15.2971 7.63416 15.5327 7.7487 15.8055C7.87692 16.1178 8.07173 16.3984 8.31954 16.6277C8.56736 16.857 8.86221 17.0294 9.18353 17.133C9.41527 17.2078 9.65716 17.2465 9.90068 17.2477L7.81463 22.7297ZM10.7608 16.26C10.5617 16.383 10.3382 16.461 10.1059 16.4886C9.87357 16.5162 9.63802 16.4927 9.41569 16.4199C9.19799 16.3499 8.99818 16.2332 8.83019 16.0781C8.6622 15.9229 8.53007 15.733 8.44302 15.5216C8.27456 15.1187 7.99723 14.7708 7.64213 14.5167C7.28702 14.2626 6.86817 14.1125 6.43253 14.0831C6.1996 14.0681 5.97282 14.0021 5.76831 13.8896C5.56381 13.7771 5.3866 13.6209 5.24929 13.4321C5.11647 13.2496 5.02558 13.04 4.98311 12.8183C4.94064 12.5966 4.94763 12.3683 5.00359 12.1496C5.10814 11.7275 5.09113 11.2844 4.95453 10.8715C4.81793 10.4586 4.56731 10.0928 4.23162 9.81634C4.05464 9.67178 3.9121 9.48961 3.81435 9.28306C3.7166 9.07651 3.6661 8.85078 3.66653 8.62227C3.66695 8.39376 3.71827 8.16822 3.81678 7.96203C3.91529 7.75584 4.0585 7.57419 4.236 7.43029C4.57088 7.15313 4.82055 6.78692 4.95618 6.37394C5.09181 5.96095 5.10789 5.51802 5.00254 5.09629C4.94723 4.87815 4.94067 4.6505 4.98333 4.42955C5.02599 4.20859 5.11683 3.99974 5.24937 3.81787C5.38721 3.62871 5.56508 3.47228 5.7703 3.35972C5.97552 3.24717 6.20305 3.18127 6.43665 3.16672C6.87161 3.13677 7.28965 2.98637 7.64401 2.73236C7.99836 2.47835 8.27504 2.13075 8.44309 1.72845C8.53007 1.51697 8.66218 1.32703 8.83018 1.1719C8.99819 1.01678 9.19803 0.900202 9.41577 0.830325C9.63816 0.75753 9.87376 0.734118 10.1061 0.761722C10.3385 0.789325 10.5621 0.867279 10.7612 0.99015C11.1344 1.21801 11.5631 1.33856 12.0003 1.33856C12.4375 1.33856 12.8662 1.21801 13.2394 0.99015C13.4385 0.867311 13.662 0.789373 13.8943 0.76177C14.1266 0.734166 14.3621 0.757562 14.5845 0.830325C14.8022 0.900322 15.002 1.01696 15.17 1.17211C15.338 1.32726 15.4701 1.51718 15.5571 1.72864C15.7256 2.13147 16.0029 2.47942 16.358 2.73349C16.7131 2.98756 17.132 3.13771 17.5676 3.1671C17.8006 3.18205 18.0273 3.24812 18.2318 3.36063C18.4363 3.47314 18.6136 3.62932 18.7509 3.81806C18.8837 4.00057 18.9746 4.21016 19.0171 4.43185C19.0595 4.65355 19.0525 4.88188 18.9966 5.10056C18.892 5.5227 18.909 5.9658 19.0456 6.37868C19.1822 6.79156 19.4329 7.15737 19.7685 7.43385C19.9455 7.57841 20.0881 7.76058 20.1858 7.96713C20.2836 8.17368 20.3341 8.39941 20.3336 8.62792C20.3332 8.85643 20.2819 9.08197 20.1834 9.28816C20.0849 9.49435 19.9417 9.67599 19.7642 9.8199C19.4293 10.097 19.1796 10.4632 19.044 10.8762C18.9083 11.2892 18.8922 11.7321 18.9975 12.1538C19.0529 12.3719 19.0594 12.5996 19.0168 12.8205C18.9741 13.0415 18.8833 13.2503 18.7507 13.4322C18.6129 13.6214 18.435 13.7778 18.2298 13.8904C18.0246 14.0029 17.797 14.0688 17.5634 14.0834C17.1285 14.1133 16.7104 14.2637 16.3561 14.5177C16.0017 14.7717 15.725 15.1193 15.557 15.5216C15.47 15.7331 15.3379 15.923 15.1699 16.0782C15.0019 16.2333 14.802 16.3499 14.5843 16.4198C14.362 16.4928 14.1263 16.5163 13.8939 16.4887C13.6615 16.4611 13.4379 16.383 13.2389 16.2599C12.8657 16.0321 12.437 15.9116 11.9998 15.9116C11.5626 15.9116 11.1339 16.0322 10.7608 16.26ZM17.9055 20.2347C17.8213 20.2045 17.7291 20.2054 17.6455 20.2372C17.5619 20.269 17.4924 20.3297 17.4496 20.4083L16.1855 22.7295L14.0997 17.2485C14.3432 17.2471 14.5849 17.2082 14.8166 17.1332C15.1379 17.0296 15.4328 16.8571 15.6807 16.6278C15.9286 16.3985 16.1234 16.1178 16.2518 15.8055C16.3665 15.5321 16.5552 15.2961 16.7966 15.1241C17.038 14.952 17.3226 14.8506 17.6184 14.8313C17.7393 14.822 17.8592 14.8035 17.9772 14.7759L20.3936 21.1288L17.9055 20.2347Z" fill="white"/>
<path d="M17.625 8.625C17.625 7.51248 17.2951 6.42495 16.677 5.49992C16.0589 4.57489 15.1804 3.85392 14.1526 3.42818C13.1248 3.00244 11.9938 2.89104 10.9026 3.10809C9.81148 3.32513 8.8092 3.86086 8.02253 4.64753C7.23586 5.4342 6.70013 6.43648 6.48309 7.52762C6.26604 8.61876 6.37744 9.74976 6.80318 10.7776C7.22892 11.8054 7.94989 12.6839 8.87492 13.302C9.79995 13.9201 10.8875 14.25 12 14.25C13.4913 14.2483 14.9211 13.6552 15.9756 12.6006C17.0302 11.5461 17.6233 10.1163 17.625 8.625ZM12 13.5C11.0358 13.5 10.0933 13.2141 9.2916 12.6784C8.48991 12.1427 7.86507 11.3814 7.49609 10.4906C7.12711 9.59979 7.03057 8.61959 7.21867 7.67394C7.40678 6.72828 7.87108 5.85964 8.55286 5.17786C9.23464 4.49608 10.1033 4.03178 11.0489 3.84367C11.9946 3.65557 12.9748 3.75211 13.8656 4.12109C14.7564 4.49007 15.5177 5.11491 16.0534 5.9166C16.5891 6.71829 16.875 7.66082 16.875 8.625C16.8735 9.91749 16.3595 11.1566 15.4455 12.0705C14.5316 12.9845 13.2925 13.4985 12 13.5Z" fill="white"/>
<path d="M14.9825 7.38152L13.154 7.11583L12.3362 5.45908C12.3017 5.4006 12.2526 5.35214 12.1936 5.31847C12.1347 5.2848 12.0679 5.26709 12 5.26709C11.9321 5.26709 11.8654 5.2848 11.8065 5.31847C11.7475 5.35214 11.6984 5.4006 11.6639 5.45908L10.8461 7.11583L9.01763 7.38152C8.94834 7.39154 8.88325 7.42075 8.8297 7.46585C8.77616 7.51094 8.73631 7.57013 8.71467 7.6367C8.69302 7.70328 8.69044 7.77458 8.70722 7.84255C8.724 7.91051 8.75947 7.97242 8.80961 8.02127L10.1331 9.31089L9.82073 11.1319C9.80894 11.2008 9.81666 11.2717 9.84301 11.3364C9.86936 11.4012 9.91329 11.4573 9.96985 11.4984C10.0264 11.5395 10.0933 11.564 10.1631 11.5691C10.2328 11.5742 10.3026 11.5597 10.3645 11.5272L12 10.6675L13.6355 11.5272C13.6975 11.5597 13.7672 11.5742 13.837 11.5691C13.9067 11.564 13.9736 11.5395 14.0302 11.4984C14.0867 11.4573 14.1306 11.4012 14.157 11.3364C14.1833 11.2717 14.1911 11.2008 14.1793 11.1319L13.8669 9.31089L15.1904 8.02127C15.2405 7.97242 15.276 7.91051 15.2928 7.84255C15.3096 7.77458 15.307 7.70328 15.2853 7.6367C15.2637 7.57013 15.2238 7.51094 15.1703 7.46585C15.1168 7.42075 15.0517 7.39154 14.9824 7.38152H14.9825ZM13.2023 8.91152C13.1588 8.954 13.1263 9.0064 13.1076 9.06422C13.0888 9.12204 13.0844 9.18355 13.0946 9.24347L13.3118 10.5098L12.1743 9.91198C12.1206 9.8837 12.0607 9.86893 12 9.86893C11.9392 9.86893 11.8794 9.8837 11.8256 9.91198L10.6883 10.5097L10.9055 9.24332C10.9157 9.1834 10.9113 9.12189 10.8925 9.06407C10.8738 9.00625 10.8412 8.95385 10.7978 8.91137L9.87754 8.01452L11.1491 7.82976C11.2092 7.82103 11.2664 7.79778 11.3156 7.76201C11.3648 7.72625 11.4045 7.67905 11.4314 7.62448L12 6.47248L12.5688 7.62456C12.5956 7.67912 12.6354 7.72632 12.6846 7.76209C12.7338 7.79785 12.7909 7.8211 12.8511 7.82983L14.1226 8.01459L13.2023 8.91152Z" fill="white"/>
</g>
<defs>
<clipPath id="clip0_9_773">
<rect width="24" height="24" fill="white"/>
</clipPath>
</defs>
</svg>
