<svg width="64" height="108" viewBox="0 0 64 108" fill="none" xmlns="http://www.w3.org/2000/svg">
<path d="M38 28C38 26.4087 37.3679 24.8826 36.2426 23.7574C35.1174 22.6321 33.5913 22 32 22C30.4087 22 28.8826 22.6321 27.7574 23.7574C26.6321 24.8826 26 26.4087 26 28C26 35 23 37 23 37H41C41 37 38 35 38 28Z" stroke="white" stroke-width="1.5" stroke-linecap="round" stroke-linejoin="round"/>
<path d="M33.73 41C33.5542 41.3031 33.3019 41.5547 32.9982 41.7295C32.6946 41.9044 32.3504 41.9965 32 41.9965C31.6496 41.9965 31.3054 41.9044 31.0018 41.7295C30.6982 41.5547 30.4458 41.3031 30.27 41" stroke="white" stroke-width="1.5" stroke-linecap="round" stroke-linejoin="round"/>
<path d="M38 72C38 70.4087 37.3679 68.8826 36.2426 67.7574C35.1174 66.6321 33.5913 66 32 66C30.4087 66 28.8826 66.6321 27.7574 67.7574C26.6321 68.8826 26 70.4087 26 72C26 79 23 81 23 81H41C41 81 38 79 38 72Z" fill="#CDFE00"/>
<path d="M33.73 85C33.5542 85.3031 33.3019 85.5547 32.9982 85.7295C32.6946 85.9044 32.3504 85.9965 32 85.9965C31.6496 85.9965 31.3054 85.9044 31.0018 85.7295C30.6982 85.5547 30.4458 85.3031 30.27 85" stroke="#CDFE00" stroke-width="1.5" stroke-linecap="round" stroke-linejoin="round"/>
<rect x="0.5" y="0.5" width="63" height="107" rx="4.5" stroke="#9747FF" stroke-dasharray="10 5"/>
</svg>
