<svg width="21" height="20" viewBox="0 0 21 20" fill="none" xmlns="http://www.w3.org/2000/svg">
<path d="M15.1499 6.66666C15.1499 5.34057 14.6231 4.0688 13.6854 3.13112C12.7478 2.19344 11.476 1.66666 10.1499 1.66666C8.82382 1.66666 7.55205 2.19344 6.61437 3.13112C5.67669 4.0688 5.1499 5.34057 5.1499 6.66666C5.1499 12.5 2.6499 14.1667 2.6499 14.1667H17.6499C17.6499 14.1667 15.1499 12.5 15.1499 6.66666Z" stroke="white" stroke-width="1.25" stroke-linecap="round" stroke-linejoin="round"/>
<path d="M11.5913 17.5C11.4448 17.7526 11.2345 17.9622 10.9815 18.1079C10.7285 18.2537 10.4417 18.3304 10.1497 18.3304C9.85769 18.3304 9.57083 18.2537 9.31782 18.1079C9.06481 17.9622 8.85452 17.7526 8.70801 17.5" stroke="white" stroke-width="1.25" stroke-linecap="round" stroke-linejoin="round"/>
</svg>
