<svg width="108" height="64" viewBox="0 0 108 64" fill="none" xmlns="http://www.w3.org/2000/svg">
<path d="M31.6557 14.7958C35.1001 15.657 41.989 17.8958 41.989 19.9625C41.989 22.0292 40.2668 27.7125 39.4057 30.2958M10.989 25.1292C15.2945 29.4347 29.0723 33.3958 49.739 14.7958M55.8003 19.0909L49.3801 25.8391M64.8807 28.5375L59.7141 36.2875M75.0616 33.7044L71.9165 42.4716M86.6439 38.8707L86.0867 41.5594M8.40565 43.2123C10.1279 42.3512 18.2223 41.1459 26.489 43.2125C31.4874 44.4621 28.6279 46.3162 30.7755 47.6051M103.989 43.2123C98.8223 48.379 98.8223 48.379 70.4057 48.379C41.0638 49.7127 33.0677 48.9808 30.7755 47.6051M30.7755 47.6051L36.8223 35.4623M8.89414 41.9336C10.3953 36.6162 7.17727 28.2635 10.9887 22.5463C16.1554 14.7963 10.9887 12.213 16.1554 12.213C21.322 12.213 23.9054 25.1297 36.822 7.04634C49.7387 -11.037 41.9887 32.8797 98.822 38.0463C114.322 38.0463 98.822 61.2959 78.1554 61.2959H10.9887C1.16771 61.2959 0.681028 49.6307 7.30831 44.0374C7.99545 43.4575 8.64984 42.7989 8.89414 41.9336Z" stroke="#CDFE00" stroke-width="4.13333" stroke-linecap="round"/>
</svg>
