<svg width="20" height="12" viewBox="0 0 20 12" fill="none" xmlns="http://www.w3.org/2000/svg">
<path d="M1.56928 3.84037C0.831585 4.94691 1.45442 6.56356 1.16388 7.59274C1.1166 7.76022 0.989943 7.88769 0.856947 7.99993C-0.425753 9.08251 -0.331556 11.3403 1.56928 11.3403H14.5693C18.5693 11.3403 21.5693 6.84037 18.5693 6.84037C7.56928 5.84037 9.06928 -2.65963 6.56928 0.840366C4.06928 4.34037 3.56928 1.84037 2.56928 1.84037C1.56928 1.84037 2.56928 2.34037 1.56928 3.84037Z" fill="#F4F4F6"/>
<path d="M0.5 7.49991C0.833333 7.33324 2.96939 7.44028 4.56939 7.84028C5.53683 8.08214 4.98336 8.44098 5.39903 8.69045M19.5694 7.84024C18.5694 8.84024 18.5694 8.84024 13.0694 8.84024C7.39032 9.09838 5.84268 8.95671 5.39903 8.69045M5.39903 8.69045L6.56939 6.34024" stroke="#0C1419" stroke-width="0.8" stroke-linecap="round"/>
<path d="M5.56934 2.34027C6.236 2.50694 7.56934 2.94027 7.56934 3.34027C7.56934 3.74027 7.236 4.84027 7.06934 5.34027" stroke="#CDFE00" stroke-width="0.8" stroke-linecap="round"/>
<path d="M1 3.99994C1.83333 4.83327 5.5 5.59994 9.5 1.99994" stroke="#0C1419" stroke-width="0.8" stroke-linecap="round"/>
<path d="M10.2425 3.17158L8.99987 4.47768" stroke="#0C1419" stroke-width="0.8" stroke-linecap="round"/>
<path d="M12.5 4.49994L11 6.49994" stroke="#0C1419" stroke-width="0.8" stroke-linecap="round"/>
<path d="M14.4998 5.5L13.3616 7.69689" stroke="#0C1419" stroke-width="0.8" stroke-linecap="round"/>
<path d="M16.9999 5.99995L16.1042 7.52032" stroke="#0C1419" stroke-width="0.8" stroke-linecap="round"/>
</svg>
