<svg width="21" height="20" viewBox="0 0 21 20" fill="none" xmlns="http://www.w3.org/2000/svg">
<path d="M10.2996 5.54335C8.99397 5.54335 7.88731 4.95701 7.66864 4.15201C7.62252 3.97538 7.50336 3.82676 7.34097 3.74335C7.17001 3.654 6.9694 3.64046 6.78797 3.70601L3.66864 4.81435C3.44825 4.88994 3.26154 5.04077 3.14131 5.24035L0.445306 9.67968C0.223591 10.0405 0.256019 10.5024 0.525973 10.8287C1.05597 11.4717 2.78864 12.1 4.63297 12.3363V18.3333C4.63297 19.5623 7.64631 20 10.4663 20C13.9616 20 15.9663 19.3927 15.9663 18.3333V12.2857C17.6633 12.0107 19.5916 11.415 20.0726 10.8297C20.343 10.5035 20.3758 10.0415 20.1543 9.68035L17.459 5.24201C17.3393 5.04245 17.153 4.89158 16.933 4.81601L16.0463 4.50001C16.5021 4.15615 17.0624 3.97961 17.633 4.00001C17.8171 4.00001 17.9663 3.85078 17.9663 3.66668C17.9663 3.48259 17.8171 3.33335 17.633 3.33335C15.007 3.33335 14.9663 0.455348 14.9663 0.333348C14.9688 0.149253 14.8216 -0.00200031 14.6375 -0.00448559C14.4534 -0.00697087 14.3021 0.140253 14.2996 0.324348V0.330014V0.333348C14.2996 0.456014 14.2693 3.33335 11.633 3.33335C11.4489 3.33335 11.2996 3.48259 11.2996 3.66668C11.2996 3.85078 11.4489 4.00001 11.633 4.00001C12.0672 3.9906 12.497 4.08849 12.8843 4.28501C12.5846 5.02168 11.531 5.54335 10.2996 5.54335V5.54335ZM16.8883 5.58635L19.5853 10.0273C19.6583 10.1459 19.6476 10.2979 19.5586 10.405C19.3046 10.7143 17.8446 11.297 15.9663 11.611V10C15.9663 9.81592 15.8171 9.66668 15.633 9.66668C15.4489 9.66668 15.2996 9.81592 15.2996 10V18.3333C15.2996 18.6467 14.0826 19.3333 10.4663 19.3333C6.57164 19.3333 5.29964 18.5897 5.29964 18.3333V10C5.29964 9.81592 5.1504 9.66668 4.96631 9.66668C4.78221 9.66668 4.63297 9.81592 4.63297 10V11.6647C2.75797 11.414 1.35764 10.7897 1.03931 10.4037C0.951128 10.2962 0.941209 10.1444 1.01464 10.0263L3.71197 5.58501C3.7519 5.51856 3.81435 5.46865 3.88797 5.44435L7.02464 4.32401C7.32464 5.43435 8.67264 6.21001 10.2996 6.21001C11.7483 6.21001 12.9726 5.59435 13.4286 4.68668C14.2793 5.54635 14.2996 6.91701 14.2996 7.00001C14.2972 7.18411 14.4444 7.33536 14.6285 7.33785C14.8126 7.34033 14.9638 7.19311 14.9663 7.00901V7.00335V7.00001C14.9823 6.3038 15.1847 5.62463 15.5526 5.03335L16.7153 5.44601C16.7878 5.47082 16.8491 5.52056 16.8883 5.58635ZM14.633 1.98868C14.9062 2.7098 15.4331 3.30645 16.115 3.66668C15.4331 4.02691 14.9062 4.62356 14.633 5.34468C14.3598 4.62356 13.8328 4.02691 13.151 3.66668C13.8328 3.30645 14.3598 2.7098 14.633 1.98868V1.98868Z" fill="white"/>
<path d="M11.6328 12.3333C11.6328 12.238 11.6661 10 13.6328 10C13.8169 10 13.9661 9.85078 13.9661 9.66668C13.9661 9.48259 13.8169 9.33335 13.6328 9.33335C11.6661 9.33335 11.6328 7.09468 11.6328 7.00001V6.99801C11.6325 6.87893 11.5686 6.76907 11.4653 6.70984C11.362 6.6506 11.2349 6.65099 11.1319 6.71084C11.029 6.77069 10.9658 6.88093 10.9661 7.00001C10.9661 7.09535 10.9328 9.33335 8.96615 9.33335C8.78205 9.33335 8.63281 9.48259 8.63281 9.66668C8.63281 9.85078 8.78205 10 8.96615 10C10.9328 10 10.9661 12.2387 10.9661 12.3333V12.3353C10.9667 12.5194 11.1164 12.6682 11.3005 12.6677C11.4846 12.6671 11.6334 12.5174 11.6328 12.3333ZM10.2908 9.66668C10.7382 9.39379 11.0904 8.98951 11.2995 8.50901C11.5086 8.98951 11.8608 9.39379 12.3081 9.66668C11.8608 9.93957 11.5086 10.3439 11.2995 10.8243C11.0904 10.3439 10.7382 9.93957 10.2908 9.66668Z" fill="white"/>
<path d="M12.6328 13V13.6667C12.6328 13.8508 12.7821 14 12.9661 14C13.1502 14 13.2995 13.8508 13.2995 13.6667V13C13.2995 12.8159 13.1502 12.6667 12.9661 12.6667C12.7821 12.6667 12.6328 12.8159 12.6328 13Z" fill="white"/>
<path d="M12.9661 14.6667C12.7821 14.6667 12.6328 14.8159 12.6328 15V15.6667C12.6328 15.8508 12.7821 16 12.9661 16C13.1502 16 13.2995 15.8508 13.2995 15.6667V15C13.2995 14.8159 13.1502 14.6667 12.9661 14.6667Z" fill="white"/>
<path d="M14.2998 14H13.6331C13.449 14 13.2998 14.1492 13.2998 14.3333C13.2998 14.5174 13.449 14.6667 13.6331 14.6667H14.2998C14.4839 14.6667 14.6331 14.5174 14.6331 14.3333C14.6331 14.1492 14.4839 14 14.2998 14Z" fill="white"/>
<path d="M12.2998 14H11.6331C11.449 14 11.2998 14.1492 11.2998 14.3333C11.2998 14.5174 11.449 14.6667 11.6331 14.6667H12.2998C12.4839 14.6667 12.6331 14.5174 12.6331 14.3333C12.6331 14.1492 12.4839 14 12.2998 14Z" fill="white"/>
</svg>
