<svg width="64" height="108" viewBox="0 0 64 108" fill="none" xmlns="http://www.w3.org/2000/svg">
<path d="M26.1564 30.4421C23.2176 38.3551 28.8504 40.3334 32.0341 40.3334C34.2383 39.9529 39.0139 38.4312 38.6465 33.4855C38.3527 29.529 34.1158 24.7355 32.0341 22.8334C30.5647 24.7355 27.9932 26.6377 26.1564 30.4421Z" stroke="white"/>
<path d="M30.0409 31.9074C26.8856 36.7222 29.8948 39.5309 31.7938 40.3333C37.7537 40.3333 34.8615 33.1111 32.6703 29.5C32.6703 31.9074 30.9174 34.716 30.0409 31.9074Z" stroke="white"/>
<path d="M26.1564 74.4421C23.2176 82.3551 28.8504 84.3334 32.0341 84.3334C34.2383 83.9529 39.0139 82.4312 38.6465 77.4855C38.3527 73.529 34.1158 68.7355 32.0341 66.8334C30.5647 68.7355 27.9932 70.6377 26.1564 74.4421Z" fill="#CDFE00"/>
<path d="M30.0409 75.9074C26.8856 80.7222 29.8948 83.5309 31.7938 84.3333C37.7537 84.3333 34.8615 77.1111 32.6703 73.5C32.6703 75.9074 30.9174 78.716 30.0409 75.9074Z" fill="#0C1419"/>
<rect x="0.5" y="0.5" width="63" height="107" rx="4.5" stroke="#9747FF" stroke-dasharray="10 5"/>
</svg>
