<svg width="24" height="24" viewBox="0 0 24 24" fill="none" xmlns="http://www.w3.org/2000/svg">
<g clip-path="url(#clip0_9_795)">
<path d="M18.2625 23.6671L18.2615 23.668C18.1164 23.8171 17.9158 23.9 17.7065 23.9H3.62657C1.92624 23.9 0.544336 22.5181 0.544336 20.8178V4.95998C0.544336 3.25965 1.92624 1.87774 3.62657 1.87774H4.88877H4.98877V1.77774V0.888872C4.98877 0.455206 5.34398 0.1 5.77765 0.1C6.21132 0.1 6.56659 0.455217 6.56659 0.888872V1.77774V1.87774H6.66659H17.3332H17.4332V1.77774V0.888872C17.4332 0.455206 17.7884 0.1 18.2221 0.1C18.6558 0.1 19.011 0.455217 19.011 0.888857V1.77774V1.87774H19.111H20.3732C22.0735 1.87774 23.4554 3.25965 23.4554 4.95998V18.1512C23.4554 18.3596 23.373 18.5566 23.2225 18.7071L18.2625 23.6671ZM17.6776 21.7822V22.0236L17.8484 21.8529L20.9639 18.7373L21.1346 18.5666H20.8932H18.0354C17.838 18.5666 17.6776 18.727 17.6776 18.9244V21.7822ZM4.98877 3.55556V3.45556H4.88877H3.62657C2.79803 3.45556 2.12216 4.13144 2.12216 4.95998V20.8178C2.12216 21.6464 2.79803 22.3223 3.62657 22.3223H15.9998H16.0998V22.2223V18.9245C16.0998 17.8552 16.9661 16.9889 18.0353 16.9889H21.7776H21.8776V16.8889V4.95998C21.8776 4.13144 21.2017 3.45556 20.3732 3.45556H19.111H19.011V3.55556V4.44444C19.011 4.8781 18.6557 5.23331 18.2221 5.23331C17.7884 5.23331 17.4332 4.8781 17.4332 4.44444V3.55556V3.45556H17.3332H6.66652H6.56652V3.55556V4.44444C6.56652 4.8781 6.21131 5.23331 5.77765 5.23331C5.34398 5.23331 4.98877 4.8781 4.98877 4.44444V3.55556Z" fill="white" stroke="black" stroke-width="0.2"/>
<path d="M7.95001 9.11109C7.95001 9.69711 7.47495 10.1722 6.88892 10.1722C6.3029 10.1722 5.82783 9.69711 5.82783 9.11109C5.82783 8.52507 6.3029 8.05 6.88892 8.05C7.47495 8.05 7.95001 8.52507 7.95001 9.11109Z" fill="white" stroke="black" stroke-width="0.1"/>
<path d="M12.8387 9.11109C12.8387 9.69711 12.3636 10.1722 11.7776 10.1722C11.1916 10.1722 10.7165 9.69711 10.7165 9.11109C10.7165 8.52507 11.1916 8.05 11.7776 8.05C12.3636 8.05 12.8387 8.52507 12.8387 9.11109Z" fill="white" stroke="black" stroke-width="0.1"/>
<path d="M17.7276 9.11109C17.7276 9.69711 17.2525 10.1722 16.6665 10.1722C16.0805 10.1722 15.6054 9.69711 15.6054 9.11109C15.6054 8.52507 16.0805 8.05 16.6665 8.05C17.2525 8.05 17.7276 8.52507 17.7276 9.11109Z" fill="white" stroke="black" stroke-width="0.1"/>
<path d="M7.95001 13.5555C7.95001 14.1416 7.47495 14.6166 6.88892 14.6166C6.3029 14.6166 5.82783 14.1416 5.82783 13.5555C5.82783 12.9695 6.3029 12.4945 6.88892 12.4945C7.47495 12.4945 7.95001 12.9695 7.95001 13.5555Z" fill="white" stroke="black" stroke-width="0.1"/>
<path d="M12.8387 13.5555C12.8387 14.1416 12.3636 14.6166 11.7776 14.6166C11.1916 14.6166 10.7165 14.1416 10.7165 13.5555C10.7165 12.9695 11.1916 12.4945 11.7776 12.4945C12.3636 12.4945 12.8387 12.9695 12.8387 13.5555Z" fill="white" stroke="black" stroke-width="0.1"/>
<path d="M17.7276 13.5555C17.7276 14.1416 17.2525 14.6166 16.6665 14.6166C16.0805 14.6166 15.6054 14.1416 15.6054 13.5555C15.6054 12.9695 16.0805 12.4945 16.6665 12.4945C17.2525 12.4945 17.7276 12.9695 17.7276 13.5555Z" fill="white" stroke="black" stroke-width="0.1"/>
<path d="M7.95001 18C7.95001 18.586 7.47495 19.0611 6.88892 19.0611C6.3029 19.0611 5.82783 18.586 5.82783 18C5.82783 17.414 6.3029 16.9389 6.88892 16.9389C7.47495 16.9389 7.95001 17.414 7.95001 18Z" fill="white" stroke="black" stroke-width="0.1"/>
<path d="M12.8387 18C12.8387 18.586 12.3636 19.0611 11.7776 19.0611C11.1916 19.0611 10.7165 18.586 10.7165 18C10.7165 17.414 11.1916 16.9389 11.7776 16.9389C12.3636 16.9389 12.8387 17.414 12.8387 18Z" fill="white" stroke="black" stroke-width="0.1"/>
</g>
<defs>
<clipPath id="clip0_9_795">
<rect width="24" height="24" fill="white"/>
</clipPath>
</defs>
</svg>
