<svg width="24" height="24" viewBox="0 0 24 24" fill="none" xmlns="http://www.w3.org/2000/svg">
<path d="M22.9998 19C22.9998 19.5304 22.789 20.0391 22.414 20.4142C22.0389 20.7893 21.5302 21 20.9998 21H2.99976C2.46932 21 1.96062 20.7893 1.58554 20.4142C1.21047 20.0391 0.999756 19.5304 0.999756 19V8C0.999756 7.46957 1.21047 6.96086 1.58554 6.58579C1.96062 6.21071 2.46932 6 2.99976 6H6.99976L8.99976 3H14.9998L16.9998 6H20.9998C21.5302 6 22.0389 6.21071 22.414 6.58579C22.789 6.96086 22.9998 7.46957 22.9998 8V19Z" stroke="white" stroke-width="1.5" stroke-linecap="round" stroke-linejoin="round"/>
<path d="M12.0002 17C14.2094 17 16.0002 15.2091 16.0002 13C16.0002 10.7909 14.2094 9 12.0002 9C9.7911 9 8.00024 10.7909 8.00024 13C8.00024 15.2091 9.7911 17 12.0002 17Z" stroke="white" stroke-width="1.5" stroke-linecap="round" stroke-linejoin="round"/>
</svg>
