<svg width="24" height="24" viewBox="0 0 24 24" fill="none" xmlns="http://www.w3.org/2000/svg">
<path d="M21.1165 3.87017C18.7198 1.3927 14.4129 1.3798 12.001 3.84101C9.77884 1.57814 5.87113 1.36696 3.41514 3.3983C0.656531 5.49869 0.179185 9.77149 2.40781 12.4203C2.55517 12.6031 2.7144 12.7798 2.88118 12.9455L12.0002 22C12.0002 22 21.1194 12.9494 21.1194 12.9493C23.628 10.559 23.6267 6.25883 21.1165 3.87017V3.87017ZM4.77322 13.0067H9.38525L11.3536 11.0385V16.8082L15.1556 13.0067H19.2308L12.0004 20.1828L4.77322 13.0067ZM20.4992 11.7219H14.6166L12.6482 13.69V7.92036L8.8462 11.7219H3.50503C1.6322 9.61406 1.97599 6.11026 4.2242 4.40132C6.38852 2.62869 9.78009 3.00725 11.4949 5.20104C11.4949 5.20099 12.0001 5.82734 12.0001 5.82734L12.5055 5.20116C14.3999 2.82579 18.0546 2.62266 20.2014 4.77897C22.0906 6.57879 22.2222 9.77539 20.4992 11.7219Z" fill="white"/>
</svg>
