<svg width="60" height="100" viewBox="0 0 60 100" fill="none" xmlns="http://www.w3.org/2000/svg">
<g clip-path="url(#clip0_28_2763)">
<path d="M30.0001 25.5433C28.6944 25.5433 27.5877 24.957 27.3691 24.152C27.323 23.9754 27.2038 23.8268 27.0414 23.7433C26.8704 23.654 26.6698 23.6405 26.4884 23.706L23.3691 24.8143C23.1487 24.8899 22.962 25.0408 22.8417 25.2403L20.1457 29.6797C19.924 30.0405 19.9565 30.5024 20.2264 30.8287C20.7564 31.4717 22.4891 32.1 24.3334 32.3363V38.3333C24.3334 39.5623 27.3467 40 30.1667 40C33.6621 40 35.6667 39.3927 35.6667 38.3333V32.2857C37.3637 32.0107 39.2921 31.415 39.7731 30.8297C40.0434 30.5035 40.0762 30.0415 39.8547 29.6803L37.1594 25.242C37.0398 25.0425 36.8535 24.8916 36.6334 24.816L35.7467 24.5C36.2026 24.1562 36.7628 23.9796 37.3334 24C37.5175 24 37.6667 23.8508 37.6667 23.6667C37.6667 23.4826 37.5175 23.3333 37.3334 23.3333C34.7074 23.3333 34.6667 20.4553 34.6667 20.3333C34.6692 20.1493 34.522 19.998 34.3379 19.9955C34.1538 19.993 34.0026 20.1403 34.0001 20.3243V20.33V20.3333C34.0001 20.456 33.9697 23.3333 31.3334 23.3333C31.1493 23.3333 31.0001 23.4826 31.0001 23.6667C31.0001 23.8508 31.1493 24 31.3334 24C31.7676 23.9906 32.1974 24.0885 32.5847 24.285C32.2851 25.0217 31.2314 25.5433 30.0001 25.5433V25.5433ZM36.5887 25.5863L39.2857 30.0273C39.3588 30.1459 39.348 30.2979 39.2591 30.405C39.0051 30.7143 37.5451 31.297 35.6667 31.611V30C35.6667 29.8159 35.5175 29.6667 35.3334 29.6667C35.1493 29.6667 35.0001 29.8159 35.0001 30V38.3333C35.0001 38.6467 33.7831 39.3333 30.1667 39.3333C26.2721 39.3333 25.0001 38.5897 25.0001 38.3333V30C25.0001 29.8159 24.8508 29.6667 24.6667 29.6667C24.4827 29.6667 24.3334 29.8159 24.3334 30V31.6647C22.4584 31.414 21.0581 30.7897 20.7397 30.4037C20.6516 30.2962 20.6416 30.1444 20.7151 30.0263L23.4124 25.585C23.4523 25.5186 23.5148 25.4686 23.5884 25.4443L26.7251 24.324C27.0251 25.4343 28.3731 26.21 30.0001 26.21C31.4487 26.21 32.6731 25.5943 33.1291 24.6867C33.9797 25.5463 34.0001 26.917 34.0001 27C33.9976 27.1841 34.1448 27.3354 34.3289 27.3378C34.513 27.3403 34.6643 27.1931 34.6667 27.009V27.0033V27C34.6827 26.3038 34.8852 25.6246 35.2531 25.0333L36.4157 25.446C36.4882 25.4708 36.5495 25.5206 36.5887 25.5863ZM34.3334 21.9887C34.6066 22.7098 35.1336 23.3065 35.8154 23.6667C35.1336 24.0269 34.6066 24.6236 34.3334 25.3447C34.0602 24.6236 33.5332 24.0269 32.8514 23.6667C33.5332 23.3065 34.0602 22.7098 34.3334 21.9887V21.9887Z" fill="white"/>
<path d="M31.3335 32.3333C31.3335 32.238 31.3668 30 33.3335 30C33.5176 30 33.6668 29.8507 33.6668 29.6667C33.6668 29.4826 33.5176 29.3333 33.3335 29.3333C31.3668 29.3333 31.3335 27.0947 31.3335 27V26.998C31.3331 26.8789 31.2693 26.769 31.166 26.7098C31.0627 26.6506 30.9356 26.651 30.8326 26.7108C30.7297 26.7707 30.6665 26.8809 30.6668 27C30.6668 27.0953 30.6335 29.3333 28.6668 29.3333C28.4827 29.3333 28.3335 29.4826 28.3335 29.6667C28.3335 29.8507 28.4827 30 28.6668 30C30.6335 30 30.6668 32.2387 30.6668 32.3333V32.3353C30.6674 32.5194 30.8171 32.6682 31.0012 32.6677C31.1853 32.6671 31.334 32.5174 31.3335 32.3333ZM29.9915 29.6667C30.4388 29.3938 30.7911 28.9895 31.0002 28.509C31.2092 28.9895 31.5615 29.3938 32.0088 29.6667C31.5615 29.9395 31.2092 30.3438 31.0002 30.8243C30.7911 30.3438 30.4388 29.9395 29.9915 29.6667Z" fill="white"/>
<path d="M32.3335 33V33.6666C32.3335 33.8507 32.4827 34 32.6668 34C32.8509 34 33.0002 33.8507 33.0002 33.6666V33C33.0002 32.8159 32.8509 32.6666 32.6668 32.6666C32.4827 32.6666 32.3335 32.8159 32.3335 33Z" fill="white"/>
<path d="M32.6668 34.6666C32.4827 34.6666 32.3335 34.8159 32.3335 35V35.6666C32.3335 35.8507 32.4827 36 32.6668 36C32.8509 36 33.0002 35.8507 33.0002 35.6666V35C33.0002 34.8159 32.8509 34.6666 32.6668 34.6666Z" fill="white"/>
<path d="M34 34H33.3333C33.1492 34 33 34.1492 33 34.3333C33 34.5174 33.1492 34.6667 33.3333 34.6667H34C34.1841 34.6667 34.3333 34.5174 34.3333 34.3333C34.3333 34.1492 34.1841 34 34 34Z" fill="white"/>
<path d="M32 34H31.3333C31.1492 34 31 34.1492 31 34.3333C31 34.5174 31.1492 34.6667 31.3333 34.6667H32C32.1841 34.6667 32.3333 34.5174 32.3333 34.3333C32.3333 34.1492 32.1841 34 32 34Z" fill="white"/>
</g>
<g clip-path="url(#clip1_28_2763)">
<path d="M30.0001 65.5433C28.6944 65.5433 27.5877 64.957 27.3691 64.152C27.323 63.9754 27.2038 63.8268 27.0414 63.7433C26.8704 63.654 26.6698 63.6405 26.4884 63.706L23.3691 64.8143C23.1487 64.8899 22.962 65.0408 22.8417 65.2403L20.1457 69.6797C19.924 70.0405 19.9565 70.5024 20.2264 70.8287C20.7564 71.4717 22.4891 72.1 24.3334 72.3363V78.3333C24.3334 79.5623 27.3467 80 30.1667 80C33.6621 80 35.6667 79.3927 35.6667 78.3333V72.2857C37.3637 72.0107 39.2921 71.415 39.7731 70.8297C40.0434 70.5035 40.0762 70.0415 39.8547 69.6803L37.1594 65.242C37.0398 65.0425 36.8535 64.8916 36.6334 64.816L35.7467 64.5C36.2026 64.1562 36.7628 63.9796 37.3334 64C37.5175 64 37.6667 63.8508 37.6667 63.6667C37.6667 63.4826 37.5175 63.3333 37.3334 63.3333C34.7074 63.3333 34.6667 60.4553 34.6667 60.3333C34.6692 60.1493 34.522 59.998 34.3379 59.9955C34.1538 59.993 34.0026 60.1403 34.0001 60.3243V60.33V60.3333C34.0001 60.456 33.9697 63.3333 31.3334 63.3333C31.1493 63.3333 31.0001 63.4826 31.0001 63.6667C31.0001 63.8508 31.1493 64 31.3334 64C31.7676 63.9906 32.1974 64.0885 32.5847 64.285C32.2851 65.0217 31.2314 65.5433 30.0001 65.5433ZM34.3334 61.9887C34.6066 62.7098 35.1336 63.3065 35.8154 63.6667C35.1336 64.0269 34.6066 64.6236 34.3334 65.3447C34.0602 64.6236 33.5332 64.0269 32.8514 63.6667C33.5332 63.3065 34.0602 62.7098 34.3334 61.9887Z" fill="#D7FE33"/>
<path d="M31.3335 72.3333C31.3335 72.238 31.3668 70 33.3335 70C33.5176 70 33.6668 69.8507 33.6668 69.6667C33.6668 69.4826 33.5176 69.3333 33.3335 69.3333C31.3668 69.3333 31.3335 67.0947 31.3335 67V66.998C31.3331 66.8789 31.2693 66.769 31.166 66.7098C31.0627 66.6506 30.9356 66.651 30.8326 66.7108C30.7297 66.7707 30.6665 66.8809 30.6668 67C30.6668 67.0953 30.6335 69.3333 28.6668 69.3333C28.4827 69.3333 28.3335 69.4826 28.3335 69.6667C28.3335 69.8507 28.4827 70 28.6668 70C30.6335 70 30.6668 72.2387 30.6668 72.3333V72.3353C30.6674 72.5194 30.8171 72.6682 31.0012 72.6677C31.1853 72.6671 31.334 72.5174 31.3335 72.3333ZM29.9915 69.6667C30.4388 69.3938 30.7911 68.9895 31.0002 68.509C31.2092 68.9895 31.5615 69.3938 32.0088 69.6667C31.5615 69.9395 31.2092 70.3438 31.0002 70.8243C30.7911 70.3438 30.4388 69.9395 29.9915 69.6667Z" fill="#0C1419"/>
<path d="M32.3335 73V73.6666C32.3335 73.8507 32.4827 74 32.6668 74C32.8509 74 33.0002 73.8507 33.0002 73.6666V73C33.0002 72.8159 32.8509 72.6666 32.6668 72.6666C32.4827 72.6666 32.3335 72.8159 32.3335 73Z" fill="#0C1419"/>
<path d="M32.6668 74.6666C32.4827 74.6666 32.3335 74.8159 32.3335 75V75.6666C32.3335 75.8507 32.4827 76 32.6668 76C32.8509 76 33.0002 75.8507 33.0002 75.6666V75C33.0002 74.8159 32.8509 74.6666 32.6668 74.6666Z" fill="#0C1419"/>
<path d="M34 74H33.3333C33.1492 74 33 74.1492 33 74.3333C33 74.5174 33.1492 74.6667 33.3333 74.6667H34C34.1841 74.6667 34.3333 74.5174 34.3333 74.3333C34.3333 74.1492 34.1841 74 34 74Z" fill="#0C1419"/>
<path d="M32 74H31.3333C31.1492 74 31 74.1492 31 74.3333C31 74.5174 31.1492 74.6667 31.3333 74.6667H32C32.1841 74.6667 32.3333 74.5174 32.3333 74.3333C32.3333 74.1492 32.1841 74 32 74Z" fill="#0C1419"/>
</g>
<rect x="0.5" y="0.5" width="59" height="99" rx="4.5" stroke="#9747FF" stroke-dasharray="10 5"/>
<defs>
<clipPath id="clip0_28_2763">
<rect width="20" height="20" fill="white" transform="translate(20 20)"/>
</clipPath>
<clipPath id="clip1_28_2763">
<rect width="20" height="20" fill="white" transform="translate(20 60)"/>
</clipPath>
</defs>
</svg>
