<svg width="24" height="24" viewBox="0 0 24 24" fill="none" xmlns="http://www.w3.org/2000/svg">
<path d="M18.2625 23.6671L18.2615 23.668C18.1164 23.8171 17.9158 23.9 17.7065 23.9H3.62657C1.92624 23.9 0.544336 22.5181 0.544336 20.8178V4.95998C0.544336 3.25965 1.92624 1.87774 3.62657 1.87774H4.88877H4.98877V1.77774V0.888872C4.98877 0.455206 5.34398 0.1 5.77765 0.1C6.21132 0.1 6.56659 0.455217 6.56659 0.888872V1.77774V1.87774H6.66659H17.3332H17.4332V1.77774V0.888872C17.4332 0.455206 17.7884 0.1 18.2221 0.1C18.6558 0.1 19.011 0.455217 19.011 0.888857V1.77774V1.87774H19.111H20.3732C22.0735 1.87774 23.4554 3.25965 23.4554 4.95998V18.1512C23.4554 18.3596 23.373 18.5566 23.2225 18.7071L18.2625 23.6671ZM17.6776 21.7822V22.0236L17.8484 21.8529L20.9639 18.7373L21.1346 18.5666H20.8932H18.0354C17.838 18.5666 17.6776 18.727 17.6776 18.9244V21.7822ZM4.98877 3.55556V3.45556H4.88877H3.62657C2.79803 3.45556 2.12216 4.13144 2.12216 4.95998V20.8178C2.12216 21.6464 2.79803 22.3223 3.62657 22.3223H15.9998H16.0998V22.2223V18.9245C16.0998 17.8552 16.9661 16.9889 18.0353 16.9889H21.7776H21.8776V16.8889V4.95998C21.8776 4.13144 21.2017 3.45556 20.3732 3.45556H19.111H19.011V3.55556V4.44444C19.011 4.8781 18.6557 5.23331 18.2221 5.23331C17.7884 5.23331 17.4332 4.8781 17.4332 4.44444V3.55556V3.45556H17.3332H6.66652H6.56652V3.55556V4.44444C6.56652 4.8781 6.21131 5.23331 5.77765 5.23331C5.34398 5.23331 4.98877 4.8781 4.98877 4.44444V3.55556Z" fill="#CED0D1" stroke="#0C1419" stroke-width="0.2"/>
<path d="M7.94952 9.11109C7.94952 9.69711 7.47446 10.1722 6.88843 10.1722C6.30241 10.1722 5.82734 9.69711 5.82734 9.11109C5.82734 8.52507 6.30241 8.05 6.88843 8.05C7.47446 8.05 7.94952 8.52507 7.94952 9.11109Z" fill="#CED0D1" stroke="#CED0D1" stroke-width="0.1"/>
<path d="M12.8392 9.11109C12.8392 9.69711 12.3641 10.1722 11.7781 10.1722C11.1921 10.1722 10.717 9.69711 10.717 9.11109C10.717 8.52507 11.1921 8.05 11.7781 8.05C12.3641 8.05 12.8392 8.52507 12.8392 9.11109Z" fill="#CED0D1" stroke="#CED0D1" stroke-width="0.1"/>
<path d="M17.7278 9.11109C17.7278 9.69711 17.2528 10.1722 16.6668 10.1722C16.0807 10.1722 15.6057 9.69711 15.6057 9.11109C15.6057 8.52507 16.0807 8.05 16.6668 8.05C17.2528 8.05 17.7278 8.52507 17.7278 9.11109Z" fill="#CED0D1" stroke="#CED0D1" stroke-width="0.1"/>
<path d="M7.94952 13.5555C7.94952 14.1416 7.47446 14.6166 6.88843 14.6166C6.30241 14.6166 5.82734 14.1416 5.82734 13.5555C5.82734 12.9695 6.30241 12.4945 6.88843 12.4945C7.47446 12.4945 7.94952 12.9695 7.94952 13.5555Z" fill="#CED0D1" stroke="#CED0D1" stroke-width="0.1"/>
<path d="M12.8392 13.5555C12.8392 14.1416 12.3641 14.6166 11.7781 14.6166C11.1921 14.6166 10.717 14.1416 10.717 13.5555C10.717 12.9695 11.1921 12.4945 11.7781 12.4945C12.3641 12.4945 12.8392 12.9695 12.8392 13.5555Z" fill="#CED0D1" stroke="#CED0D1" stroke-width="0.1"/>
<path d="M17.7278 13.5555C17.7278 14.1416 17.2528 14.6166 16.6668 14.6166C16.0807 14.6166 15.6057 14.1416 15.6057 13.5555C15.6057 12.9695 16.0807 12.4945 16.6668 12.4945C17.2528 12.4945 17.7278 12.9695 17.7278 13.5555Z" fill="#CED0D1" stroke="#CED0D1" stroke-width="0.1"/>
<path d="M7.94952 17.9999C7.94952 18.586 7.47446 19.061 6.88843 19.061C6.30241 19.061 5.82734 18.586 5.82734 17.9999C5.82734 17.4139 6.30241 16.9389 6.88843 16.9389C7.47446 16.9389 7.94952 17.4139 7.94952 17.9999Z" fill="#CED0D1" stroke="#CED0D1" stroke-width="0.1"/>
<path d="M12.8392 17.9999C12.8392 18.586 12.3641 19.061 11.7781 19.061C11.1921 19.061 10.717 18.586 10.717 17.9999C10.717 17.4139 11.1921 16.9389 11.7781 16.9389C12.3641 16.9389 12.8392 17.4139 12.8392 17.9999Z" fill="#CED0D1" stroke="#CED0D1" stroke-width="0.1"/>
</svg>
