<svg width="22" height="22" viewBox="0 0 22 22" fill="none" xmlns="http://www.w3.org/2000/svg">
<path d="M0.453965 4.0217C1.54765 4.39098 2.41884 5.26152 2.78897 6.35473C2.86924 6.61921 3.11506 6.81166 3.40579 6.81166C3.69536 6.81166 3.94032 6.62063 4.02166 6.3577C4.39093 5.26406 5.26144 4.39291 6.35465 4.02269C6.61916 3.94243 6.81162 3.6966 6.81162 3.40588C6.81162 3.11631 6.62058 2.87134 6.35766 2.79C5.26402 2.42073 4.39287 1.55023 4.02265 0.457016C3.94238 0.192457 3.69656 0 3.40583 0C3.11627 0 2.8713 0.191039 2.79 0.453965C2.42077 1.54756 1.55023 2.41875 0.456973 2.78897C0.192457 2.86924 0 3.11506 0 3.40583C0 3.6954 0.191082 3.94036 0.453965 4.0217V4.0217Z" fill="white"/>
<path d="M21.5461 17.9783C20.4524 17.609 19.5813 16.7385 19.2111 15.6453C19.1309 15.3808 18.885 15.1884 18.5943 15.1884C18.3047 15.1884 18.0598 15.3794 17.9784 15.6423C17.6092 16.736 16.7387 17.6071 15.6454 17.9773C15.3809 18.0576 15.1885 18.3034 15.1885 18.5941C15.1885 18.8837 15.3795 19.1287 15.6424 19.21C16.7361 19.5793 17.6072 20.4498 17.9774 21.543C18.0577 21.8075 18.3035 22 18.5943 22C18.8838 22 19.1288 21.8089 19.2101 21.546C19.5793 20.4524 20.4499 19.5812 21.5431 19.211C21.8076 19.1307 22.0001 18.8849 22.0001 18.5942C22.0001 18.3046 21.809 18.0597 21.5461 17.9783V17.9783Z" fill="white"/>
<path d="M13.2751 14.5308C13.2751 14.5308 12.8414 14.3861 12.239 14.1855C10.1612 13.4929 8.50708 11.8389 7.81451 9.76116C7.61389 9.15861 7.46917 8.72492 7.46917 8.72492C7.38143 8.46182 7.13513 8.28436 6.85777 8.28436C6.58041 8.28436 6.33415 8.46187 6.24637 8.72496C6.24637 8.72496 6.10173 9.15865 5.90116 9.76098C5.20854 11.8388 3.5545 13.4929 1.47675 14.1855C0.874242 14.3861 0.440559 14.5308 0.440559 14.5308C0.177461 14.6186 0 14.8649 0 15.1422C0 15.4196 0.177504 15.6658 0.440602 15.7536C0.440602 15.7536 0.874285 15.8983 1.47658 16.0988C3.55446 16.7914 5.20854 18.4455 5.90111 20.5232C6.10173 21.1257 6.24637 21.5594 6.24637 21.5594C6.33415 21.8225 6.58036 22 6.85777 22H6.85781C7.13518 22 7.38147 21.8225 7.46921 21.5594C7.46921 21.5594 7.61393 21.1257 7.81451 20.5234C8.50713 18.4455 10.1612 16.7914 12.2389 16.0989C12.8414 15.8983 13.2751 15.7536 13.2751 15.7536C13.5382 15.6658 13.7157 15.4196 13.7157 15.1422C13.7157 14.8648 13.5382 14.6186 13.2751 14.5308V14.5308Z" fill="white"/>
<path d="M16.5228 10.9538C16.8126 10.9538 17.0577 10.7625 17.1389 10.4993C17.8323 8.43339 19.4767 6.78837 21.5422 6.094C21.807 6.01395 21.9997 5.76795 21.9997 5.47697C21.9997 5.18719 21.8084 4.94209 21.5452 4.86093C19.4793 4.1675 17.8343 2.52312 17.1399 0.457617C17.0598 0.192758 16.8139 0 16.5228 0C16.233 0 15.9879 0.19134 15.9068 0.454523C15.2134 2.52042 13.569 4.16548 11.5035 4.85985C11.2387 4.9399 11.0459 5.1859 11.0459 5.47688C11.0459 5.76666 11.2372 6.01176 11.5004 6.09293C13.5662 6.78631 15.2112 8.43055 15.9056 10.4958C15.9856 10.7609 16.2317 10.9538 16.5228 10.9538V10.9538Z" fill="white"/>
</svg>
