<svg width="76" height="30" viewBox="0 0 76 30" fill="none" xmlns="http://www.w3.org/2000/svg">
<rect width="76" height="30" rx="15" fill="#0C1419"/>
<path d="M18.6469 11.764V14.212H21.5269V15.328H18.6469V17.884H21.8869V19H17.2789V10.648H21.8869V11.764H18.6469ZM26.4039 15.652L28.5399 19H26.9919L25.5639 16.756L24.2199 19H22.7919L24.9279 15.748L22.7919 12.388H24.3399L25.7679 14.632L27.1119 12.388H28.5399L26.4039 15.652ZM30.9282 13.36C31.1602 13.056 31.4762 12.8 31.8762 12.592C32.2762 12.384 32.7282 12.28 33.2322 12.28C33.8082 12.28 34.3322 12.424 34.8042 12.712C35.2842 12.992 35.6602 13.388 35.9322 13.9C36.2042 14.412 36.3402 15 36.3402 15.664C36.3402 16.328 36.2042 16.924 35.9322 17.452C35.6602 17.972 35.2842 18.38 34.8042 18.676C34.3322 18.964 33.8082 19.108 33.2322 19.108C32.7282 19.108 32.2802 19.008 31.8882 18.808C31.4962 18.6 31.1762 18.344 30.9282 18.04V22.144H29.5602V12.388H30.9282V13.36ZM34.9482 15.664C34.9482 15.208 34.8522 14.816 34.6602 14.488C34.4762 14.152 34.2282 13.9 33.9162 13.732C33.6122 13.556 33.2842 13.468 32.9322 13.468C32.5882 13.468 32.2602 13.556 31.9482 13.732C31.6442 13.908 31.3962 14.164 31.2042 14.5C31.0202 14.836 30.9282 15.232 30.9282 15.688C30.9282 16.144 31.0202 16.544 31.2042 16.888C31.3962 17.224 31.6442 17.48 31.9482 17.656C32.2602 17.832 32.5882 17.92 32.9322 17.92C33.2842 17.92 33.6122 17.832 33.9162 17.656C34.2282 17.472 34.4762 17.208 34.6602 16.864C34.8522 16.52 34.9482 16.12 34.9482 15.664ZM39.061 10.12V19H37.693V10.12H39.061ZM43.725 19.108C43.101 19.108 42.537 18.968 42.033 18.688C41.529 18.4 41.133 18 40.845 17.488C40.557 16.968 40.413 16.368 40.413 15.688C40.413 15.016 40.561 14.42 40.857 13.9C41.153 13.38 41.557 12.98 42.069 12.7C42.581 12.42 43.153 12.28 43.785 12.28C44.417 12.28 44.989 12.42 45.501 12.7C46.013 12.98 46.417 13.38 46.713 13.9C47.009 14.42 47.157 15.016 47.157 15.688C47.157 16.36 47.005 16.956 46.701 17.476C46.397 17.996 45.981 18.4 45.453 18.688C44.933 18.968 44.357 19.108 43.725 19.108ZM43.725 17.92C44.077 17.92 44.405 17.836 44.709 17.668C45.021 17.5 45.273 17.248 45.465 16.912C45.657 16.576 45.753 16.168 45.753 15.688C45.753 15.208 45.661 14.804 45.477 14.476C45.293 14.14 45.049 13.888 44.745 13.72C44.441 13.552 44.113 13.468 43.761 13.468C43.409 13.468 43.081 13.552 42.777 13.72C42.481 13.888 42.245 14.14 42.069 14.476C41.893 14.804 41.805 15.208 41.805 15.688C41.805 16.4 41.985 16.952 42.345 17.344C42.713 17.728 43.173 17.92 43.725 17.92ZM49.8774 13.348C50.0774 13.012 50.3414 12.752 50.6694 12.568C51.0054 12.376 51.4014 12.28 51.8574 12.28V13.696H51.5094C50.9734 13.696 50.5654 13.832 50.2854 14.104C50.0134 14.376 49.8774 14.848 49.8774 15.52V19H48.5094V12.388H49.8774V13.348ZM59.1748 15.532C59.1748 15.78 59.1588 16.004 59.1268 16.204H54.0748C54.1148 16.732 54.3108 17.156 54.6628 17.476C55.0148 17.796 55.4468 17.956 55.9588 17.956C56.6948 17.956 57.2148 17.648 57.5188 17.032H58.9948C58.7948 17.64 58.4308 18.14 57.9028 18.532C57.3828 18.916 56.7348 19.108 55.9588 19.108C55.3268 19.108 54.7588 18.968 54.2548 18.688C53.7588 18.4 53.3668 18 53.0788 17.488C52.7988 16.968 52.6588 16.368 52.6588 15.688C52.6588 15.008 52.7948 14.412 53.0668 13.9C53.3468 13.38 53.7348 12.98 54.2308 12.7C54.7348 12.42 55.3108 12.28 55.9588 12.28C56.5828 12.28 57.1388 12.416 57.6268 12.688C58.1148 12.96 58.4948 13.344 58.7668 13.84C59.0388 14.328 59.1748 14.892 59.1748 15.532ZM57.7468 15.1C57.7388 14.596 57.5588 14.192 57.2068 13.888C56.8548 13.584 56.4188 13.432 55.8988 13.432C55.4268 13.432 55.0228 13.584 54.6868 13.888C54.3508 14.184 54.1508 14.588 54.0868 15.1H57.7468Z" fill="#CDFE00"/>
</svg>
