<svg width="60" height="100" viewBox="0 0 60 100" fill="none" xmlns="http://www.w3.org/2000/svg">
<path d="M32.9895 24.9691V23.9381C32.9895 23.7559 33.1372 23.6082 33.3194 23.6082H34.8367C34.887 23.6082 34.9277 23.5675 34.9277 23.5172V23.5172C34.9277 21.8025 33.5376 20.4124 31.8228 20.4124H26.5745C26.4393 20.4124 26.3298 20.5219 26.3298 20.6571V21.0103M32.9895 24.9691H33.3401C33.5223 24.9691 33.67 25.1168 33.67 25.299V27.0928M32.9895 24.9691H29.67M29.0102 27.0928V25.299C29.0102 25.1168 29.1579 24.9691 29.3401 24.9691H29.67M29.0102 27.0928H33.67M29.0102 27.0928L27.237 28.866M29.67 24.9691V23.9381C29.67 23.7559 29.5223 23.6082 29.3401 23.6082H27.67M26.3298 23.6082V23.0103M26.3298 23.6082L25.3311 25.7579C25.2295 25.9766 25.3892 26.2268 25.6303 26.2268H26.128C26.2518 26.2268 26.3653 26.1574 26.4217 26.0472L27.67 23.6082M26.3298 23.6082H27.67M26.3298 21.0103H25.4432C25.261 21.0103 25.1133 21.158 25.1133 21.3402V22.6804C25.1133 22.8626 25.261 23.0103 25.4432 23.0103H26.3298M26.3298 21.0103V23.0103M33.67 27.0928V28.866M27.237 28.866L25.1686 30.9343C25.1068 30.9962 25.072 31.0801 25.072 31.1676V39.2577C25.072 39.4399 25.2197 39.5876 25.4019 39.5876H33.3401C33.5223 39.5876 33.67 39.4399 33.67 39.2577V28.866M27.237 28.866H33.67" stroke="white" stroke-width="0.8"/>
<path d="M26.5745 60.4124H31.8228C33.5376 60.4124 34.9277 61.8025 34.9277 63.5172C34.9277 63.5675 34.887 63.6082 34.8367 63.6082H33.3194C33.1372 63.6082 32.9895 63.7559 32.9895 63.9381V64.9691H33.3401C33.5223 64.9691 33.67 65.1168 33.67 65.299V67.0928V68.866V79.2577C33.67 79.4399 33.5223 79.5876 33.3401 79.5876H25.4019C25.2197 79.5876 25.072 79.4399 25.072 79.2577V71.1676C25.072 71.0801 25.1068 70.9962 25.1686 70.9343L27.237 68.866L29.0102 67.0928V65.299C29.0102 65.1168 29.1579 64.9691 29.3401 64.9691H29.67V63.9381C29.67 63.7559 29.5223 63.6082 29.3401 63.6082H27.67L26.4217 66.0472C26.3653 66.1574 26.2518 66.2268 26.128 66.2268H25.6303C25.3892 66.2268 25.2295 65.9766 25.3311 65.7579L26.3298 63.6082V63.0103H25.4432C25.261 63.0103 25.1133 62.8626 25.1133 62.6804V61.3402C25.1133 61.158 25.261 61.0103 25.4432 61.0103H26.3298V60.6571C26.3298 60.5219 26.4393 60.4124 26.5745 60.4124Z" fill="#CDFE00"/>
<rect x="0.5" y="0.5" width="59" height="99" rx="4.5" stroke="#9747FF" stroke-dasharray="10 5"/>
</svg>
