<svg width="22" height="28" viewBox="0 0 22 28" fill="none" xmlns="http://www.w3.org/2000/svg">
<path d="M5.28046 0.800781C5.03672 0.800781 4.8548 0.997421 4.8405 1.24074V7.91824C5.28285 8.07787 5.62591 8.46769 5.70322 8.95024C5.7063 8.96703 5.88187 9.95182 6.60031 10.9885V1.24074C6.60031 0.997006 6.4041 0.800781 6.16036 0.800781H5.28046ZM15.8393 0.800781C15.5956 0.800781 15.4137 0.997421 15.3994 1.24074V10.9842C16.1222 9.93912 16.299 8.94161 16.299 8.94161C16.379 8.46357 16.72 8.07715 17.1592 7.91824V1.24074C17.1592 0.997006 16.963 0.800781 16.7192 0.800781H15.8393ZM7.92017 2.56062C7.67644 2.56062 7.48022 2.75681 7.48022 3.00053V11.9792C7.9307 12.3706 8.49221 12.7027 9.24003 12.9046V3.00053C9.24003 2.75681 9.04381 2.56062 8.80008 2.56062H7.92017ZM13.1996 2.56062C12.9559 2.56062 12.7597 2.75681 12.7597 3.00053V12.9046C13.5077 12.7024 14.0691 12.3694 14.5195 11.9775V3.00053C14.5195 2.75681 14.3233 2.56062 14.0795 2.56062H13.1996ZM2.64074 4.32041C2.397 4.32041 2.20078 4.51663 2.20078 4.76037V7.83917H3.9606V4.76037C3.9606 4.51663 3.76438 4.32041 3.52064 4.32041H2.64074ZM10.5599 4.32041C10.3162 4.32041 10.1199 4.51663 10.1199 4.76037V13.0713C10.3929 13.1023 10.6852 13.1194 10.999 13.1194C11.3138 13.1194 11.6061 13.1024 11.8798 13.0713V4.76037C11.8798 4.51663 11.6835 4.32041 11.4398 4.32041H10.5599ZM18.479 4.32041C18.2353 4.32041 18.0391 4.51663 18.0391 4.76037V7.83917H19.7989V4.76037C19.7989 4.51663 19.6027 4.32041 19.359 4.32041H18.479ZM0.440972 8.71909C0.176085 8.72003 -0.0279431 8.95304 0.00617535 9.21574L2.20508 25.9314C2.2829 26.5862 2.79413 27.198 3.51979 27.198H18.479C19.2029 27.198 19.7137 26.5876 19.7938 25.9348L21.9961 9.21574C22.0304 8.95168 21.8241 8.71795 21.5579 8.71909H17.5991C17.3839 8.72019 17.201 8.87687 17.1669 9.08943C17.1669 9.08943 16.9588 10.3109 16.0851 11.5444C15.2113 12.7779 13.7242 13.9994 10.9998 13.9994C8.27552 13.9994 6.78751 12.7779 5.91375 11.5444C5.04 10.3109 4.83535 9.08943 4.83535 9.08943C4.80112 8.87589 4.6168 8.71893 4.40055 8.71909H0.440972ZM10.9998 17.0799C12.9385 17.0799 14.5195 18.6583 14.5195 20.5969C14.5195 22.5356 12.9385 24.1174 10.9998 24.1174C9.0612 24.1174 7.4785 22.5356 7.4785 20.5969C7.4785 18.6583 9.0612 17.0799 10.9998 17.0799Z" fill="white"/>
</svg>
