<svg width="49" height="48" viewBox="0 0 49 48" fill="none" xmlns="http://www.w3.org/2000/svg">
<path d="M33.956 22.154C34.079 22.813 34.146 23.502 34.146 24.221C34.146 29.845 30.382 33.844 24.697 33.844C23.4042 33.8444 22.1239 33.59 20.9294 33.0955C19.7349 32.6009 18.6496 31.8758 17.7354 30.9616C16.8212 30.0475 16.0961 28.9621 15.6016 27.7676C15.107 26.5731 14.8526 25.2929 14.853 24C14.8526 22.7072 15.107 21.4269 15.6016 20.2324C16.0961 19.0379 16.8212 17.9525 17.7354 17.0384C18.6496 16.1242 19.7349 15.3991 20.9294 14.9045C22.1239 14.41 23.4042 14.1556 24.697 14.156C27.355 14.156 29.576 15.134 31.28 16.722L28.505 19.497V19.49C27.472 18.506 26.161 18.001 24.697 18.001C21.449 18.001 18.809 20.745 18.809 23.994C18.809 27.242 21.449 29.992 24.697 29.992C27.644 29.992 29.65 28.307 30.062 25.993H24.697V22.154H33.957H33.956Z" fill="#CDFE00"/>
<rect x="1" y="0.5" width="47" height="47" rx="7.5" stroke="#CDFE00"/>
</svg>
