<svg width="24" height="24" viewBox="0 0 24 24" fill="none" xmlns="http://www.w3.org/2000/svg">
<path d="M22 8.3254C22 7.83091 21.8074 7.36595 21.4577 7.01638L20.5297 6.08845L21.0024 5.61575C21.0051 5.61317 21.0077 5.61055 21.0103 5.60794C21.7322 4.88618 21.7322 3.71164 21.0103 2.98965C20.6607 2.63996 20.1957 2.44738 19.7012 2.44738C19.2067 2.44738 18.7417 2.63996 18.392 2.98957C18.389 2.99254 18.386 2.99555 18.3831 2.9986L17.9114 3.4702L16.9835 2.54223C16.6338 2.19258 16.1689 2 15.6743 2C15.1798 2 14.7148 2.19262 14.3651 2.54231C14.1817 2.72582 14.0451 2.93863 13.9549 3.16582C13.6672 2.98938 13.3358 2.89481 12.9897 2.89481C12.4952 2.89481 12.0302 3.08738 11.6803 3.43719C10.9587 4.15899 10.9587 5.33348 11.6804 6.0554L13.5032 7.87806L7.87734 13.5037L6.05449 11.681C5.70486 11.3314 5.23992 11.1388 4.74545 11.1388C4.2509 11.1388 3.78591 11.3314 3.43602 11.6812C2.82037 12.2969 2.73028 13.2417 3.16495 13.9542C2.9342 14.0462 2.72224 14.1846 2.54129 14.3656C1.81958 15.0874 1.81954 16.2618 2.54133 16.9837L3.46922 17.9116L2.98873 18.3921C2.63903 18.7418 2.44641 19.2067 2.44641 19.7012C2.44641 20.1957 2.63903 20.6607 2.98869 21.0102C3.33836 21.36 3.80334 21.5526 4.29793 21.5526C4.78803 21.5526 5.24902 21.3634 5.59759 21.0197C5.60083 21.0166 5.60404 21.0135 5.6072 21.0103L6.08761 20.5299L7.01558 21.4578C7.36517 21.8074 7.83011 22 8.3247 22H8.32478C8.81937 22 9.28439 21.8074 9.63417 21.4576C9.81757 21.2742 9.95414 21.0614 10.0443 20.8343C10.332 21.0107 10.6633 21.1052 11.0092 21.1052H11.0093C11.5038 21.1052 11.9688 20.9127 12.3186 20.5629C12.6683 20.2132 12.8608 19.7483 12.8608 19.2538C12.8608 18.7592 12.6682 18.2943 12.3186 17.9447L10.4957 16.1219L16.1218 10.4963L17.9446 12.3189C18.2943 12.6685 18.7592 12.8611 19.2538 12.8611H19.2539C19.7483 12.8611 20.2132 12.6685 20.5629 12.3189C20.9127 11.9693 21.1053 11.5043 21.1054 11.0097C21.1054 10.664 21.0109 10.333 20.8348 10.0454C21.0652 9.95353 21.277 9.81521 21.4578 9.63447C21.8075 9.28482 22 8.8199 22 8.3254V8.3254ZM4.78643 20.1737C4.78373 20.1763 4.781 20.179 4.7783 20.1817C4.65001 20.31 4.47942 20.3807 4.29793 20.3807C4.11644 20.3807 3.94577 20.31 3.81736 20.1816C3.68904 20.0533 3.61833 19.8827 3.61833 19.7012C3.61833 19.5197 3.68904 19.3491 3.8174 19.2207L4.29781 18.7403L5.25891 19.7012L4.78643 20.1737ZM18.7401 4.29887L19.2202 3.81883C19.2225 3.81657 19.2247 3.81434 19.2269 3.81207C19.3546 3.68766 19.5227 3.61926 19.7012 3.61926C19.8827 3.61926 20.0534 3.68996 20.1816 3.81821C20.4447 4.08141 20.4467 4.5084 20.1872 4.77376C20.1852 4.77571 20.1832 4.7777 20.1812 4.77969L19.7011 5.25977L19.2207 4.7793L18.7401 4.29887ZM15.1939 3.37086C15.3222 3.24254 15.4928 3.17188 15.6743 3.17188C15.8559 3.17188 16.0265 3.24254 16.1548 3.3709L18.392 5.60798L19.2868 6.50278C19.2868 6.50286 19.2869 6.50294 19.287 6.50302L20.6291 7.84505C20.7574 7.97337 20.8281 8.14396 20.8281 8.3254C20.8281 8.50689 20.7574 8.67759 20.6291 8.80587C20.5007 8.93423 20.33 9.00494 20.1485 9.00494C19.9673 9.00494 19.797 8.93443 19.6687 8.80654L15.1929 4.33098C14.929 4.06598 14.9292 3.63555 15.1939 3.37086V3.37086ZM8.80542 20.629C8.67702 20.7574 8.50631 20.8281 8.3247 20.8281C8.14317 20.8281 7.9725 20.7574 7.84421 20.6292L6.5022 19.2872C6.50208 19.2871 6.50201 19.287 6.50193 19.2869L6.21719 19.0022L3.37008 16.1552C3.10518 15.8902 3.10514 15.4592 3.37008 15.1942C3.49844 15.0658 3.66907 14.9951 3.85061 14.9951C4.03186 14.9951 4.20222 15.0656 4.33055 15.1937L8.80784 19.6709C9.07008 19.936 9.06938 20.365 8.80542 20.629V20.629ZM11.6888 19.2538C11.6888 19.4353 11.6182 19.606 11.4899 19.7343C11.3615 19.8627 11.1908 19.9334 11.0092 19.9334C11.0092 19.9334 11.0092 19.9334 11.0092 19.9334C10.8277 19.9334 10.6569 19.8627 10.5286 19.7343L9.63905 18.8448C9.63733 18.8431 9.63577 18.8412 9.63405 18.8395L5.15968 14.3655L5.15957 14.3654L4.2648 13.4707C3.99987 13.2058 3.99987 12.7747 4.26472 12.5098C4.39317 12.3814 4.56392 12.3107 4.74549 12.3107C4.92694 12.3107 5.09753 12.3813 5.22582 12.5096L7.46263 14.7463C7.46275 14.7464 7.46287 14.7466 7.46302 14.7467L9.14083 16.4244L11.4899 18.7734C11.6182 18.9017 11.6888 19.0723 11.6888 19.2538ZM9.66698 15.2933L9.18645 14.8129L8.706 14.3324L14.3319 8.70665L15.2931 9.66767L9.66698 15.2933ZM19.7342 11.4902C19.6058 11.6186 19.4352 11.6893 19.2538 11.6893H19.2538C19.0722 11.6893 18.9015 11.6186 18.7731 11.4903L16.5375 9.25482C16.537 9.25431 16.5366 9.25376 16.5361 9.25326L14.7463 7.46364C14.746 7.46337 14.7457 7.46314 14.7455 7.46286L12.5092 5.2268C12.2443 4.9618 12.2443 4.53063 12.5091 4.26571C12.6375 4.13731 12.8082 4.06661 12.9898 4.06661C13.1713 4.06661 13.342 4.13731 13.4703 4.26567L14.3626 5.15786C14.3634 5.15872 14.3642 5.15965 14.3651 5.16047L18.8395 9.63455C18.8399 9.63498 18.8403 9.63537 18.8407 9.63572L19.7343 10.5292C19.8626 10.6576 19.9334 10.8282 19.9334 11.0097C19.9334 11.1913 19.8626 11.3619 19.7342 11.4902V11.4902Z" fill="white"/>
</svg>
