<svg width="60" height="100" viewBox="0 0 60 100" fill="none" xmlns="http://www.w3.org/2000/svg">
<path d="M22.5 27.5L30 21.6666L37.5 27.5V36.6666C37.5 37.1087 37.3244 37.5326 37.0118 37.8451C36.6993 38.1577 36.2754 38.3333 35.8333 38.3333H24.1667C23.7246 38.3333 23.3007 38.1577 22.9882 37.8451C22.6756 37.5326 22.5 37.1087 22.5 36.6666V27.5Z" stroke="white" stroke-width="1.11111" stroke-linecap="round" stroke-linejoin="round"/>
<path d="M27.5 38.3333V30H32.5V38.3333" stroke="white" stroke-width="1.11111" stroke-linecap="round" stroke-linejoin="round"/>
<path d="M22.5 67.5L30 61.6666L37.5 67.5V76.6666C37.5 77.1087 37.3244 77.5326 37.0118 77.8451C36.6993 78.1577 36.2754 78.3333 35.8333 78.3333H24.1667C23.7246 78.3333 23.3007 78.1577 22.9882 77.8451C22.6756 77.5326 22.5 77.1087 22.5 76.6666V67.5Z" fill="#CDFE00"/>
<path d="M27.5 78.3333V70H32.5V78.3333" fill="#0C1419"/>
<rect x="0.5" y="0.5" width="59" height="99" rx="4.5" stroke="#9747FF" stroke-dasharray="10 5"/>
</svg>
