<svg width="24" height="24" viewBox="0 0 24 24" fill="none" xmlns="http://www.w3.org/2000/svg">
<g clip-path="url(#clip0_9_727)">
<path d="M13.3749 23H10.6249C9.98325 23 9.24992 22.45 9.24992 21.35V19.425C9.24992 18.5084 8.79159 17.6834 8.05825 17.0417C6.40825 15.7584 5.58325 13.925 5.58325 11.9084C5.67492 8.42504 8.51658 5.67504 11.9083 5.58337C13.6499 5.58337 15.2999 6.22504 16.4916 7.41671C17.6833 8.60837 18.4166 10.2584 18.4166 12C18.4166 13.925 17.5916 15.7584 16.0333 16.95C15.2083 17.5917 14.7499 18.6 14.7499 19.5167V21.625C14.7499 22.3584 14.1083 23 13.3749 23V23ZM11.9999 6.50004C9.06659 6.50004 6.59159 8.97504 6.49992 11.9084C6.49992 13.65 7.23325 15.3 8.60825 16.3084C9.61659 17.1334 10.1666 18.2334 10.1666 19.425V21.35C10.1666 21.5334 10.1666 22.0834 10.6249 22.0834H13.3749C13.6499 22.0834 13.8333 21.9 13.8333 21.625V19.5167C13.8333 18.325 14.4749 17.0417 15.4833 16.2167C16.7666 15.2084 17.4999 13.65 17.4999 12C17.4999 10.5334 16.9499 9.15837 15.8499 8.05837C14.8416 7.05004 13.4666 6.50004 11.9999 6.50004V6.50004Z" fill="white" stroke="white" stroke-width="0.5"/>
<path d="M14.2917 20.25H9.70833C9.43333 20.25 9.25 20.0667 9.25 19.7917C9.25 19.5167 9.43333 19.3334 9.70833 19.3334H14.2917C14.5667 19.3334 14.75 19.5167 14.75 19.7917C14.75 20.0667 14.5667 20.25 14.2917 20.25Z" fill="white" stroke="white" stroke-width="0.5"/>
<path d="M12.0001 3.75C11.7251 3.75 11.5417 3.56667 11.5417 3.29167V1.45833C11.5417 1.18333 11.7251 1 12.0001 1C12.2751 1 12.4584 1.18333 12.4584 1.45833V3.29167C12.4584 3.56667 12.2751 3.75 12.0001 3.75Z" fill="white" stroke="white" stroke-width="0.5"/>
<path d="M18.1416 6.31664C18.05 6.31664 17.8666 6.31664 17.775 6.22498C17.5916 6.04164 17.5916 5.76664 17.775 5.58331L19.0583 4.29998C19.2416 4.11664 19.5166 4.11664 19.7 4.29998C19.8833 4.48331 19.8833 4.75831 19.7 4.94164L18.4166 6.22498C18.4166 6.22498 18.2333 6.31664 18.1416 6.31664V6.31664Z" fill="white" stroke="white" stroke-width="0.5"/>
<path d="M22.5417 12.4583H20.7083C20.4333 12.4583 20.25 12.275 20.25 12C20.25 11.725 20.4333 11.5416 20.7083 11.5416H22.5417C22.8167 11.5416 23 11.725 23 12C23 12.275 22.8167 12.4583 22.5417 12.4583Z" fill="white" stroke="white" stroke-width="0.5"/>
<path d="M19.425 19.8833C19.3333 19.8833 19.15 19.8833 19.0583 19.7916L17.775 18.5083C17.5916 18.325 17.5916 18.05 17.775 17.8666C17.9583 17.6833 18.2333 17.6833 18.4166 17.8666L19.7 19.15C19.8833 19.3333 19.8833 19.6083 19.7 19.7916C19.7 19.8833 19.6083 19.8833 19.425 19.8833Z" fill="white" stroke="white" stroke-width="0.5"/>
<path d="M4.57497 19.8833C4.4833 19.8833 4.29997 19.8833 4.2083 19.7916C4.02497 19.6083 4.02497 19.3333 4.2083 19.15L5.49163 17.8666C5.67497 17.6833 5.94997 17.6833 6.1333 17.8666C6.31663 18.05 6.31663 18.325 6.1333 18.5083L4.84997 19.7916C4.7583 19.8833 4.66663 19.8833 4.57497 19.8833V19.8833Z" fill="white" stroke="white" stroke-width="0.5"/>
<path d="M3.29167 12.4583H1.45833C1.18333 12.4583 1 12.275 1 12C1 11.725 1.18333 11.5416 1.45833 11.5416H3.29167C3.56667 11.5416 3.75 11.725 3.75 12C3.75 12.275 3.56667 12.4583 3.29167 12.4583Z" fill="white" stroke="white" stroke-width="0.5"/>
<path d="M5.8583 6.31676C5.76663 6.31676 5.5833 6.31676 5.49163 6.22509L4.2083 4.85009C4.02497 4.66676 4.02497 4.39176 4.2083 4.20842C4.39163 4.02509 4.66663 4.02509 4.84997 4.20842L6.1333 5.49176C6.31663 5.67509 6.31663 5.95009 6.1333 6.13342C6.04163 6.22509 5.94997 6.31676 5.8583 6.31676V6.31676Z" fill="white" stroke="white" stroke-width="0.5"/>
<path d="M15.6667 12.4583C15.3917 12.4583 15.2084 12.275 15.2084 12C15.2084 10.2583 13.7417 8.79167 12.0001 8.79167C11.7251 8.79167 11.5417 8.60833 11.5417 8.33333C11.5417 8.05833 11.7251 7.875 12.0001 7.875C14.2917 7.875 16.1251 9.70833 16.1251 12C16.1251 12.275 15.9417 12.4583 15.6667 12.4583Z" fill="white" stroke="white" stroke-width="0.5"/>
</g>
<defs>
<clipPath id="clip0_9_727">
<rect width="24" height="24" fill="white"/>
</clipPath>
</defs>
</svg>
