<svg width="24" height="24" viewBox="0 0 24 24" fill="none" xmlns="http://www.w3.org/2000/svg">
<path d="M17.6571 10.5859L19.7784 12.7072C20.2427 13.1715 20.611 13.7227 20.8622 14.3293C21.1135 14.936 21.2428 15.5861 21.2428 16.2428C21.2428 16.8994 21.1135 17.5495 20.8622 18.1562C20.611 18.7628 20.2427 19.314 19.7784 19.7783C19.3141 20.2426 18.7629 20.6109 18.1563 20.8621C17.5496 21.1134 16.8995 21.2428 16.2428 21.2428C15.5862 21.2428 14.9361 21.1134 14.3294 20.8621C13.7228 20.6109 13.1716 20.2426 12.7073 19.7783L10.586 17.657M6.34335 13.4143L4.22203 11.293C3.75774 10.8287 3.38944 10.2775 3.13817 9.67089C2.8869 9.06426 2.75757 8.41408 2.75757 7.75747C2.75757 6.43139 3.28435 5.15962 4.22203 4.22193C5.15972 3.28425 6.43149 2.75747 7.75757 2.75747C9.08365 2.75747 10.3554 3.28425 11.2931 4.22194L13.4144 6.34326" stroke="white" stroke-width="1.54155" stroke-linecap="round" stroke-linejoin="round"/>
<path d="M9.17163 9.17188L14.8285 14.8287" stroke="white" stroke-width="1.54155" stroke-linecap="round" stroke-linejoin="round"/>
</svg>
