<svg width="239" height="191" viewBox="0 0 239 191" fill="none" xmlns="http://www.w3.org/2000/svg">
<g clip-path="url(#clip0_23_1000)">
<path d="M85.1603 66.4313C85.4237 66.7144 85.587 66.9005 85.7609 67.0762C93.0489 74.4528 100.332 81.8346 107.633 89.1955C108.131 89.6962 108.363 90.1733 108.36 90.8968C108.294 106.135 108.257 121.373 108.215 136.614C108.215 137.036 108.215 137.458 108.215 137.953C106.885 137.953 105.65 137.953 104.309 137.953C104.293 137.592 104.262 137.246 104.264 136.897C104.301 122.021 104.335 107.142 104.396 92.2652C104.399 91.5495 104.19 91.0514 103.687 90.5455C96.4019 83.2135 89.1375 75.8605 81.8653 68.5153C75.9152 62.5045 69.9626 56.4936 64.0151 50.4801C63.8202 50.2835 63.6543 50.0607 63.3303 49.6806C63.923 49.6806 64.3049 49.6806 64.6868 49.6806C88.3131 49.6806 111.939 49.6754 135.566 49.7016C136.493 49.7016 136.917 49.4211 137.299 48.5718C139.461 43.772 141.705 39.0089 143.886 34.3088C142.066 33.6796 140.233 33.192 138.529 32.4266C134.952 30.8223 134.133 29.0896 135.755 25.5428C137.046 22.7222 138.226 19.7889 140.389 17.3955C141.31 16.3758 141.885 15.0179 142.49 13.7544C143.22 12.2314 143.396 12.0977 145.048 12.5958C146.652 13.0781 148.248 13.5735 149.86 14.0323C150.234 14.1398 150.642 14.1319 151.037 14.1476C152.531 14.2105 153.542 13.7832 154.185 12.1921C155.52 8.89435 157.122 5.69887 158.647 2.47718C158.847 2.05513 159.179 1.64095 159.556 1.36046C163.707 -1.73803 169.617 0.749677 170.234 5.88499C170.318 6.58752 170.126 7.40802 169.817 8.06074C167.421 13.1515 164.981 18.2239 162.506 23.2779C162.195 23.9149 162.258 24.337 162.635 24.8691C164.199 27.0816 166.135 28.8667 168.55 30.1276C169.512 30.6283 170.492 31.1054 171.4 31.6874C173.344 32.9325 174.042 34.5604 173.563 36.5186C173.007 38.7913 171.743 39.832 169.385 40.1859C165.69 40.7364 162.192 39.8347 158.692 38.8962C157.775 38.6498 156.88 38.3326 155.879 38.0154C154.153 41.8479 152.428 45.6777 150.645 49.6334C158.01 49.6334 165.24 49.6334 172.665 49.6334C154.193 68.6464 135.861 87.5126 117.489 106.421C125.86 116.361 134.138 126.189 142.472 136.082C141.387 136.821 140.36 137.521 139.24 138.286C130.301 127.604 121.382 116.948 112.4 106.214C125.307 92.9729 138.179 79.769 151.172 66.4392C129.081 66.4313 107.198 66.4313 85.1603 66.4313ZM72.154 53.3768C72.5122 53.7674 72.7203 54.0085 72.9468 54.2366C75.3358 56.643 77.7669 59.0075 80.0926 61.4716C80.9592 62.3891 81.8547 62.6932 83.0979 62.6906C102.895 62.6539 122.694 62.6644 142.49 62.6644C146.317 62.6644 150.145 62.6853 153.972 62.6382C154.459 62.6329 155.065 62.3813 155.41 62.0379C157.994 59.4558 160.525 56.8213 163.072 54.1999C163.291 53.9771 163.496 53.7438 163.854 53.3584C157.441 53.3584 151.238 53.3584 144.906 53.3584C147.332 47.9662 149.697 42.6998 152.175 37.1923C150.524 36.6366 148.951 36.107 147.376 35.5749C144.706 41.3498 142.135 46.86 139.617 52.3964C139.264 53.1723 138.848 53.3977 138.007 53.3977C116.528 53.3715 95.0481 53.3768 73.5658 53.3768C73.1733 53.3768 72.7782 53.3768 72.154 53.3768ZM171.374 34.4189C170.681 33.428 170.099 33.0138 167.687 31.9285C167.368 31.7844 166.846 31.8053 166.538 31.9705C163.375 33.6639 161.702 33.5486 159.079 31.0477C156.974 29.0424 154.596 27.8759 151.685 27.5036C148.554 27.1052 145.727 25.9491 143.707 23.2989C143.146 22.5623 142.351 21.9463 141.547 21.4639C140.386 20.7666 140.207 20.8898 139.717 22.114C139.606 22.3867 139.506 22.6645 139.39 22.9345C138.745 24.4313 138.99 24.8691 140.531 25.514C142.888 26.497 145.238 27.5089 147.534 28.623C149.289 29.4723 151.04 30.2535 152.987 30.5549C155.678 30.9717 158.32 31.4829 160.04 33.9496C160.425 34.5001 161.067 34.6181 161.721 34.2668C163.093 33.5302 164.442 33.7294 165.787 34.3664C166.291 34.605 166.82 34.7885 167.352 34.9615C168.745 35.415 170.062 35.2262 171.374 34.4189ZM159.945 19.9986C160.169 19.5582 160.317 19.2777 160.454 18.992C162.366 15.0232 164.21 11.0203 166.23 7.10656C166.886 5.83518 166.022 4.54546 164.892 4.03428C163.401 3.35796 162.176 3.66729 161.581 4.94391C160.367 7.54433 159.2 10.171 157.933 12.7452C157.456 13.7125 157.124 14.5408 158.033 15.4242C158.249 15.6366 158.312 16.0088 158.436 16.3103C158.918 17.482 159.395 18.6538 159.945 19.9986ZM146.504 23.8677C145.438 20.9501 145.851 18.1767 147.152 15.44C146.399 15.1647 145.704 14.8685 144.982 14.6693C144.75 14.6064 144.308 14.7191 144.202 14.8947C143.241 16.4754 142.332 18.0902 141.395 19.7155C143.547 20.3394 144.779 22.3526 146.504 23.8677ZM138.597 26.4026C138.524 26.5101 138.45 26.615 138.376 26.7224C139.272 28.2297 140.333 29.6322 142.037 30.2666C143.902 30.9586 145.82 31.5458 147.753 32.0072C150.037 32.5524 152.339 33.1239 154.809 32.8015C154.659 32.7464 154.577 32.7018 154.491 32.6861C152.036 32.2221 149.618 31.7031 147.35 30.5471C144.476 29.0791 141.518 27.7762 138.597 26.4026ZM154.396 20.9947C152.31 21.9332 150.305 22.8349 148.293 23.7393C149.044 25.9308 150.329 26.3581 152.191 24.9504C153.276 24.1299 154.327 23.2675 155.418 22.4076C154.978 21.7995 154.638 21.3302 154.396 20.9947ZM147.334 21.3932C150.279 20.8138 152.9 19.3904 153.052 18.3576C151.348 18.1348 149.644 17.9093 147.769 17.6629C147.624 18.8897 147.49 20.0667 147.334 21.3932ZM156.772 24.1246C155.876 24.8586 155.002 25.5743 154.101 26.3109C156.545 27.349 156.772 27.2965 158.083 25.3882C157.657 24.9766 157.219 24.5546 156.772 24.1246ZM159.477 29.4015C159.919 28.8143 160.319 28.2822 160.741 27.7186C160.388 27.425 160.117 27.2022 159.785 26.9243C159.305 27.4512 158.858 27.9414 158.381 28.4657C158.776 28.8038 159.092 29.0738 159.477 29.4015ZM162.211 29.3674C161.776 29.9389 161.457 30.3557 161.02 30.9272C161.818 31.1945 162.432 31.399 163.046 31.6035C163.146 31.4934 163.246 31.3833 163.343 31.2758C162.993 30.6834 162.64 30.0909 162.211 29.3674ZM162.008 36.2381C161.218 36.1726 160.338 36.0992 159.511 36.031C159.998 37.4099 160.701 37.1844 162.008 36.2381ZM163.011 37.9525C163.92 38.0652 164.671 38.1596 165.585 38.2723C164.484 37.1923 164.052 37.1346 163.011 37.9525ZM155.02 34.6941C155.839 35.297 156.569 35.8292 157.512 36.5238C156.898 35.373 156.237 34.7465 155.02 34.6941ZM137.125 28.2612C137.115 29.3412 137.61 29.9048 138.708 30.1565C138.197 29.5457 137.681 28.927 137.125 28.2612Z" fill="#CDFE00"/>
<path d="M83.888 165.255C87.025 167.171 89.1295 169.546 90.3042 172.666C92.1796 177.649 91.0918 182.1 87.5281 185.917C84.32 189.351 80.24 190.976 75.5253 190.979C65.1002 190.984 54.6751 190.982 44.2474 190.982C44.0551 190.982 43.8628 190.953 43.6152 190.932C43.6152 174.255 43.6152 157.624 43.6152 140.916C43.9445 140.9 44.2658 140.874 44.5845 140.874C54.1193 140.871 63.6568 140.766 73.189 140.913C78.5253 140.997 83.1847 142.939 86.4403 147.362C90.5071 152.888 89.7406 160.02 84.6992 164.72C84.5096 164.896 84.262 165.009 83.888 165.255ZM58.5786 151.134C58.5786 160.906 58.5786 170.561 58.5786 180.247C62.2266 180.247 65.785 180.299 69.3434 180.226C71.2135 180.187 72.7886 179.353 73.8554 177.778C75.8703 174.8 73.5946 170.616 69.8097 170.451C66.8465 170.322 63.8754 170.391 60.9096 170.367C60.5646 170.364 60.2195 170.333 59.8771 170.317C59.8771 167.187 59.8771 164.18 59.8771 161.069C60.317 161.069 60.7042 161.072 61.094 161.069C63.8306 161.04 66.5699 161.103 69.2987 160.948C71.3531 160.833 72.8861 159.674 73.7263 157.803C75.0485 154.861 72.6517 151.315 69.1222 151.168C65.6349 151.021 62.137 151.134 58.5786 151.134Z" fill="white"/>
<path d="M170.268 162.741C172.804 162.741 175.206 162.762 177.609 162.733C179.529 162.71 181.235 162.091 182.56 160.657C185.102 157.908 183.709 153.692 179.876 152.513C179.313 152.34 178.72 152.177 178.141 152.167C175.436 152.117 172.731 152.125 170.025 152.112C169.701 152.109 169.378 152.112 168.951 152.112C168.951 165.08 168.951 177.966 168.951 190.916C163.846 190.916 158.847 190.916 153.771 190.916C153.771 174.278 153.771 157.645 153.771 140.866C154.14 140.866 154.52 140.866 154.901 140.866C163.514 140.866 172.127 140.934 180.738 140.84C185.35 140.787 189.285 142.399 192.867 145.097C195.593 147.149 197.858 149.566 198.885 152.924C200.574 158.437 199.847 163.441 195.575 167.58C192.677 170.388 189.308 172.454 185.123 173.261C190.085 179.136 194.998 184.947 200.021 190.895C199.576 190.934 199.302 190.979 199.025 190.979C193.944 190.984 188.861 190.971 183.78 190.995C183.158 190.997 182.771 190.806 182.376 190.318C178.522 185.571 174.632 180.853 170.766 176.116C170.534 175.83 170.291 175.439 170.289 175.099C170.255 171.028 170.268 166.957 170.268 162.741Z" fill="white"/>
<path d="M146.984 190.982C143.42 190.982 140.025 190.982 136.63 190.982C134.749 190.982 132.869 190.945 130.988 191C130.235 191.021 129.929 190.782 129.689 190.059C126.426 180.26 123.123 170.477 119.831 160.689C119.738 160.413 119.641 160.141 119.462 159.622C117.223 166.144 115.055 172.456 112.856 178.863C116.828 178.863 120.705 178.863 124.693 178.863C126.041 182.868 127.379 186.845 128.746 190.911C116.441 190.911 104.222 190.911 91.8899 190.911C92.3219 189.852 92.7301 188.832 93.1515 187.818C99.5415 172.475 105.939 157.134 112.305 141.781C112.608 141.052 112.98 140.837 113.754 140.847C117.581 140.892 121.408 140.881 125.235 140.853C125.881 140.847 126.21 141.005 126.473 141.639C133.185 157.805 139.922 173.961 146.655 190.119C146.752 190.355 146.836 190.599 146.984 190.982Z" fill="white"/>
<path d="M87.652 130.582C87.652 116.704 87.652 102.827 87.652 88.9044C88.9874 88.9044 90.2227 88.9044 91.5159 88.9044C91.5159 106.25 91.5159 123.541 91.5159 141.144C78.6676 126.296 65.98 111.635 53.108 96.7607C53.108 110.644 53.108 124.27 53.108 137.961C51.7384 137.961 50.5004 137.961 49.1887 137.961C49.1887 120.891 49.1887 103.844 49.1887 86.5242C62.016 101.348 74.7062 116.012 87.3991 130.679C87.4808 130.645 87.5651 130.613 87.652 130.582Z" fill="#CDFE00"/>
<path d="M221.121 117.766C227.084 124.516 232.95 131.161 238.997 138.008C237.235 138.008 235.705 138.037 234.18 137.982C233.922 137.972 233.645 137.634 233.434 137.395C228.24 131.542 223.044 125.688 217.881 119.808C217.357 119.21 216.857 118.943 216.048 118.951C212.123 118.993 208.199 118.969 204.272 118.969C203.913 118.969 203.553 118.969 203.071 118.969C203.071 125.334 203.071 131.62 203.071 137.967C201.711 137.967 200.476 137.967 199.183 137.967C199.183 121.58 199.183 105.249 199.183 88.8888C199.509 88.8731 199.773 88.8521 200.034 88.8521C204.98 88.8495 209.929 88.7787 214.876 88.8678C221.081 88.9806 226.204 91.3608 229.789 96.5223C233.25 101.503 232.626 108.45 228.58 112.987C226.568 115.247 224.105 116.691 221.121 117.766ZM203.123 115.449C203.476 115.449 203.769 115.449 204.061 115.449C207.788 115.449 211.515 115.451 215.245 115.446C217.802 115.441 220.178 114.762 222.367 113.454C227.503 110.382 229.565 104.483 227.089 99.4976C224.869 95.0255 221.021 92.7239 216.114 92.4434C212.036 92.2127 207.935 92.3831 203.845 92.3805C203.621 92.3805 203.397 92.4172 203.123 92.4408C203.123 100.108 203.123 107.739 203.123 115.449Z" fill="#CDFE00"/>
<path d="M155.42 118.969C155.42 125.363 155.42 131.62 155.42 137.951C154.098 137.951 152.863 137.951 151.546 137.951C151.546 121.617 151.546 105.291 151.546 88.9072C151.812 88.8863 152.065 88.8522 152.32 88.8522C157.301 88.8496 162.284 88.7683 167.262 88.8705C173.505 88.999 178.646 91.4185 182.202 96.6587C185.531 101.569 184.928 108.332 181.051 112.817C179.023 115.163 176.521 116.663 173.455 117.758C176.457 121.171 179.389 124.511 182.331 127.845C185.263 131.167 188.207 134.48 191.339 138.014C189.566 138.014 188.065 138.048 186.566 137.985C186.277 137.972 185.955 137.634 185.729 137.374C181.622 132.75 177.529 128.118 173.436 123.486C172.259 122.157 171.097 120.812 169.901 119.502C169.68 119.26 169.322 118.993 169.027 118.99C164.541 118.962 160.059 118.969 155.42 118.969ZM155.478 115.449C155.857 115.449 156.147 115.449 156.439 115.449C160.135 115.449 163.83 115.449 167.526 115.446C170.086 115.446 172.464 114.773 174.656 113.472C179.795 110.421 181.873 104.512 179.413 99.5239C177.184 95.002 173.307 92.7056 168.358 92.4409C164.278 92.2233 160.177 92.3858 156.087 92.3832C155.897 92.3832 155.707 92.4147 155.478 92.4356C155.478 100.098 155.478 107.705 155.478 115.449Z" fill="#CDFE00"/>
<path d="M36.522 90.9283C35.9952 92.0345 35.5079 93.0621 35.0444 94.0373C32.3867 93.4448 29.8239 92.7265 27.2111 92.3202C21.4375 91.4211 15.7192 91.5626 10.2723 94.0058C8.16776 94.9495 6.33455 96.289 5.14664 98.3206C3.59789 100.966 4.16155 104.366 6.52419 107.024C8.71825 109.493 11.6366 110.353 14.7789 110.717C18.7298 111.176 22.736 111.362 26.6132 112.164C31.507 113.179 35.3868 115.868 37.3727 120.665C39.1875 125.048 37.8311 130.113 34.2331 133.256C30.9144 136.155 26.974 137.495 22.7018 138.126C14.9607 139.269 7.52245 137.707 0.139547 135.641C0.115841 135.634 0.100038 135.594 -0.00268555 135.466C0.421377 134.695 0.824368 133.84 1.35379 133.075C1.50392 132.857 2.04914 132.779 2.37575 132.842C4.76472 133.285 7.12999 133.854 9.52686 134.242C15.0186 135.13 20.5182 135.555 25.9362 133.793C28.557 132.941 30.8459 131.565 32.4526 129.258C35.1471 125.386 34.2884 120.602 30.4719 117.787C27.9775 115.949 25.1408 115.174 22.1197 114.862C18.3268 114.468 14.4839 114.316 10.7543 113.595C7.06678 112.885 4.00879 110.817 1.95696 107.577C-1.09577 102.756 -0.0922391 96.9811 4.3433 93.3819C7.87539 90.5141 12.0028 89.0776 16.4673 88.6739C19.3093 88.417 22.1934 88.3226 25.0407 88.4747C28.9257 88.6817 32.6817 89.6779 36.522 90.9283Z" fill="#CDFE00"/>
</g>
<defs>
<clipPath id="clip0_23_1000">
<rect width="239" height="191" fill="white"/>
</clipPath>
</defs>
</svg>
