<svg width="20" height="13" viewBox="0 0 20 13" fill="none" xmlns="http://www.w3.org/2000/svg">
<path d="M12.3761 1.28979H7.10742V10.7772H12.3761V1.28979Z" fill="#FF5F00"/>
<path d="M7.44259 6.0337C7.44176 5.11999 7.64838 4.21808 8.04683 3.39622C8.44528 2.57437 9.0251 1.85412 9.7424 1.29001C8.85413 0.590372 7.78733 0.15528 6.66395 0.0344601C5.54057 -0.0863601 4.40593 0.111962 3.38972 0.606768C2.37351 1.10157 1.51672 1.8729 0.917302 2.83257C0.317879 3.79225 0 4.90155 0 6.0337C0 7.16584 0.317879 8.27515 0.917302 9.23482C1.51672 10.1945 2.37351 10.9658 3.38972 11.4606C4.40593 11.9554 5.54057 12.1538 6.66395 12.0329C7.78733 11.9121 8.85413 11.477 9.7424 10.7774C9.0251 10.2133 8.44528 9.49302 8.04684 8.67117C7.64839 7.84932 7.44176 6.9474 7.44259 6.0337Z" fill="#EB001B"/>
<path d="M19.4843 6.0337C19.4843 7.16583 19.1665 8.27513 18.5671 9.23481C17.9677 10.1945 17.1109 10.9658 16.0948 11.4606C15.0786 11.9554 13.9439 12.1538 12.8206 12.0329C11.6972 11.9121 10.6304 11.477 9.74219 10.7774C10.4589 10.2127 11.0382 9.49234 11.4366 8.67062C11.835 7.8489 12.042 6.94726 12.042 6.0337C12.042 5.12014 11.835 4.21851 11.4366 3.39678C11.0382 2.57506 10.4589 1.8547 9.74219 1.29001C10.6304 0.590375 11.6972 0.155278 12.8206 0.0344586C13.9439 -0.0863603 15.0786 0.111971 16.0948 0.606782C17.1109 1.10159 17.9677 1.87292 18.5671 2.8326C19.1665 3.79227 19.4843 4.90157 19.4843 6.0337Z" fill="#F79E1B"/>
<path d="M18.91 9.77264V9.57841H18.9881V9.53884H18.7891V9.57841H18.8673V9.77264H18.91ZM19.2964 9.77264V9.53845H19.2354L19.1652 9.69953L19.095 9.53845H19.034V9.77264H19.0771V9.59599L19.1429 9.74829H19.1875L19.2534 9.59561V9.77264H19.2964Z" fill="#F79E1B"/>
</svg>
