<svg width="60" height="100" viewBox="0 0 60 100" fill="none" xmlns="http://www.w3.org/2000/svg">
<path d="M37.5 29.5834C37.5029 30.6832 37.2459 31.7683 36.75 32.75C36.162 33.9265 35.2581 34.916 34.1395 35.6078C33.021 36.2995 31.7319 36.6662 30.4167 36.6667C29.3168 36.6696 28.2318 36.4126 27.25 35.9167L22.5 37.5L24.0833 32.75C23.5874 31.7683 23.3305 30.6832 23.3333 29.5834C23.3338 28.2682 23.7005 26.9791 24.3923 25.8605C25.084 24.7419 26.0735 23.838 27.25 23.25C28.2318 22.7541 29.3168 22.4972 30.4167 22.5H30.8333C32.5703 22.5959 34.2109 23.329 35.4409 24.5591C36.671 25.7892 37.4042 27.4297 37.5 29.1667V29.5834Z" stroke="white" stroke-width="1.11111" stroke-linecap="round" stroke-linejoin="round"/>
<path d="M37.5 69.5834C37.5029 70.6832 37.2459 71.7683 36.75 72.75C36.162 73.9265 35.2581 74.916 34.1395 75.6078C33.021 76.2995 31.7319 76.6662 30.4167 76.6667C29.3168 76.6696 28.2318 76.4126 27.25 75.9167L22.5 77.5L24.0833 72.75C23.5874 71.7683 23.3305 70.6832 23.3333 69.5834C23.3338 68.2682 23.7005 66.9791 24.3923 65.8605C25.084 64.7419 26.0735 63.838 27.25 63.25C28.2318 62.7541 29.3168 62.4972 30.4167 62.5H30.8333C32.5703 62.5959 34.2109 63.329 35.4409 64.5591C36.671 65.7892 37.4042 67.4297 37.5 69.1667V69.5834Z" fill="#CDFE00"/>
<rect x="0.5" y="0.5" width="59" height="99" rx="4.5" stroke="#9747FF" stroke-dasharray="10 5"/>
</svg>
