<svg width="12" height="30" viewBox="0 0 12 30" fill="none" xmlns="http://www.w3.org/2000/svg">
<path d="M2.41326 23.7846C1.35811 29.0786 4.17183 30.1264 5.71059 29.9885C10.9864 29.1614 10.5467 25.0254 11.6458 16.3399C12.7449 7.6545 11.4259 0.209856 5.71059 0.00306003C-0.00471351 -0.203736 -0.761219 10.3396 0.557712 12.4076C2.53611 16.1299 3.73219 17.1672 2.41326 23.7846Z" fill="#3D4347"/>
<mask id="mask0_221_3747" style="mask-type:alpha" maskUnits="userSpaceOnUse" x="0" y="0" width="12" height="30">
<path d="M2.41326 23.7846C1.35811 29.0786 4.17183 30.1264 5.71059 29.9885C10.9864 29.1614 10.5467 25.0254 11.6458 16.3399C12.7449 7.6545 11.4259 0.209856 5.71059 0.00306003C-0.00471351 -0.203736 -0.761219 10.3396 0.557712 12.4076C2.53611 16.1299 3.73219 17.1672 2.41326 23.7846Z" fill="#3D4347"/>
</mask>
<g mask="url(#mask0_221_3747)">
<path d="M-2 3H14" stroke="white"/>
<path d="M-2 6H14" stroke="white"/>
<path d="M-2 9H14" stroke="white"/>
<path d="M-2 12H14" stroke="white"/>
<path d="M-2 15H14" stroke="white"/>
<path d="M-2 18H14" stroke="white"/>
<path d="M-2 21H14" stroke="white"/>
<path d="M-2 24H14" stroke="white"/>
<path d="M-2 27H14" stroke="white"/>
</g>
</svg>
