<svg width="30" height="18" viewBox="0 0 30 18" fill="none" xmlns="http://www.w3.org/2000/svg">
<path d="M4.56445 8.29124H4.91338C6.21703 8.29124 7.48682 7.83198 8.48889 6.99796L15.3919 1.25255C15.9132 0.818721 16.5737 0.579834 17.2519 0.579834C18.8551 0.579834 20.1594 1.88413 20.1594 3.48731V4.16618C20.1594 5.48876 21.2354 6.56483 22.558 6.56483C23.4864 6.56483 24.3397 6.02114 24.732 5.17974L24.923 4.76987C25.3586 3.83565 26.3061 3.23202 27.3368 3.23202C28.8053 3.23202 30 4.42669 30 5.89522V12.8557C30 15.3725 27.9524 17.4201 25.4355 17.4201H4.56445C2.04762 17.4201 0 15.3725 0 12.8557C0 10.3389 2.04762 8.29124 4.56445 8.29124ZM4.56445 15.6623H25.4355C26.4802 15.6623 27.3928 15.0882 27.876 14.2393H2.12402C2.60725 15.0882 3.51978 15.6623 4.56445 15.6623ZM28.2422 12.4816V5.89522C28.2422 5.39595 27.836 4.98983 27.3368 4.98983C26.9864 4.98983 26.6643 5.19509 26.5162 5.51267L26.3251 5.92247C25.6454 7.38052 24.1667 8.32265 22.5579 8.32265C20.2661 8.32265 18.4015 6.45808 18.4015 4.16618V3.48731C18.4015 2.85339 17.8857 2.33765 17.2518 2.33765C16.9837 2.33765 16.7225 2.4321 16.5163 2.60366L14.8229 4.01313L16.7524 5.94263L15.5095 7.18558L13.4662 5.14235L12.7027 5.77786L14.5451 7.62028L13.3021 8.86323L11.3459 6.90708L10.5824 7.54259L12.3377 9.29794L11.0948 10.5409L9.21305 8.65915C7.96594 9.55856 6.45774 10.0492 4.91326 10.0492H4.56434C3.14367 10.0492 1.96699 11.1104 1.78342 12.4816H28.2422Z" fill="white"/>
</svg>
