<svg width="24" height="24" viewBox="0 0 24 24" fill="none" xmlns="http://www.w3.org/2000/svg">
<path d="M12.3688 22.7596C11.3529 22.7596 10.4253 22.3621 9.71861 21.6554C9.18858 21.1254 8.43769 20.8162 7.68681 20.8162C5.61085 20.8162 3.93241 19.1377 3.93241 17.0618C3.93241 16.3109 3.62323 15.56 3.09319 15.03C1.6356 13.5724 1.6356 11.1872 3.09319 9.72965C3.62323 9.19962 3.93241 8.44874 3.93241 7.69786C3.93241 5.62189 5.61085 3.94346 7.68681 3.94346C8.43769 3.94346 9.18858 3.63427 9.71861 3.10424C10.4253 2.39752 11.3529 2 12.3688 2C13.3847 2 14.3122 2.39752 15.0189 3.10424C15.549 3.63427 16.2999 3.94346 17.0507 3.94346C19.1267 3.94346 20.8051 5.62189 20.8051 7.69786C20.8051 8.44874 21.1143 9.19962 21.6444 9.72965C23.1019 11.1872 23.1019 13.5724 21.6444 15.03C21.1143 15.56 20.8051 16.3109 20.8051 17.0618C20.8051 19.1377 19.1267 20.8162 17.0507 20.8162C16.2999 20.8162 15.549 21.1254 15.0189 21.6554C14.3122 22.3621 13.3847 22.7596 12.3688 22.7596ZM12.3688 2.88339C11.6179 2.88339 10.867 3.19257 10.337 3.72261C9.63027 4.42932 8.70271 4.82684 7.68681 4.82684C6.09671 4.82684 4.8158 6.10776 4.8158 7.69786C4.8158 8.71375 4.41828 9.64131 3.71157 10.348C2.60733 11.4523 2.60733 13.3074 3.71157 14.4116C4.41828 15.1183 4.8158 16.0459 4.8158 17.0618C4.8158 18.6519 6.09671 19.9328 7.68681 19.9328C8.70271 19.9328 9.63027 20.3303 10.337 21.037C10.867 21.5671 11.6179 21.8762 12.3688 21.8762C13.1197 21.8762 13.8705 21.5671 14.4006 21.037C15.1073 20.3303 16.0348 19.9328 17.0507 19.9328C18.6408 19.9328 19.9217 18.6519 19.9217 17.0618C19.9217 16.0459 20.3193 15.1183 21.026 14.4116C22.1302 13.3074 22.1302 11.4523 21.026 10.348C20.3193 9.64131 19.9217 8.71375 19.9217 7.69786C19.9217 6.10776 18.6408 4.82684 17.0507 4.82684C16.0348 4.82684 15.1073 4.42932 14.4006 3.72261C13.8705 3.19257 13.1197 2.88339 12.3688 2.88339V2.88339Z" fill="white" stroke="white" stroke-width="0.176678"/>
<path d="M6.80352 16.7086L5.30176 12.6892L6.09681 12.38L8.74697 14.5001L7.77525 11.8058L8.52613 11.5408L9.98372 15.6044L9.1445 15.9135L6.5385 13.8818L7.51023 16.5319L6.80352 16.7086Z" fill="white" stroke="white" stroke-width="0.176678"/>
<path d="M10.867 15.2512L9.40942 11.1876L12.4129 10.0834L12.678 10.7459L10.5137 11.541L10.8228 12.4244L12.8546 11.6735L13.1197 12.336L11.0437 13.1752L11.4412 14.2795L13.6939 13.4403L13.9589 14.1028L10.867 15.2512Z" fill="white" stroke="white" stroke-width="0.176678"/>
<path d="M15.1957 13.661L12.7664 9.95078L13.6056 9.64159L15.2398 12.2034L14.9748 9.15573L15.9466 8.80237L17.6692 11.3642L17.2275 8.31651L18.0667 8.00732L18.5526 12.4243L17.6692 12.7335L15.7699 9.99495L16.0791 13.3077L15.1957 13.661Z" fill="white" stroke="white" stroke-width="0.176678"/>
</svg>
