<svg width="32" height="18" viewBox="0 0 32 18" fill="none" xmlns="http://www.w3.org/2000/svg">
<rect width="32" height="18" rx="9" fill="#CDFE00"/>
<path d="M12.5157 12H11.6037L8.85966 7.848V12H7.94766V6.432H8.85966L11.6037 10.576V6.432H12.5157V12ZM17.7533 9.688C17.7533 9.85333 17.7426 10.0027 17.7213 10.136H14.3533C14.3799 10.488 14.5106 10.7707 14.7453 10.984C14.9799 11.1973 15.2679 11.304 15.6093 11.304C16.0999 11.304 16.4466 11.0987 16.6493 10.688H17.6333C17.4999 11.0933 17.2573 11.4267 16.9053 11.688C16.5586 11.944 16.1266 12.072 15.6093 12.072C15.1879 12.072 14.8093 11.9787 14.4733 11.792C14.1426 11.6 13.8813 11.3333 13.6893 10.992C13.5026 10.6453 13.4093 10.2453 13.4093 9.792C13.4093 9.33867 13.4999 8.94133 13.6813 8.6C13.8679 8.25333 14.1266 7.98667 14.4573 7.8C14.7933 7.61333 15.1773 7.52 15.6093 7.52C16.0253 7.52 16.3959 7.61067 16.7213 7.792C17.0466 7.97333 17.2999 8.22933 17.4813 8.56C17.6626 8.88533 17.7533 9.26133 17.7533 9.688ZM16.8013 9.4C16.7959 9.064 16.6759 8.79467 16.4413 8.592C16.2066 8.38933 15.9159 8.288 15.5693 8.288C15.2546 8.288 14.9853 8.38933 14.7613 8.592C14.5373 8.78933 14.4039 9.05867 14.3613 9.4H16.8013ZM24.5708 7.592L23.2028 12H22.2428L21.3548 8.744L20.4668 12H19.5068L18.1308 7.592H19.0588L19.9788 11.136L20.9148 7.592H21.8668L22.7628 11.12L23.6748 7.592H24.5708Z" fill="black"/>
</svg>
