<svg width="66" height="58" viewBox="0 0 66 58" fill="none" xmlns="http://www.w3.org/2000/svg">
<g clip-path="url(#clip0_219_2997)">
<path d="M32.9964 14.6337L27.4805 16.0776C25.5326 16.5596 23.8286 17.2016 22.1867 16.6396C19.9547 15.6756 19.9947 13.1677 21.6587 10.4998C18.7168 12.9277 13.4229 20.6915 20.5827 21.4755C21.4947 21.5955 23.1186 21.2755 24.8826 20.5335L32.9964 17.2036L49 10.6598L34.9843 14.1117L32.9964 14.6337Z" fill="white"/>
</g>
<path d="M27.8204 51H26.4524L22.3364 44.772V51H20.9684V42.648H22.3364L26.4524 48.864V42.648H27.8204V51ZM30.3128 43.512C30.0648 43.512 29.8568 43.428 29.6888 43.26C29.5208 43.092 29.4368 42.884 29.4368 42.636C29.4368 42.388 29.5208 42.18 29.6888 42.012C29.8568 41.844 30.0648 41.76 30.3128 41.76C30.5528 41.76 30.7568 41.844 30.9248 42.012C31.0928 42.18 31.1768 42.388 31.1768 42.636C31.1768 42.884 31.0928 43.092 30.9248 43.26C30.7568 43.428 30.5528 43.512 30.3128 43.512ZM30.9848 44.388V51H29.6168V44.388H30.9848ZM35.3969 47.7L38.4449 51H36.5969L34.1489 48.156V51H32.7809V42.12H34.1489V47.28L36.5489 44.388H38.4449L35.3969 47.7ZM45.4854 47.532C45.4854 47.78 45.4694 48.004 45.4374 48.204H40.3854C40.4254 48.732 40.6214 49.156 40.9734 49.476C41.3254 49.796 41.7574 49.956 42.2694 49.956C43.0054 49.956 43.5254 49.648 43.8294 49.032H45.3054C45.1054 49.64 44.7414 50.14 44.2134 50.532C43.6934 50.916 43.0454 51.108 42.2694 51.108C41.6374 51.108 41.0694 50.968 40.5654 50.688C40.0694 50.4 39.6774 50 39.3894 49.488C39.1094 48.968 38.9694 48.368 38.9694 47.688C38.9694 47.008 39.1054 46.412 39.3774 45.9C39.6574 45.38 40.0454 44.98 40.5414 44.7C41.0454 44.42 41.6214 44.28 42.2694 44.28C42.8934 44.28 43.4494 44.416 43.9374 44.688C44.4254 44.96 44.8054 45.344 45.0774 45.84C45.3494 46.328 45.4854 46.892 45.4854 47.532ZM44.0574 47.1C44.0494 46.596 43.8694 46.192 43.5174 45.888C43.1654 45.584 42.7294 45.432 42.2094 45.432C41.7374 45.432 41.3334 45.584 40.9974 45.888C40.6614 46.184 40.4614 46.588 40.3974 47.1H44.0574Z" fill="white"/>
<defs>
<clipPath id="clip0_219_2997">
<rect width="32" height="32" fill="white" transform="translate(17)"/>
</clipPath>
</defs>
</svg>
