<svg width="93" height="64" viewBox="0 0 93 64" fill="none" xmlns="http://www.w3.org/2000/svg">
<path d="M92.99 39.89L90.39 21.06C90.3607 20.8623 90.2926 20.6723 90.1898 20.5009C90.0869 20.3295 89.9512 20.1801 89.7905 20.0612C89.6298 19.9423 89.4473 19.8562 89.2533 19.808C89.0593 19.7597 88.8577 19.7502 88.66 19.78L75.56 21.93C74.6284 21.7607 73.6861 21.6571 72.74 21.62C72.626 20.7283 72.4216 19.8504 72.13 19C71.5463 17.1567 70.5073 15.4903 69.109 14.1549C67.7107 12.8195 65.9982 11.8583 64.13 11.36C59.57 10.04 54.33 11.09 51.59 12C50.4 9.36002 47.59 4.81003 43.45 2.37003C41.81 1.36511 39.9454 0.784908 38.0247 0.681892C36.1041 0.578876 34.1881 0.956301 32.45 1.78003C28.76 3.42002 25.62 6.91002 23.61 11.34C22.9535 11.5072 22.3239 11.7664 21.74 12.11C18.05 14.31 10.31 22 8.36 24H1.5C1.10218 24 0.720644 24.1581 0.43934 24.4394C0.158035 24.7207 0 25.1022 0 25.5V44.86C0 45.2578 0.158035 45.6394 0.43934 45.9207C0.720644 46.202 1.10218 46.36 1.5 46.36H8.62C11.1708 47.4256 13.8679 48.0998 16.62 48.36C18.4267 48.6004 20.2474 48.7206 22.07 48.72C25.2071 48.7272 28.3357 48.3919 31.4 47.72L32.91 47.38C33.57 48.02 34.25 48.64 34.96 49.26C35.0854 49.3606 35.2232 49.4447 35.37 49.51C35.5136 49.571 35.6651 49.6114 35.82 49.63C37.5335 49.8196 39.256 49.9165 40.98 49.92C46.063 49.9542 51.1004 48.961 55.79 47C54.6513 48.4531 53.3304 49.7538 51.86 50.87C49.0124 51.2693 46.1933 51.8505 43.42 52.61C42.3709 52.9066 41.3059 53.1437 40.23 53.32C39.08 53.08 37.96 52.81 36.87 52.56C34.219 51.7877 31.4801 51.3576 28.72 51.28C26.72 51.38 24.52 52.83 24.31 55.02C23.99 58.3 28.08 61.02 36.45 63.02C37.7373 63.2439 39.0442 63.3344 40.35 63.29C45.83 63.29 54.35 62.51 55.62 62.39C55.7283 62.3797 55.8354 62.3596 55.94 62.33C56.45 62.16 68.6 58.27 74.29 53.08C77.46 50.18 79.63 48.08 81.22 46.46C85.5 42.25 85.5 42.25 91.66 41.58C91.8565 41.5572 92.0463 41.4949 92.2181 41.397C92.3899 41.299 92.5402 41.1674 92.66 41.01C92.7866 40.8546 92.881 40.6755 92.9376 40.4832C92.9943 40.2909 93.0121 40.0893 92.99 39.89ZM16.99 45.4C11.7 44.69 9.76 43.58 9.76 43.58C9.52221 43.4347 9.24866 43.3586 8.97 43.36H2.97V27H8.97C9.16939 27.0004 9.36683 26.9608 9.55062 26.8835C9.73442 26.8062 9.90083 26.6928 10.04 26.55C10.13 26.46 19.42 16.98 23.29 14.69C24.98 13.69 27.29 14.05 30.29 14.51C33.7115 15.1858 37.2191 15.3107 40.68 14.88C41.76 14.71 42.4 14.88 42.55 15.17C42.7 15.46 42.6 16.44 41.72 17.48C39.92 19.59 35.72 21.28 29.72 19.09C29.4868 19.0071 29.2367 18.9832 28.9919 19.0204C28.7472 19.0576 28.5155 19.1548 28.3175 19.3034C28.1195 19.4519 27.9613 19.6471 27.857 19.8716C27.7528 20.0961 27.7057 20.3429 27.72 20.59C27.72 20.93 28.05 27.21 23.54 30.68L23.46 30.74C21.8948 31.8807 20.0562 32.5878 18.13 32.79C17.7356 32.8447 17.3788 33.053 17.1372 33.3695C16.8956 33.686 16.7888 34.0852 16.84 34.48C16.8923 34.869 17.096 35.2216 17.4069 35.4613C17.7177 35.701 18.1105 35.8083 18.5 35.76C20.2977 35.5438 22.0402 34.998 23.64 34.15C25.3213 38.0528 27.6208 41.6591 30.45 44.83C26.0374 45.8015 21.489 45.9944 17.01 45.4H16.99ZM36.55 46.67C35.79 46.01 35.07 45.34 34.4 44.67C34.09 44.37 33.79 44.06 33.5 43.75C30.3715 40.4464 27.8827 36.5912 26.16 32.38C28.8193 29.7652 30.4214 26.2619 30.66 22.54C37.07 24.22 41.66 22.14 44.01 19.44C45.63 17.53 46.08 15.34 45.18 13.72C44.78 13.01 43.51 11.42 40.18 11.93C37.0238 12.3132 33.8267 12.1882 30.71 11.56C29.44 11.36 28.24 11.17 27.1 11.1C28.5285 8.26196 30.8319 5.95857 33.67 4.53003C34.8358 3.9527 36.1191 3.65234 37.42 3.65234C38.7209 3.65234 40.0042 3.9527 41.17 4.53003C46.17 6.96002 49.02 13.38 49.24 14.16C49.2799 14.4099 49.3825 14.6456 49.538 14.8453C49.6935 15.0449 49.8971 15.2019 50.1296 15.3017C50.3622 15.4015 50.6162 15.4408 50.868 15.4161C51.1199 15.3913 51.3614 15.3032 51.57 15.16C52.3 14.79 58.96 12.5 64.14 14.49C65.37 14.9428 66.4771 15.6769 67.373 16.6335C68.2689 17.5902 68.9288 18.743 69.3 20C69.4822 20.5486 69.6226 21.1102 69.72 21.68C64.6608 22.0253 59.8046 23.8048 55.72 26.81C49.38 31.45 45.83 31.06 43.24 30.81C41.9977 30.5512 40.7097 30.6166 39.5 31C37.68 31.75 36.86 34 37.59 36.26C38.78 39.96 43.71 43.04 53.99 40.62C55.3203 40.4551 56.6674 40.482 57.99 40.7C58.1402 41.1159 58.1915 41.5609 58.14 42C58.14 42.16 58.14 42.37 58.04 42.62C53.24 45.47 46.31 47.66 36.57 46.67H36.55ZM79.1 44.38C77.54 45.93 75.4 48.06 72.27 50.91C67.38 55.37 56.58 59.01 55.18 59.47C49.28 60.02 39.31 60.68 37.18 60.16C28.9 58.16 27.25 56 27.31 55.35C27.36 54.91 28.21 54.35 28.88 54.35H29.24C31.6086 54.5125 33.9543 54.9179 36.24 55.56C37.37 55.83 38.55 56.1 39.75 56.35C40.53 56.52 41.62 56.26 44.22 55.6C46.9911 54.8384 49.811 54.2671 52.66 53.89C52.9329 53.861 53.1924 53.7572 53.41 53.59C60.96 47.86 61.29 42.67 61.21 41.22C61.2259 40.5871 61.0822 39.9603 60.7921 39.3976C60.502 38.8348 60.0748 38.3542 59.55 38C59.4353 37.9381 59.3147 37.8878 59.19 37.85C57.3227 37.4325 55.3959 37.3513 53.5 37.61H53.36C45.01 39.61 41.18 37.61 40.43 35.27C40.15 34.4 40.43 33.77 40.62 33.7C41.3709 33.534 42.1491 33.534 42.9 33.7C45.8 34.02 50.19 34.51 57.48 29.19C60.003 27.335 62.8703 26.0012 65.9144 25.2663C68.9585 24.5315 72.1186 24.4104 75.21 24.91C75.4018 24.9449 75.5982 24.9449 75.79 24.91L87.63 23L89.8 38.77C84.3 39.42 83.56 40 79.1 44.38Z" fill="#CDFE00"/>
</svg>
