<svg width="100" height="100" viewBox="0 0 100 100" fill="none" xmlns="http://www.w3.org/2000/svg">
<g clip-path="url(#clip0_162_2097)">
<path d="M11.5837 50.0953C11.5837 62.9424 17.9664 74.2988 27.7336 81.166C29.4548 82.3768 29.5463 84.8907 27.893 86.1922L27.8465 86.2289C26.7669 87.0788 25.2533 87.1352 24.1287 86.3456C12.7266 78.3378 5.27344 65.0863 5.27344 50.0953C5.27344 25.7797 25.4005 6.04019 49.6673 5.83267V12.1445C28.8833 12.3505 11.5837 29.2633 11.5837 50.0953V50.0953Z" fill="#CDFE00"/>
<path d="M50.8262 0.188454L62.4229 8.12073C63.0439 8.54568 63.0439 9.46197 62.4229 9.88693L50.8262 17.8192C50.1159 18.3052 49.1523 17.7963 49.1523 16.9365V1.07194C49.1523 0.211342 50.1159 -0.296775 50.8262 0.188454V0.188454Z" fill="#CDFE00"/>
<path d="M88.356 49.9046C88.356 37.0575 81.9725 25.7011 72.2053 18.8339C70.4841 17.6231 70.3926 15.1092 72.0459 13.8077L72.0924 13.771C73.172 12.9211 74.6856 12.8647 75.8102 13.6543C87.2131 21.6621 94.6655 34.9136 94.6655 49.9046C94.6655 74.2202 74.5727 93.9597 50.3052 94.1672V87.8554C71.0892 87.6494 88.356 70.7374 88.356 49.9046V49.9046Z" fill="#CDFE00"/>
<path d="M49.1135 99.8115L37.5168 91.8792C36.8958 91.4542 36.8958 90.5379 37.5168 90.113L49.1135 82.1807C49.823 81.6947 50.7874 82.2036 50.7874 83.0634V98.928C50.7874 99.7886 49.823 100.297 49.1135 99.8115Z" fill="#CDFE00"/>
<path d="M35 52.2L43.5714 61L65 39" stroke="#CDFE00" stroke-width="7" stroke-linecap="round" stroke-linejoin="round"/>
</g>
<defs>
<clipPath id="clip0_162_2097">
<rect width="100" height="100" fill="white"/>
</clipPath>
</defs>
</svg>
