<svg width="100" height="100" viewBox="0 0 100 100" fill="none" xmlns="http://www.w3.org/2000/svg">
<path d="M51.5625 26.5625C53.3389 26.5737 55.0971 26.2038 56.7184 25.4776C58.3396 24.7515 59.7863 23.6861 60.9608 22.3532C62.1352 21.0204 63.0101 19.4512 63.5265 17.7514C64.0428 16.0516 64.1886 14.2609 63.9539 12.5H71.875C72.2894 12.5 72.6868 12.3354 72.9799 12.0424C73.2729 11.7493 73.4375 11.3519 73.4375 10.9375C73.4375 10.5231 73.2729 10.1257 72.9799 9.83265C72.6868 9.53962 72.2894 9.375 71.875 9.375H63.1422C62.2911 7.27345 60.8843 5.44304 59.0725 4.07986C57.2607 2.71669 55.1122 1.87212 52.8571 1.63665C50.602 1.40117 48.3254 1.78365 46.271 2.74312C44.2167 3.70258 42.4621 5.20288 41.1952 7.08327C39.9284 8.96367 39.197 11.1533 39.0793 13.4176C38.9617 15.6819 39.4624 17.9355 40.5276 19.937C41.5929 21.9386 43.1826 23.6126 45.1265 24.7797C47.0704 25.9468 49.2952 26.5631 51.5625 26.5625V26.5625ZM51.5625 4.6875C53.2061 4.68943 54.8203 5.12354 56.2431 5.94628C57.666 6.76903 58.8475 7.95148 59.6691 9.375H43.4559C44.2775 7.95148 45.459 6.76903 46.8819 5.94628C48.3047 5.12354 49.9189 4.68943 51.5625 4.6875V4.6875ZM42.3281 12.5H60.7969C61.0329 13.8476 60.9712 15.2305 60.616 16.5517C60.2608 17.8729 59.6208 19.1003 58.7408 20.1478C57.8608 21.1954 56.7623 22.0376 55.5222 22.6154C54.2821 23.1933 52.9306 23.4927 51.5625 23.4927C50.1944 23.4927 48.8429 23.1933 47.6028 22.6154C46.3627 22.0376 45.2642 21.1954 44.3842 20.1478C43.5042 19.1003 42.8642 17.8729 42.509 16.5517C42.1538 15.2305 42.0921 13.8476 42.3281 12.5V12.5ZM26.5625 53.125H35.9375C36.3519 53.125 36.7493 53.2896 37.0424 53.5826C37.3354 53.8757 37.5 54.2731 37.5 54.6875C37.5 55.1019 37.3354 55.4993 37.0424 55.7924C36.7493 56.0854 36.3519 56.25 35.9375 56.25H26.5625C26.1481 56.25 25.7507 56.0854 25.4576 55.7924C25.1646 55.4993 25 55.1019 25 54.6875C25 54.2731 25.1646 53.8757 25.4576 53.5826C25.7507 53.2896 26.1481 53.125 26.5625 53.125ZM3.125 56.25C2.7106 56.25 2.31317 56.0854 2.02015 55.7924C1.72712 55.4993 1.5625 55.1019 1.5625 54.6875C1.5625 54.2731 1.72712 53.8757 2.02015 53.5826C2.31317 53.2896 2.7106 53.125 3.125 53.125H20.3125C20.7269 53.125 21.1243 53.2896 21.4174 53.5826C21.7104 53.8757 21.875 54.2731 21.875 54.6875C21.875 55.1019 21.7104 55.4993 21.4174 55.7924C21.1243 56.0854 20.7269 56.25 20.3125 56.25H3.125ZM31.25 46.875C30.8356 46.875 30.4382 46.7104 30.1451 46.4174C29.8521 46.1243 29.6875 45.7269 29.6875 45.3125C29.6875 44.8981 29.8521 44.5007 30.1451 44.2076C30.4382 43.9146 30.8356 43.75 31.25 43.75H35.9375C36.3519 43.75 36.7493 43.9146 37.0424 44.2076C37.3354 44.5007 37.5 44.8981 37.5 45.3125C37.5 45.7269 37.3354 46.1243 37.0424 46.4174C36.7493 46.7104 36.3519 46.875 35.9375 46.875H31.25ZM3.125 45.3125C3.125 44.8981 3.28962 44.5007 3.58265 44.2076C3.87567 43.9146 4.2731 43.75 4.6875 43.75H25C25.4144 43.75 25.8118 43.9146 26.1049 44.2076C26.3979 44.5007 26.5625 44.8981 26.5625 45.3125C26.5625 45.7269 26.3979 46.1243 26.1049 46.4174C25.8118 46.7104 25.4144 46.875 25 46.875H4.6875C4.2731 46.875 3.87567 46.7104 3.58265 46.4174C3.28962 46.1243 3.125 45.7269 3.125 45.3125V45.3125ZM4.6875 35.9375C4.6875 35.5231 4.85212 35.1257 5.14515 34.8326C5.43817 34.5396 5.8356 34.375 6.25 34.375H17.1875C17.6019 34.375 17.9993 34.5396 18.2924 34.8326C18.5854 35.1257 18.75 35.5231 18.75 35.9375C18.75 36.3519 18.5854 36.7493 18.2924 37.0424C17.9993 37.3354 17.6019 37.5 17.1875 37.5H6.25C5.8356 37.5 5.43817 37.3354 5.14515 37.0424C4.85212 36.7493 4.6875 36.3519 4.6875 35.9375ZM21.875 60.9375C22.2894 60.9375 22.6868 61.1021 22.9799 61.3951C23.2729 61.6882 23.4375 62.0856 23.4375 62.5C23.4375 62.9144 23.2729 63.3118 22.9799 63.6049C22.6868 63.8979 22.2894 64.0625 21.875 64.0625H7.8125C7.3981 64.0625 7.00067 63.8979 6.70765 63.6049C6.41462 63.3118 6.25 62.9144 6.25 62.5C6.25 62.0856 6.41462 61.6882 6.70765 61.3951C7.00067 61.1021 7.3981 60.9375 7.8125 60.9375H21.875ZM93.75 15.625H71.875C70.6322 15.6264 69.4407 16.1207 68.5619 16.9994C67.6832 17.8782 67.1889 19.0697 67.1875 20.3125V42.1875C67.1928 42.721 67.2902 43.2496 67.4755 43.75H66.1056L55.7525 32.4814C54.524 31.1471 52.8705 30.2805 51.0742 30.0294L43.0786 28.9184C41.2409 28.6564 39.3702 29.0632 37.8072 30.0647C36.2443 31.0663 35.0931 32.5959 34.5633 34.375H23.4375C23.0231 34.375 22.6257 34.5396 22.3326 34.8326C22.0396 35.1257 21.875 35.5231 21.875 35.9375C21.875 36.3519 22.0396 36.7493 22.3326 37.0424C22.6257 37.3354 23.0231 37.5 23.4375 37.5H37.5C37.9144 37.5 38.3118 37.3354 38.6049 37.0424C38.8979 36.7493 39.0625 36.3519 39.0625 35.9375C39.0598 35.5937 38.9421 35.2608 38.7283 34.9916C38.5145 34.7225 38.2167 34.5326 37.8825 34.4522C38.329 33.6042 39.0265 32.9148 39.8797 32.4782C40.7329 32.0416 41.7001 31.8791 42.6491 32.013L50.6439 33.1237C51.722 33.2747 52.7144 33.7952 53.4516 34.5962L64.2684 46.37C64.4149 46.5292 64.5927 46.6563 64.7908 46.7432C64.9888 46.8301 65.2028 46.875 65.4191 46.875H78.7666C79.41 46.8748 80.0285 47.1243 80.4916 47.571C80.9548 48.0177 81.2264 48.6268 81.2494 49.2699C81.2723 49.9129 81.0448 50.5398 80.6147 51.0184C80.1845 51.497 79.5855 51.79 78.9436 51.8356L62.767 52.9908C62.3953 53.0187 62.022 52.962 61.6754 52.8248C61.3287 52.6876 61.0177 52.4735 60.7658 52.1987L58.9409 50.2212L58.9402 50.2197L48.04 38.0219C47.9049 37.8635 47.7395 37.7336 47.5535 37.6401C47.3675 37.5465 47.1647 37.491 46.957 37.4769C46.7493 37.4628 46.5408 37.4903 46.3439 37.5579C46.147 37.6255 45.9655 37.7318 45.8103 37.8705C45.655 38.0092 45.529 38.1775 45.4397 38.3656C45.3504 38.5537 45.2996 38.7577 45.2902 38.9657C45.2809 39.1737 45.3132 39.3815 45.3853 39.5768C45.4574 39.7721 45.5678 39.9511 45.71 40.1031L48.0077 42.6744C46.7838 47.9443 45.8648 53.2805 45.2553 58.6562C45.2185 58.9563 45.2693 59.2606 45.4017 59.5323C45.5341 59.804 45.7424 60.0316 46.0014 60.1875L61.647 69.5953C61.9238 69.7617 62.164 69.9825 62.353 70.2443C62.542 70.5062 62.6759 70.8037 62.7465 71.1188C62.8172 71.4339 62.8232 71.7601 62.7642 72.0776C62.7052 72.3951 62.5823 72.6973 62.4031 72.9659L49.0661 92.9719C48.7243 93.486 48.1966 93.8477 47.5938 93.9812C46.991 94.1146 46.3599 94.0094 45.833 93.6876C45.3061 93.3657 44.9244 92.8523 44.7679 92.2551C44.6113 91.6579 44.6923 91.0232 44.9936 90.4844L54.1153 74.1223C54.3145 73.7647 54.3656 73.3432 54.2575 72.9483C54.1494 72.5535 53.8908 72.2168 53.5372 72.0105L40.4903 64.4116C40.3041 64.3032 40.0975 64.2345 39.8835 64.2098C39.6695 64.1851 39.4527 64.2049 39.2467 64.268C39.0407 64.3311 38.85 64.4361 38.6866 64.5764C38.5231 64.7168 38.3904 64.8894 38.2969 65.0834L30.9928 80.2094L8.12609 83.6625C7.51741 83.7534 6.89711 83.6062 6.39413 83.2516C5.89115 82.8969 5.54417 82.3621 5.42531 81.7583L5.39406 81.5981C5.27176 80.9872 5.39427 80.3528 5.73521 79.8313C6.07614 79.3099 6.60823 78.9432 7.21688 78.8103L26.1125 74.5805C26.3425 74.5293 26.5579 74.4266 26.7425 74.2802C26.9271 74.1338 27.0761 73.9474 27.1783 73.7351C27.1783 73.7351 31.2302 65.3445 31.8502 64.0633H32.8125C33.2269 64.0633 33.6243 63.8987 33.9174 63.6056C34.2104 63.3126 34.375 62.9152 34.375 62.5008C34.375 62.0864 34.2104 61.6889 33.9174 61.3959C33.6243 61.1029 33.2269 60.9383 32.8125 60.9383H28.125C27.7106 60.9383 27.3132 61.1029 27.0201 61.3959C26.7271 61.6889 26.5625 62.0864 26.5625 62.5008C26.5625 62.9152 26.7271 63.3126 27.0201 63.6056C27.3132 63.8987 27.7106 64.0633 28.125 64.0633H28.4375C27.6719 65.5328 26.5289 67.8933 24.6919 71.6972L6.53453 75.7614C5.12937 76.0677 3.90083 76.9139 3.11377 78.1176C2.32671 79.3213 2.04416 80.786 2.32703 82.1961L2.35828 82.3562C2.63014 83.7518 3.43058 84.9884 4.59247 85.8079C5.75437 86.6273 7.1879 86.9662 8.59375 86.7539L32.2755 83.1772C32.5267 83.1389 32.7649 83.04 32.9694 82.889C33.1738 82.738 33.3383 82.5394 33.4487 82.3105L40.3778 67.9627L50.6402 73.9395L42.2652 88.9617C41.7143 89.9654 41.4885 91.1153 41.6187 92.2527C41.7489 93.3902 42.2288 94.4592 42.9922 95.3125H34.375C33.9606 95.3125 33.5632 95.4771 33.2701 95.7701C32.9771 96.0632 32.8125 96.4606 32.8125 96.875C32.8125 97.2894 32.9771 97.6868 33.2701 97.9798C33.5632 98.2729 33.9606 98.4375 34.375 98.4375H60.9375C61.3519 98.4375 61.7493 98.2729 62.0424 97.9798C62.3354 97.6868 62.5 97.2894 62.5 96.875C62.5 96.4606 62.3354 96.0632 62.0424 95.7701C61.7493 95.4771 61.3519 95.3125 60.9375 95.3125H51.1394C51.33 95.1236 51.5061 94.9205 51.6662 94.7051L65.0033 74.6994C65.4168 74.0789 65.7001 73.381 65.8362 72.6479C65.9723 71.9147 65.9583 71.1616 65.7951 70.4341C65.6318 69.7065 65.3227 69.0196 64.8864 68.4149C64.4502 67.8102 63.8958 67.3003 63.2569 66.9159L48.4825 58.0322C49.0853 53.2883 49.7452 49.2812 50.518 45.7L58.4687 54.3183C59.0363 54.9412 59.7386 55.4262 60.5222 55.7361C61.3058 56.046 62.1499 56.1727 62.99 56.1066L79.1658 54.9514C80.5789 54.8462 81.9002 54.2117 82.8659 53.1747C83.8316 52.1378 84.3705 50.7746 84.375 49.3577C84.3695 48.4942 84.162 47.644 83.7692 46.875H93.75C94.9928 46.8736 96.1843 46.3793 97.0631 45.5006C97.9418 44.6218 98.4361 43.4303 98.4375 42.1875V20.3125C98.4361 19.0697 97.9418 17.8782 97.0631 16.9994C96.1843 16.1207 94.9928 15.6264 93.75 15.625V15.625ZM79.6875 18.75H85.9375V25.9155L83.9172 23.8953C83.7722 23.7502 83.6 23.635 83.4104 23.5564C83.2209 23.4779 83.0177 23.4374 82.8125 23.4374C82.6073 23.4374 82.4041 23.4779 82.2146 23.5564C82.025 23.635 81.8528 23.7502 81.7078 23.8953L79.6875 25.9155V18.75ZM95.3125 42.1875C95.3121 42.6018 95.1474 42.999 94.8544 43.2919C94.5615 43.5849 94.1643 43.7496 93.75 43.75H71.875C71.4607 43.7496 71.0635 43.5849 70.7706 43.2919C70.4776 42.999 70.3129 42.6018 70.3125 42.1875V20.3125C70.3129 19.8982 70.4776 19.501 70.7706 19.2081C71.0635 18.9151 71.4607 18.7504 71.875 18.75H76.5625V29.6875C76.5626 29.9965 76.6542 30.2985 76.8259 30.5554C76.9976 30.8123 77.2416 31.0125 77.5271 31.1307C77.8126 31.249 78.1267 31.2799 78.4297 31.2197C78.7328 31.1594 79.0112 31.0106 79.2297 30.7922L82.8125 27.2095L86.3953 30.7922C86.6138 31.0106 86.8922 31.1594 87.1953 31.2197C87.4983 31.2799 87.8124 31.249 88.0979 31.1307C88.3834 31.0125 88.6274 30.8123 88.7991 30.5554C88.9708 30.2985 89.0624 29.9965 89.0625 29.6875V18.75H93.75C94.1643 18.7504 94.5615 18.9151 94.8544 19.2081C95.1474 19.501 95.3121 19.8982 95.3125 20.3125V42.1875ZM81.25 35.9375C81.25 36.3519 81.0854 36.7493 80.7924 37.0424C80.4993 37.3354 80.1019 37.5 79.6875 37.5H73.4375C73.0231 37.5 72.6257 37.3354 72.3326 37.0424C72.0396 36.7493 71.875 36.3519 71.875 35.9375C71.875 35.5231 72.0396 35.1257 72.3326 34.8326C72.6257 34.5396 73.0231 34.375 73.4375 34.375H79.6875C80.1019 34.375 80.4993 34.5396 80.7924 34.8326C81.0854 35.1257 81.25 35.5231 81.25 35.9375ZM81.25 40.625C81.25 41.0394 81.0854 41.4368 80.7924 41.7299C80.4993 42.0229 80.1019 42.1875 79.6875 42.1875H73.4375C73.0231 42.1875 72.6257 42.0229 72.3326 41.7299C72.0396 41.4368 71.875 41.0394 71.875 40.625C71.875 40.2106 72.0396 39.8132 72.3326 39.5201C72.6257 39.2271 73.0231 39.0625 73.4375 39.0625H79.6875C80.1019 39.0625 80.4993 39.2271 80.7924 39.5201C81.0854 39.8132 81.25 40.2106 81.25 40.625Z" fill="#CDFE00"/>
</svg>
