<svg width="96" height="96" viewBox="0 0 96 96" fill="none" xmlns="http://www.w3.org/2000/svg">
<path d="M71.1431 91.254L71.1375 91.2597C70.6415 91.7692 69.9543 92.054 69.2356 92.054H16.8416C10.6403 92.054 5.6 87.0137 5.6 80.8124V21.8029C5.6 15.6016 10.6403 10.5613 16.8416 10.5613H21.5385H22.1385V9.96127V6.65362C22.1385 5.16573 23.3583 3.94598 24.8461 3.94598C26.3341 3.94598 27.5541 5.1658 27.5541 6.65362V9.96127V10.5613H28.1541H67.8463H68.4463V9.96127V6.65362C68.4463 5.16573 69.6661 3.94598 71.154 3.94598C72.642 3.94598 73.8619 5.1658 73.8616 6.65353V9.96127V10.5613H74.4616H79.1585C85.3598 10.5613 90.4001 15.6016 90.4001 21.8029V70.8895C90.4001 71.6033 90.1183 72.2788 89.6001 72.7971L71.1431 91.254ZM68.9002 84.4012V85.8497L69.9244 84.8255L81.518 73.2319L82.5423 72.2076H81.0938H70.4594C69.5988 72.2076 68.9002 72.9063 68.9002 73.7668V84.4012ZM22.1385 16.5768V15.9768H21.5385H16.8416C13.6326 15.9768 11.0156 18.5939 11.0156 21.8029V80.8127C11.0156 84.0217 13.6326 86.6387 16.8416 86.6387H62.8843H63.4843V86.0387V73.7671C63.4843 69.9142 66.6062 66.7923 70.4591 66.7923H84.3846H84.9846V66.1923V21.8029C84.9846 18.5939 82.3675 15.9768 79.1585 15.9768H74.4616H73.8616V16.5768V19.8845C73.8616 21.3724 72.6419 22.5921 71.154 22.5921C69.6661 22.5921 68.4463 21.3724 68.4463 19.8845V16.5768V15.9768H67.8463H28.1538H27.5538V16.5768V19.8845C27.5538 21.3724 26.334 22.5921 24.8461 22.5921C23.3583 22.5921 22.1385 21.3724 22.1385 19.8845V16.5768Z" fill="#CDFE00" stroke="#0C1419" stroke-width="1.2"/>
<path d="M33.0653 37.2499C33.0653 39.5057 31.2366 41.3344 28.9807 41.3344C26.7249 41.3344 24.8962 39.5057 24.8962 37.2499C24.8962 34.994 26.7249 33.1653 28.9807 33.1653C31.2366 33.1653 33.0653 34.994 33.0653 37.2499Z" fill="#CDFE00" stroke="#0C1419" stroke-width="0.1"/>
<path d="M51.2577 37.2499C51.2577 39.5057 49.429 41.3344 47.1731 41.3344C44.9173 41.3344 43.0886 39.5057 43.0886 37.2499C43.0886 34.994 44.9173 33.1653 47.1731 33.1653C49.429 33.1653 51.2577 34.994 51.2577 37.2499Z" fill="#CDFE00" stroke="#0C1419" stroke-width="0.1"/>
<path d="M69.4501 37.2499C69.4501 39.5057 67.6213 41.3344 65.3655 41.3344C63.1097 41.3344 61.281 39.5057 61.281 37.2499C61.281 34.994 63.1097 33.1653 65.3655 33.1653C67.6213 33.1653 69.4501 34.994 69.4501 37.2499Z" fill="#CDFE00" stroke="#0C1419" stroke-width="0.1"/>
<path d="M33.0653 53.7884C33.0653 56.0442 31.2366 57.8729 28.9807 57.8729C26.7249 57.8729 24.8962 56.0442 24.8962 53.7884C24.8962 51.5325 26.7249 49.7038 28.9807 49.7038C31.2366 49.7038 33.0653 51.5325 33.0653 53.7884Z" fill="#CDFE00" stroke="#0C1419" stroke-width="0.1"/>
<path d="M51.2577 53.7884C51.2577 56.0442 49.429 57.8729 47.1731 57.8729C44.9173 57.8729 43.0886 56.0442 43.0886 53.7884C43.0886 51.5325 44.9173 49.7038 47.1731 49.7038C49.429 49.7038 51.2577 51.5325 51.2577 53.7884Z" fill="#CDFE00" stroke="#0C1419" stroke-width="0.1"/>
<path d="M69.4501 53.7884C69.4501 56.0442 67.6213 57.8729 65.3655 57.8729C63.1097 57.8729 61.281 56.0442 61.281 53.7884C61.281 51.5325 63.1097 49.7038 65.3655 49.7038C67.6213 49.7038 69.4501 51.5325 69.4501 53.7884Z" fill="#CDFE00" stroke="#0C1419" stroke-width="0.1"/>
<path d="M33.0653 70.3269C33.0653 72.5827 31.2366 74.4114 28.9807 74.4114C26.7249 74.4114 24.8962 72.5827 24.8962 70.3269C24.8962 68.071 26.7249 66.2423 28.9807 66.2423C31.2366 66.2423 33.0653 68.071 33.0653 70.3269Z" fill="#CDFE00" stroke="#0C1419" stroke-width="0.1"/>
<path d="M51.2577 70.3269C51.2577 72.5827 49.429 74.4114 47.1731 74.4114C44.9173 74.4114 43.0886 72.5827 43.0886 70.3269C43.0886 68.071 44.9173 66.2423 47.1731 66.2423C49.429 66.2423 51.2577 68.071 51.2577 70.3269Z" fill="#CDFE00" stroke="#0C1419" stroke-width="0.1"/>
</svg>
