<svg width="32" height="32" viewBox="0 0 32 32" fill="none" xmlns="http://www.w3.org/2000/svg">
<path d="M7.6301 27.97C8.98601 27.9426 10.3199 27.6219 11.5401 27.03C12.9733 26.3523 14.2764 25.4283 15.3901 24.3C17.5627 22.2793 18.8765 19.5014 19.0601 16.54V16.53C19.0601 16.34 19.0501 16.15 19.0401 15.97C19.0077 15.5939 18.9374 15.222 18.8301 14.86V14.85C18.6721 14.2659 18.4003 13.7187 18.0301 13.24L18.0201 13.23C18.0194 13.2223 18.0158 13.2152 18.0101 13.21C17.9901 13.18 17.9601 13.16 17.9401 13.13C17.8521 13.022 17.7586 12.9185 17.6601 12.82C17.4944 12.6536 17.3137 12.5029 17.1201 12.37C14.4501 10.43 9.7201 11.55 6.1801 15.09C4.45523 16.7517 3.24093 18.8715 2.6801 21.2C2.41143 22.1258 2.38338 23.1049 2.59861 24.0445C2.81384 24.9842 3.26524 25.8534 3.9101 26.57C4.03951 26.698 4.17641 26.8183 4.3201 26.93C5.26848 27.637 6.42765 28.0035 7.6101 27.97C7.61139 27.9714 7.61295 27.9724 7.61467 27.9732C7.61638 27.9739 7.61823 27.9743 7.6201 27.9743C7.62197 27.9743 7.62382 27.9739 7.62554 27.9732C7.62726 27.9724 7.62881 27.9714 7.6301 27.97V27.97ZM15.8701 16.02C15.8801 16.1525 15.8374 16.2836 15.7512 16.3847C15.6651 16.4858 15.5425 16.5488 15.4101 16.56C13.8201 16.68 11.7201 17.87 9.9301 19.66C8.41132 21.0445 7.34204 22.8522 6.8601 24.85C6.8424 24.9672 6.78316 25.074 6.69321 25.1511C6.60325 25.2282 6.48858 25.2704 6.3701 25.27H6.2901C6.15937 25.249 6.04211 25.1775 5.96357 25.0709C5.88502 24.9643 5.85146 24.8311 5.8701 24.7C6.38742 22.4918 7.55421 20.4891 9.2201 18.95C11.1701 17 13.5101 15.7 15.3301 15.56C15.4618 15.5532 15.5912 15.597 15.6916 15.6826C15.7921 15.7681 15.8559 15.8889 15.8701 16.02V16.02Z" fill="white"/>
<path d="M28.6701 3.53999C28.2672 3.07308 27.6982 2.7816 27.0839 2.72745C26.4696 2.6733 25.8584 2.86075 25.3801 3.24999L20.5801 8.04999C20.5296 8.09059 20.4886 8.1418 20.4601 8.19999C20.4364 8.23941 20.4227 8.28401 20.4201 8.32994L20.4101 8.33994V8.34994C20.3012 9.16118 19.9931 9.93282 19.5132 10.5959C19.0333 11.259 18.3967 11.7929 17.6601 12.1499C17.7868 12.2488 17.9071 12.3556 18.0201 12.4699C18.1579 12.6059 18.2881 12.7495 18.4101 12.8999C18.7107 13.2823 18.9533 13.7068 19.1301 14.1599C19.2182 14.3576 19.2917 14.5615 19.3501 14.7699C19.3601 14.7799 19.3601 14.7799 19.3501 14.7899C19.4436 15.1173 19.5105 15.4518 19.5501 15.7899C19.6357 16.6601 19.5783 17.5384 19.3801 18.3899V18.4C18.7829 20.7836 17.5246 22.9502 15.7501 24.65C14.5859 25.8316 13.2258 26.8026 11.7301 27.52C11.0104 27.8579 10.2559 28.1161 9.4801 28.29C8.88308 28.4272 8.27267 28.4976 7.6601 28.5C7.04785 28.5046 6.43818 28.4204 5.8501 28.25C7.00921 28.9549 8.34358 29.3189 9.7001 29.3C10.0243 29.2996 10.3483 29.2796 10.6701 29.24C13.1235 28.9306 15.3984 27.795 17.1201 26.02C20.2301 22.91 21.1701 18.6 19.7001 15.45C19.9472 14.5129 20.4634 13.6688 21.1849 13.0219C21.9065 12.375 22.8017 11.9537 23.7601 11.81H23.7901C23.8224 11.8092 23.8538 11.7988 23.8801 11.78C23.9733 11.7676 24.0588 11.7213 24.1201 11.65L28.9501 6.81999C29.3433 6.34594 29.5343 5.73629 29.4819 5.12263C29.4295 4.50898 29.138 3.94053 28.6701 3.53999V3.53999ZM26.4701 4.82999C26.5914 4.71445 26.7526 4.65001 26.9201 4.65001C27.0876 4.65001 27.2488 4.71445 27.3701 4.82999C27.4298 4.88894 27.4773 4.95913 27.5098 5.0365C27.5423 5.11388 27.5592 5.19693 27.5595 5.28086C27.5598 5.36478 27.5434 5.44794 27.5114 5.52553C27.4794 5.60312 27.4324 5.67362 27.3731 5.73297C27.3137 5.79232 27.2432 5.83934 27.1656 5.87133C27.0881 5.90332 27.0049 5.91964 26.921 5.91937C26.837 5.91909 26.754 5.90221 26.6766 5.86971C26.5992 5.83721 26.529 5.78972 26.4701 5.72999C26.3546 5.60865 26.2901 5.44753 26.2901 5.27999C26.2901 5.11244 26.3546 4.95132 26.4701 4.82999V4.82999Z" fill="white"/>
</svg>
