<svg width="17" height="16" viewBox="0 0 17 16" fill="none" xmlns="http://www.w3.org/2000/svg">
<path fill-rule="evenodd" clip-rule="evenodd" d="M15.4431 13.6095C15.6932 13.3594 15.8337 13.0203 15.8337 12.6667V5.33333C15.8337 4.97971 15.6932 4.64057 15.4431 4.39052C15.1931 4.14048 14.8539 4 14.5003 4H11.8337L10.5003 2H6.50033L5.16699 4H2.50033C2.1467 4 1.80756 4.14048 1.55752 4.39052C1.30747 4.64057 1.16699 4.97971 1.16699 5.33333V12.6667C1.16699 13.0203 1.30747 13.3594 1.55752 13.6095C1.80756 13.8595 2.1467 14 2.50033 14H14.5003C14.8539 14 15.1931 13.8595 15.4431 13.6095ZM6.41577 8.66667C6.41577 7.51546 7.349 6.58222 8.50021 6.58222C9.65142 6.58222 10.5847 7.51546 10.5847 8.66667C10.5847 9.81787 9.65142 10.7511 8.50021 10.7511C7.349 10.7511 6.41577 9.81787 6.41577 8.66667ZM8.50021 5.41778C6.7059 5.41778 5.25132 6.87236 5.25132 8.66667C5.25132 10.461 6.7059 11.9156 8.50021 11.9156C10.2945 11.9156 11.7491 10.461 11.7491 8.66667C11.7491 6.87236 10.2945 5.41778 8.50021 5.41778Z" fill="#0C1419"/>
</svg>
