<svg width="26" height="26" viewBox="0 0 26 26" fill="none" xmlns="http://www.w3.org/2000/svg">
<rect width="26" height="26" rx="6" fill="#CDFE00"/>
<g clip-path="url(#clip0_36_1425)">
<path d="M11.0002 19.6667C11.3684 19.6667 11.6668 19.3682 11.6668 19C11.6668 18.6318 11.3684 18.3333 11.0002 18.3333C10.632 18.3333 10.3335 18.6318 10.3335 19C10.3335 19.3682 10.632 19.6667 11.0002 19.6667Z" stroke="#0C1419" stroke-width="1.40002" stroke-linecap="round" stroke-linejoin="round"/>
<path d="M18.3332 19.6667C18.7014 19.6667 18.9998 19.3682 18.9998 19C18.9998 18.6318 18.7014 18.3333 18.3332 18.3333C17.965 18.3333 17.6665 18.6318 17.6665 19C17.6665 19.3682 17.965 19.6667 18.3332 19.6667Z" stroke="#0C1419" stroke-width="1.40002" stroke-linecap="round" stroke-linejoin="round"/>
<path d="M5.6665 5.66667H8.33317L10.1198 14.5933C10.1808 14.9003 10.3478 15.176 10.5915 15.3722C10.8353 15.5684 11.1403 15.6727 11.4532 15.6667H17.9332C18.246 15.6727 18.551 15.5684 18.7948 15.3722C19.0386 15.176 19.2055 14.9003 19.2665 14.5933L20.3332 9H8.99984" stroke="#0C1419" stroke-width="1.40002" stroke-linecap="round" stroke-linejoin="round"/>
</g>
<defs>
<clipPath id="clip0_36_1425">
<rect width="16" height="16" fill="white" transform="translate(5 5)"/>
</clipPath>
</defs>
</svg>
