<svg width="60" height="100" viewBox="0 0 60 100" fill="none" xmlns="http://www.w3.org/2000/svg">
<path d="M25.5693 26.3403C26.236 26.507 27.5693 26.9403 27.5693 27.3403C27.5693 27.7403 27.236 28.8403 27.0693 29.3403" stroke="white" stroke-width="0.8" stroke-linecap="round"/>
<path d="M21.5693 28.3403C22.4027 29.1737 25.0693 29.9403 29.0693 26.3403" stroke="white" stroke-width="0.8" stroke-linecap="round"/>
<path d="M30.2425 27.1716L28.9999 28.4777" stroke="white" stroke-width="0.8" stroke-linecap="round"/>
<path d="M32 29L31 30.5" stroke="white" stroke-width="0.8" stroke-linecap="round"/>
<path d="M33.9705 30L33.3618 31.6969" stroke="white" stroke-width="0.8" stroke-linecap="round"/>
<path d="M36.2122 31L36.1044 31.5204" stroke="white" stroke-width="0.8" stroke-linecap="round"/>
<path d="M21.5693 27.8404C20.8316 28.947 21.4544 30.5636 21.1639 31.5928C21.1166 31.7603 20.9899 31.8877 20.8569 32C19.5742 33.0826 19.6684 35.3403 21.5693 35.3403H34.5693C38.5693 35.3403 41.5693 30.8404 38.5693 30.8404C27.5693 29.8404 29.0693 21.3404 26.5693 24.8404C24.0693 28.3404 23.5693 25.8404 22.5693 25.8404C21.5693 25.8404 22.5693 26.3404 21.5693 27.8404Z" stroke="white" stroke-width="0.8" stroke-linecap="round"/>
<path d="M21.0693 31.8403C21.4027 31.6737 22.9693 31.4404 24.5693 31.8404C25.5368 32.0822 24.9833 32.4411 25.399 32.6905M39.5693 31.8403C38.5693 32.8403 38.5693 32.8403 33.0693 32.8403C27.3903 33.0985 25.8426 32.9568 25.399 32.6905M25.399 32.6905L26.5693 30.3403" stroke="white" stroke-width="0.8" stroke-linecap="round"/>
<path d="M21.5693 67.8404C20.8316 68.947 21.4544 70.5636 21.1639 71.5928C21.1166 71.7603 20.9899 71.8877 20.8569 72C19.5742 73.0826 19.6684 75.3403 21.5693 75.3403H34.5693C38.5693 75.3403 41.5693 70.8404 38.5693 70.8404C27.5693 69.8404 29.0693 61.3404 26.5693 64.8404C24.0693 68.3404 23.5693 65.8404 22.5693 65.8404C21.5693 65.8404 22.5693 66.3404 21.5693 67.8404Z" fill="#CDFE00"/>
<path d="M20.5 71.5C20.8333 71.3333 22.9694 71.4404 24.5694 71.8404C25.5368 72.0822 24.9834 72.4411 25.399 72.6905M39.5694 71.8403C38.5694 72.8403 38.5694 72.8403 33.0694 72.8403C27.3903 73.0985 25.8427 72.9568 25.399 72.6905M25.399 72.6905L26.5694 70.3403" stroke="#0C1419" stroke-width="0.8" stroke-linecap="round"/>
<path d="M25.5693 66.3403C26.236 66.507 27.5693 66.9403 27.5693 67.3403C27.5693 67.7403 27.236 68.8403 27.0693 69.3403" stroke="#CDFE00" stroke-width="0.8" stroke-linecap="round"/>
<path d="M21 68C21.8333 68.8333 25.5 69.6 29.5 66" stroke="#0C1419" stroke-width="0.8" stroke-linecap="round"/>
<path d="M30.2425 67.1716L28.9999 68.4777" stroke="#0C1419" stroke-width="0.8" stroke-linecap="round"/>
<path d="M32.5 68.5L31 70.5" stroke="#0C1419" stroke-width="0.8" stroke-linecap="round"/>
<path d="M34.5 69.5L33.3618 71.6969" stroke="#0C1419" stroke-width="0.8" stroke-linecap="round"/>
<path d="M37.0001 70L36.1045 71.5204" stroke="#0C1419" stroke-width="0.8" stroke-linecap="round"/>
<rect x="0.5" y="0.5" width="59" height="99" rx="4.5" stroke="#9747FF" stroke-dasharray="10 5"/>
</svg>
