<svg width="100" height="100" viewBox="0 0 100 100" fill="none" xmlns="http://www.w3.org/2000/svg">
<path d="M44.2715 17.8604C43.0012 16.0495 40.3107 13.2934 35.9145 13.7844C32.191 14.2003 29.4133 13.0053 27.6494 11.8225" stroke="#CDFE00" stroke-width="2.92969" stroke-miterlimit="10" stroke-linecap="round" stroke-linejoin="round"/>
<path d="M43.8893 19.7771C43.8893 19.7771 33.5221 19.0318 29.6562 25.639" stroke="#CDFE00" stroke-width="2.92969" stroke-miterlimit="10" stroke-linecap="round" stroke-linejoin="round"/>
<path d="M63.0701 22.9522C57.5015 24.3585 52.0004 24.3587 46.4308 22.9522C44.4924 22.4626 43.3935 20.2829 44.0912 18.3014C44.099 18.2794 44.1068 18.2573 44.1144 18.2352C44.6994 16.5739 46.3582 15.6417 47.984 16.0499C52.5435 17.1946 56.956 17.195 61.517 16.0499C63.1427 15.6417 64.8015 16.5741 65.3863 18.2352C65.3941 18.2573 65.4019 18.2794 65.4097 18.3016C66.1074 20.2831 65.0086 22.4626 63.0701 22.9522Z" stroke="#CDFE00" stroke-width="2.92969" stroke-miterlimit="10" stroke-linecap="round" stroke-linejoin="round"/>
<path d="M63.0705 16.0568C65.6982 12.2412 70.0974 5.08847 68.1158 2.52245C67.1765 1.30663 66.3758 2.958 64.4334 2.958C62.1512 2.958 62.1512 1.46483 59.8691 1.46483C57.5873 1.46483 57.5873 2.958 55.3053 2.958C53.0236 2.958 53.0236 1.46483 50.7418 1.46483C48.4599 1.46483 48.4599 2.958 46.1783 2.958C44.2338 2.958 43.4361 1.28515 42.4908 2.50175C40.5236 5.03378 44.7672 12.1109 47.3603 15.9584" stroke="#CDFE00" stroke-width="2.92969" stroke-miterlimit="10" stroke-linecap="round" stroke-linejoin="round"/>
<path d="M71.1515 26.0464C69.3312 24.4247 67.3489 22.8206 65.1968 21.2423" stroke="#CDFE00" stroke-width="2.92969" stroke-miterlimit="10" stroke-linecap="round" stroke-linejoin="round"/>
<path d="M44.6136 21.7291C26.5011 35.2922 20.8399 50.7314 22.6864 62.748" stroke="#CDFE00" stroke-width="2.92969" stroke-miterlimit="10" stroke-linecap="round" stroke-linejoin="round"/>
<path d="M83.5881 73.7309C90.8121 63.5758 90.6391 46.7774 76.0361 30.8486" stroke="#CDFE00" stroke-width="2.92969" stroke-miterlimit="10" stroke-linecap="round" stroke-linejoin="round"/>
<path d="M60.9383 74.0663L60.9375 74.1704L61.0064 74.1402C60.984 74.1152 60.9609 74.0909 60.9383 74.0663Z" fill="#CDFE00"/>
<path d="M46.3296 82.8419H62.8958" stroke="#CDFE00" stroke-width="2.92969" stroke-miterlimit="10" stroke-linecap="round" stroke-linejoin="round"/>
<path d="M15.2759 91.3265L31.9196 97.5214C33.7206 98.1917 35.6271 98.5351 37.5489 98.5351H59.4042C62.4626 98.5351 65.4581 97.666 68.0417 96.0288L95.4065 78.689C97.2118 77.0859 97.5466 74.3915 96.1882 72.3954C94.7022 70.2115 92.2437 69.8318 89.5386 71.1109L62.896 82.8419L62.9276 78.5193C62.5747 74.9714 59.8431 72.124 56.3126 71.6244L40.0882 69.7566C36.3456 69.2269 34.4753 67.9728 31.2126 66.064C26.7581 63.4581 21.6905 62.0849 16.5298 62.0849H15.2759" stroke="#CDFE00" stroke-width="2.92969" stroke-miterlimit="10" stroke-linecap="round" stroke-linejoin="round"/>
<path d="M15.2756 74.5344V93.852C15.2756 95.3906 14.0283 96.6381 12.4896 96.6381H5.76562C4.22695 96.6381 2.97949 95.3906 2.97949 93.852V59.7379C2.97949 58.1992 4.22695 56.9522 5.76562 56.9522H12.4896C14.0283 56.9522 15.2756 58.1992 15.2756 59.7379V67.6867" stroke="#CDFE00" stroke-width="2.92969" stroke-miterlimit="10" stroke-linecap="round" stroke-linejoin="round"/>
<path d="M60.4351 37.0028C60.4351 37.0028 57.5124 34.307 53.0073 35.6641C48.8708 36.9102 47.8435 42.5703 50.6544 44.775C52.2685 46.0408 54.6972 47.0819 57.9704 48.2389C65.2962 50.8283 62.588 61.1598 55.1362 61.2094C52.228 61.2285 50.8687 61.0442 48.314 59.3729" stroke="#CDFE00" stroke-width="2.92969" stroke-miterlimit="10" stroke-linecap="round" stroke-linejoin="round"/>
<path d="M55.1357 31.7947V64.9803" stroke="#CDFE00" stroke-width="2.92969" stroke-miterlimit="10" stroke-linecap="round" stroke-linejoin="round"/>
</svg>
