<svg width="32" height="16" viewBox="0 0 32 16" fill="none" xmlns="http://www.w3.org/2000/svg">
<path d="M31.541 11H24.086C23.2455 11.295 16.823 13.5 12.5 13.5C6.884 13.5 2.5885 11.9435 0.9725 11.2605C0.5945 11.57 0 12.252 0 13.5C0 13.6895 0.107 13.8625 0.2765 13.9475C0.444 14.0315 4.4745 16 12.5 16C16.6405 16 21.688 14.3565 23.5 13.7155V15.5C23.5 15.7765 23.7235 16 24 16H31.5C31.7765 16 32 15.7765 32 15.5V12C32 11.5 32 11.133 31.541 11Z" fill="white"/>
<path d="M18.9768 11.4825C18.5863 9.77149 17.3578 8.99999 14.9998 8.99999C13.7708 8.99999 12.8783 8.43649 12.5508 7.45449C12.3598 6.88099 12.3938 6.21349 12.5903 5.55499C10.9133 6.59399 8.93883 7.49999 6.99983 7.49999H4.49983C2.83833 7.49999 1.44633 8.66499 1.09033 10.2205C2.35483 10.773 6.76783 12.5 12.4998 12.5C14.4318 12.5 16.8628 12.0195 18.9768 11.4825Z" fill="white"/>
<path d="M14.9999 8C16.0464 8 19.1869 8.008 19.9449 11.2275C22.1399 10.6285 23.7984 10.041 23.8319 10.0295C23.8854 10.01 23.9429 10 23.9999 10H31.7099C31.8484 9.031 31.9999 7.628 31.9999 6.5C31.9999 2.4285 30.9899 0.3625 30.9474 0.2765C30.8704 0.122 30.7184 0.0190003 30.5464 0.00300026C30.3749 -0.0134997 30.2059 0.0614997 30.1009 0.1985C30.0449 0.272 28.6964 2 25.9999 2C24.7449 2 23.9224 1.4395 23.1259 0.8975C22.4484 0.436 21.8084 0 20.9999 0C20.2029 0 19.3324 0.564 17.8764 1.6695L19.3534 3.1465C19.5489 3.342 19.5489 3.658 19.3534 3.8535C19.2559 3.951 19.1279 4 18.9999 4C18.8719 4 18.7439 3.951 18.6464 3.8535L17.0754 2.2825C16.9954 2.345 16.9229 2.4 16.8394 2.4645C16.5469 2.6905 16.2324 2.9335 15.8974 3.1905L17.3534 4.646C17.5489 4.8415 17.5489 5.1575 17.3534 5.353C17.2559 5.451 17.1279 5.5 16.9999 5.5C16.8719 5.5 16.7439 5.451 16.6464 5.3535L15.0949 3.8015C14.9959 3.8765 14.8969 3.9515 14.7939 4.0285C13.7669 4.808 13.1864 6.1985 13.4994 7.1385C13.6904 7.71 14.1949 8 14.9999 8V8Z" fill="white"/>
</svg>
