<svg width="60" height="100" viewBox="0 0 60 100" fill="none" xmlns="http://www.w3.org/2000/svg">
<path d="M28.1667 40.6665H25.6667C25.2246 40.6665 24.8007 40.4909 24.4882 40.1784C24.1756 39.8658 24 39.4419 24 38.9999V33.1665C24 32.7245 24.1756 32.3006 24.4882 31.988C24.8007 31.6755 25.2246 31.4999 25.6667 31.4999H28.1667M34 29.8332V26.4999C34 25.8368 33.7366 25.201 33.2678 24.7321C32.7989 24.2633 32.163 23.9999 31.5 23.9999L28.1667 31.4999V40.6665H37.5667C37.9686 40.6711 38.3586 40.5302 38.6649 40.2699C38.9712 40.0095 39.1731 39.6473 39.2333 39.2499L40.3833 31.7499C40.4196 31.511 40.4035 31.2671 40.3361 31.0351C40.2688 30.8031 40.1518 30.5885 39.9932 30.4061C39.8347 30.2238 39.6384 30.0782 39.418 29.9792C39.1976 29.8803 38.9583 29.8305 38.7167 29.8332H34Z" stroke="white" stroke-width="1.25" stroke-linecap="round" stroke-linejoin="round"/>
<path d="M34 69.8333V66.5C34 65.837 33.7366 65.2011 33.2678 64.7322C32.7989 64.2634 32.163 64 31.5 64L28.1667 71.5V80.6667H37.5667C37.9686 80.6712 38.3586 80.5303 38.6649 80.27C38.9712 80.0097 39.1731 79.6474 39.2333 79.25L40.3833 71.75C40.4196 71.5111 40.4035 71.2672 40.3361 71.0352C40.2688 70.8032 40.1518 70.5886 39.9932 70.4063C39.8347 70.2239 39.6384 70.0783 39.418 69.9793C39.1976 69.8804 38.9583 69.8306 38.7167 69.8333H34ZM28.1667 80.6667H25.6667C25.2246 80.6667 24.8007 80.4911 24.4882 80.1785C24.1756 79.866 24 79.442 24 79V73.1667C24 72.7246 24.1756 72.3007 24.4882 71.9882C24.8007 71.6756 25.2246 71.5 25.6667 71.5H28.1667" fill="#CDFE00"/>
<path d="M27.3335 71.3333L27.3335 80.3333" stroke="#0C1419" stroke-linecap="round" stroke-linejoin="bevel"/>
<rect x="0.5" y="0.5" width="59" height="99" rx="4.5" stroke="#9747FF" stroke-dasharray="10 5"/>
</svg>
