<svg width="139" height="44" viewBox="0 0 139 44" fill="none" xmlns="http://www.w3.org/2000/svg">
<path d="M26 26L22 22L18 26" stroke="#CDFE00" stroke-width="1.5" stroke-linecap="round" stroke-linejoin="round"/>
<path d="M22 22V31" stroke="#CDFE00" stroke-width="1.5" stroke-linecap="round" stroke-linejoin="round"/>
<path d="M30.39 28.39C31.3653 27.8583 32.1358 27.0169 32.5798 25.9986C33.0239 24.9804 33.1162 23.8432 32.8422 22.7667C32.5682 21.6901 31.9434 20.7355 31.0666 20.0534C30.1898 19.3714 29.1108 19.0007 28 19H26.74C26.4373 17.8292 25.8731 16.7423 25.0899 15.821C24.3067 14.8996 23.3248 14.1678 22.2181 13.6806C21.1113 13.1933 19.9085 12.9633 18.7001 13.0079C17.4916 13.0524 16.309 13.3703 15.2411 13.9376C14.1732 14.505 13.2479 15.3071 12.5346 16.2836C11.8213 17.26 11.3387 18.3855 11.1229 19.5754C10.9072 20.7652 10.9641 21.9885 11.2892 23.1532C11.6143 24.318 12.1992 25.3938 13 26.3" stroke="#CDFE00" stroke-width="1.5" stroke-linecap="round" stroke-linejoin="round"/>
<path d="M26 26L22 22L18 26" stroke="#CDFE00" stroke-width="1.5" stroke-linecap="round" stroke-linejoin="round"/>
<path d="M50.756 19.424V26H49.664V25.028C49.456 25.364 49.164 25.628 48.788 25.82C48.42 26.004 48.012 26.096 47.564 26.096C47.052 26.096 46.592 25.992 46.184 25.784C45.776 25.568 45.452 25.248 45.212 24.824C44.98 24.4 44.864 23.884 44.864 23.276V19.424H45.944V23.132C45.944 23.78 46.108 24.28 46.436 24.632C46.764 24.976 47.212 25.148 47.78 25.148C48.364 25.148 48.824 24.968 49.16 24.608C49.496 24.248 49.664 23.724 49.664 23.036V19.424H50.756ZM53.6918 20.636C53.9078 20.26 54.2278 19.948 54.6518 19.7C55.0838 19.444 55.5838 19.316 56.1518 19.316C56.7358 19.316 57.2638 19.456 57.7358 19.736C58.2158 20.016 58.5918 20.412 58.8638 20.924C59.1358 21.428 59.2718 22.016 59.2718 22.688C59.2718 23.352 59.1358 23.944 58.8638 24.464C58.5918 24.984 58.2158 25.388 57.7358 25.676C57.2638 25.964 56.7358 26.108 56.1518 26.108C55.5918 26.108 55.0958 25.984 54.6638 25.736C54.2398 25.48 53.9158 25.164 53.6918 24.788V29.12H52.5998V19.424H53.6918V20.636ZM58.1558 22.688C58.1558 22.192 58.0558 21.76 57.8558 21.392C57.6558 21.024 57.3838 20.744 57.0398 20.552C56.7038 20.36 56.3318 20.264 55.9238 20.264C55.5238 20.264 55.1518 20.364 54.8078 20.564C54.4718 20.756 54.1998 21.04 53.9918 21.416C53.7918 21.784 53.6918 22.212 53.6918 22.7C53.6918 23.196 53.7918 23.632 53.9918 24.008C54.1998 24.376 54.4718 24.66 54.8078 24.86C55.1518 25.052 55.5238 25.148 55.9238 25.148C56.3318 25.148 56.7038 25.052 57.0398 24.86C57.3838 24.66 57.6558 24.376 57.8558 24.008C58.0558 23.632 58.1558 23.192 58.1558 22.688ZM61.8012 17.12V26H60.7092V17.12H61.8012ZM66.5303 26.108C65.9143 26.108 65.3543 25.968 64.8503 25.688C64.3543 25.408 63.9623 25.012 63.6743 24.5C63.3943 23.98 63.2543 23.38 63.2543 22.7C63.2543 22.028 63.3983 21.436 63.6863 20.924C63.9823 20.404 64.3823 20.008 64.8863 19.736C65.3903 19.456 65.9543 19.316 66.5783 19.316C67.2023 19.316 67.7663 19.456 68.2703 19.736C68.7743 20.008 69.1703 20.4 69.4583 20.912C69.7543 21.424 69.9023 22.02 69.9023 22.7C69.9023 23.38 69.7503 23.98 69.4463 24.5C69.1503 25.012 68.7463 25.408 68.2343 25.688C67.7223 25.968 67.1543 26.108 66.5303 26.108ZM66.5303 25.148C66.9223 25.148 67.2903 25.056 67.6343 24.872C67.9783 24.688 68.2543 24.412 68.4623 24.044C68.6783 23.676 68.7863 23.228 68.7863 22.7C68.7863 22.172 68.6823 21.724 68.4743 21.356C68.2663 20.988 67.9943 20.716 67.6583 20.54C67.3223 20.356 66.9583 20.264 66.5663 20.264C66.1663 20.264 65.7983 20.356 65.4623 20.54C65.1343 20.716 64.8703 20.988 64.6703 21.356C64.4703 21.724 64.3703 22.172 64.3703 22.7C64.3703 23.236 64.4663 23.688 64.6583 24.056C64.8583 24.424 65.1223 24.7 65.4503 24.884C65.7783 25.06 66.1383 25.148 66.5303 25.148ZM70.9301 22.688C70.9301 22.016 71.0661 21.428 71.3381 20.924C71.6101 20.412 71.9821 20.016 72.4541 19.736C72.9341 19.456 73.4661 19.316 74.0501 19.316C74.6261 19.316 75.1261 19.44 75.5501 19.688C75.9741 19.936 76.2901 20.248 76.4981 20.624V19.424H77.6021V26H76.4981V24.776C76.2821 25.16 75.9581 25.48 75.5261 25.736C75.1021 25.984 74.6061 26.108 74.0381 26.108C73.4541 26.108 72.9261 25.964 72.4541 25.676C71.9821 25.388 71.6101 24.984 71.3381 24.464C71.0661 23.944 70.9301 23.352 70.9301 22.688ZM76.4981 22.7C76.4981 22.204 76.3981 21.772 76.1981 21.404C75.9981 21.036 75.7261 20.756 75.3821 20.564C75.0461 20.364 74.6741 20.264 74.2661 20.264C73.8581 20.264 73.4861 20.36 73.1501 20.552C72.8141 20.744 72.5461 21.024 72.3461 21.392C72.1461 21.76 72.0461 22.192 72.0461 22.688C72.0461 23.192 72.1461 23.632 72.3461 24.008C72.5461 24.376 72.8141 24.66 73.1501 24.86C73.4861 25.052 73.8581 25.148 74.2661 25.148C74.6741 25.148 75.0461 25.052 75.3821 24.86C75.7261 24.66 75.9981 24.376 76.1981 24.008C76.3981 23.632 76.4981 23.196 76.4981 22.7ZM79.0394 22.688C79.0394 22.016 79.1754 21.428 79.4474 20.924C79.7194 20.412 80.0914 20.016 80.5634 19.736C81.0434 19.456 81.5794 19.316 82.1714 19.316C82.6834 19.316 83.1594 19.436 83.5994 19.676C84.0394 19.908 84.3754 20.216 84.6074 20.6V17.12H85.7114V26H84.6074V24.764C84.3914 25.156 84.0714 25.48 83.6474 25.736C83.2234 25.984 82.7274 26.108 82.1594 26.108C81.5754 26.108 81.0434 25.964 80.5634 25.676C80.0914 25.388 79.7194 24.984 79.4474 24.464C79.1754 23.944 79.0394 23.352 79.0394 22.688ZM84.6074 22.7C84.6074 22.204 84.5074 21.772 84.3074 21.404C84.1074 21.036 83.8354 20.756 83.4914 20.564C83.1554 20.364 82.7834 20.264 82.3754 20.264C81.9674 20.264 81.5954 20.36 81.2594 20.552C80.9234 20.744 80.6554 21.024 80.4554 21.392C80.2554 21.76 80.1554 22.192 80.1554 22.688C80.1554 23.192 80.2554 23.632 80.4554 24.008C80.6554 24.376 80.9234 24.66 81.2594 24.86C81.5954 25.052 81.9674 25.148 82.3754 25.148C82.7834 25.148 83.1554 25.052 83.4914 24.86C83.8354 24.66 84.1074 24.376 84.3074 24.008C84.5074 23.632 84.6074 23.196 84.6074 22.7ZM91.32 18.356C91.112 18.356 90.936 18.284 90.792 18.14C90.648 17.996 90.576 17.82 90.576 17.612C90.576 17.404 90.648 17.228 90.792 17.084C90.936 16.94 91.112 16.868 91.32 16.868C91.52 16.868 91.688 16.94 91.824 17.084C91.968 17.228 92.04 17.404 92.04 17.612C92.04 17.82 91.968 17.996 91.824 18.14C91.688 18.284 91.52 18.356 91.32 18.356ZM91.848 19.424V26H90.756V19.424H91.848ZM101.617 19.304C102.129 19.304 102.585 19.412 102.985 19.628C103.385 19.836 103.701 20.152 103.933 20.576C104.165 21 104.281 21.516 104.281 22.124V26H103.201V22.28C103.201 21.624 103.037 21.124 102.709 20.78C102.389 20.428 101.953 20.252 101.401 20.252C100.833 20.252 100.381 20.436 100.045 20.804C99.7092 21.164 99.5412 21.688 99.5412 22.376V26H98.4612V22.28C98.4612 21.624 98.2972 21.124 97.9692 20.78C97.6492 20.428 97.2132 20.252 96.6612 20.252C96.0932 20.252 95.6412 20.436 95.3052 20.804C94.9692 21.164 94.8012 21.688 94.8012 22.376V26H93.7092V19.424H94.8012V20.372C95.0172 20.028 95.3052 19.764 95.6652 19.58C96.0332 19.396 96.4372 19.304 96.8772 19.304C97.4292 19.304 97.9172 19.428 98.3412 19.676C98.7652 19.924 99.0812 20.288 99.2892 20.768C99.4732 20.304 99.7772 19.944 100.201 19.688C100.625 19.432 101.097 19.304 101.617 19.304ZM105.664 22.688C105.664 22.016 105.8 21.428 106.072 20.924C106.344 20.412 106.716 20.016 107.188 19.736C107.668 19.456 108.2 19.316 108.784 19.316C109.36 19.316 109.86 19.44 110.284 19.688C110.708 19.936 111.024 20.248 111.232 20.624V19.424H112.336V26H111.232V24.776C111.016 25.16 110.692 25.48 110.26 25.736C109.836 25.984 109.34 26.108 108.772 26.108C108.188 26.108 107.66 25.964 107.188 25.676C106.716 25.388 106.344 24.984 106.072 24.464C105.8 23.944 105.664 23.352 105.664 22.688ZM111.232 22.7C111.232 22.204 111.132 21.772 110.932 21.404C110.732 21.036 110.46 20.756 110.116 20.564C109.78 20.364 109.408 20.264 109 20.264C108.592 20.264 108.22 20.36 107.884 20.552C107.548 20.744 107.28 21.024 107.08 21.392C106.88 21.76 106.78 22.192 106.78 22.688C106.78 23.192 106.88 23.632 107.08 24.008C107.28 24.376 107.548 24.66 107.884 24.86C108.22 25.052 108.592 25.148 109 25.148C109.408 25.148 109.78 25.052 110.116 24.86C110.46 24.66 110.732 24.376 110.932 24.008C111.132 23.632 111.232 23.196 111.232 22.7ZM116.894 19.316C117.462 19.316 117.958 19.44 118.382 19.688C118.814 19.936 119.134 20.248 119.342 20.624V19.424H120.446V26.144C120.446 26.744 120.318 27.276 120.062 27.74C119.806 28.212 119.438 28.58 118.958 28.844C118.486 29.108 117.934 29.24 117.302 29.24C116.438 29.24 115.718 29.036 115.142 28.628C114.566 28.22 114.226 27.664 114.122 26.96H115.202C115.322 27.36 115.57 27.68 115.946 27.92C116.322 28.168 116.774 28.292 117.302 28.292C117.902 28.292 118.39 28.104 118.766 27.728C119.15 27.352 119.342 26.824 119.342 26.144V24.764C119.126 25.148 118.806 25.468 118.382 25.724C117.958 25.98 117.462 26.108 116.894 26.108C116.31 26.108 115.778 25.964 115.298 25.676C114.826 25.388 114.454 24.984 114.182 24.464C113.91 23.944 113.774 23.352 113.774 22.688C113.774 22.016 113.91 21.428 114.182 20.924C114.454 20.412 114.826 20.016 115.298 19.736C115.778 19.456 116.31 19.316 116.894 19.316ZM119.342 22.7C119.342 22.204 119.242 21.772 119.042 21.404C118.842 21.036 118.57 20.756 118.226 20.564C117.89 20.364 117.518 20.264 117.11 20.264C116.702 20.264 116.33 20.36 115.994 20.552C115.658 20.744 115.39 21.024 115.19 21.392C114.99 21.76 114.89 22.192 114.89 22.688C114.89 23.192 114.99 23.632 115.19 24.008C115.39 24.376 115.658 24.66 115.994 24.86C116.33 25.052 116.702 25.148 117.11 25.148C117.518 25.148 117.89 25.052 118.226 24.86C118.57 24.66 118.842 24.376 119.042 24.008C119.242 23.632 119.342 23.196 119.342 22.7ZM128.291 22.46C128.291 22.668 128.279 22.888 128.255 23.12H122.999C123.039 23.768 123.259 24.276 123.659 24.644C124.067 25.004 124.559 25.184 125.135 25.184C125.607 25.184 125.999 25.076 126.311 24.86C126.631 24.636 126.855 24.34 126.983 23.972H128.159C127.983 24.604 127.631 25.12 127.103 25.52C126.575 25.912 125.919 26.108 125.135 26.108C124.511 26.108 123.951 25.968 123.455 25.688C122.967 25.408 122.583 25.012 122.303 24.5C122.023 23.98 121.883 23.38 121.883 22.7C121.883 22.02 122.019 21.424 122.291 20.912C122.563 20.4 122.943 20.008 123.431 19.736C123.927 19.456 124.495 19.316 125.135 19.316C125.759 19.316 126.311 19.452 126.791 19.724C127.271 19.996 127.639 20.372 127.895 20.852C128.159 21.324 128.291 21.86 128.291 22.46ZM127.163 22.232C127.163 21.816 127.071 21.46 126.887 21.164C126.703 20.86 126.451 20.632 126.131 20.48C125.819 20.32 125.471 20.24 125.087 20.24C124.535 20.24 124.063 20.416 123.671 20.768C123.287 21.12 123.067 21.608 123.011 22.232H127.163Z" fill="#CDFE00"/>
</svg>
