<svg width="60" height="100" viewBox="0 0 60 100" fill="none" xmlns="http://www.w3.org/2000/svg">
<path d="M36.6666 37.5V35.8333C36.6666 34.9493 36.3154 34.1014 35.6903 33.4763C35.0652 32.8512 34.2173 32.5 33.3333 32.5H26.6666C25.7825 32.5 24.9347 32.8512 24.3096 33.4763C23.6844 34.1014 23.3333 34.9493 23.3333 35.8333V37.5" stroke="white" stroke-width="1.25" stroke-linecap="round" stroke-linejoin="round"/>
<path d="M30.0001 29.1667C31.841 29.1667 33.3334 27.6743 33.3334 25.8333C33.3334 23.9924 31.841 22.5 30.0001 22.5C28.1591 22.5 26.6667 23.9924 26.6667 25.8333C26.6667 27.6743 28.1591 29.1667 30.0001 29.1667Z" stroke="white" stroke-width="1.25" stroke-linecap="round" stroke-linejoin="round"/>
<path d="M36.6666 77.5V75.8333C36.6666 74.9493 36.3154 74.1014 35.6903 73.4763C35.0652 72.8512 34.2173 72.5 33.3333 72.5H26.6666C25.7825 72.5 24.9347 72.8512 24.3096 73.4763C23.6844 74.1014 23.3333 74.9493 23.3333 75.8333V77.5" fill="#CDFE00"/>
<path d="M30.0001 69.1667C31.841 69.1667 33.3334 67.6743 33.3334 65.8333C33.3334 63.9924 31.841 62.5 30.0001 62.5C28.1591 62.5 26.6667 63.9924 26.6667 65.8333C26.6667 67.6743 28.1591 69.1667 30.0001 69.1667Z" fill="#CDFE00"/>
<rect x="0.5" y="0.5" width="59" height="99" rx="4.5" stroke="#9747FF" stroke-dasharray="10 5"/>
</svg>
