<svg width="24" height="24" viewBox="0 0 24 24" fill="none" xmlns="http://www.w3.org/2000/svg">
<path d="M21.6333 2.23328H2.36667C1.6 2.23328 1 2.83328 1 3.56661V16.0666C1 16.7999 1.6 17.4333 2.36667 17.4333H21.6667C22.4 17.4333 23.0333 16.8333 23.0333 16.0666V3.56661C23 2.83328 22.4 2.23328 21.6333 2.23328V2.23328ZM22.3333 16.0666C22.3333 16.4333 22.0333 16.7666 21.6333 16.7666H2.36667C2 16.7666 1.66667 16.4666 1.66667 16.0666V3.56661C1.66667 3.19994 1.96667 2.86661 2.36667 2.86661H21.6667C22.0333 2.86661 22.3667 3.16661 22.3667 3.56661V16.0666H22.3333Z" fill="white" stroke="white" stroke-width="0.5"/>
<path d="M12 4.29993C8.96667 4.29993 6.5 6.76659 6.5 9.83326C6.5 12.8666 8.96667 15.3333 12 15.3333C15.0333 15.3333 17.5 12.8666 17.5 9.83326C17.5 6.76659 15.0333 4.29993 12 4.29993V4.29993ZM12 14.6666C9.33333 14.6666 7.16667 12.4999 7.16667 9.83326C7.16667 7.16659 9.33333 4.96659 12 4.96659C14.6667 4.96659 16.8333 7.13326 16.8333 9.83326C16.8333 12.4999 14.6667 14.6666 12 14.6666Z" fill="white" stroke="white" stroke-width="0.5"/>
<path d="M14.0335 8.99978L11.2668 7.33312C10.6335 6.96645 9.8335 7.39978 9.8335 8.16645V11.4998C9.8335 12.2331 10.6335 12.6998 11.2668 12.3331L14.0335 10.6664C14.6668 10.2664 14.6668 9.36645 14.0335 8.99978V8.99978ZM13.7002 10.0664L10.9335 11.7331C10.7335 11.8331 10.5002 11.6998 10.5002 11.4998V8.16645C10.5002 7.93312 10.7335 7.79978 10.9335 7.93312L13.7002 9.59978C13.8335 9.66645 13.8335 9.79978 13.8335 9.83312C13.8335 9.86645 13.8002 9.99978 13.7002 10.0664V10.0664Z" fill="white" stroke="white" stroke-width="0.5"/>
<path d="M22.6667 20.1666H6.70005C6.53338 19.6 5.90005 19.2 5.13338 19.2C4.36672 19.2 3.76672 19.6 3.60005 20.1666H1.63338C1.43338 20.1666 1.30005 20.3 1.30005 20.5C1.30005 20.7 1.43338 20.8333 1.63338 20.8333H3.60005C3.80005 21.4 4.40005 21.8 5.13338 21.8C5.86672 21.8 6.50005 21.4 6.70005 20.8333H22.6667C22.8667 20.8333 23 20.7 23 20.5C23 20.3 22.8667 20.1666 22.6667 20.1666V20.1666ZM5.13338 21.1C4.63338 21.1 4.20005 20.8 4.20005 20.4666C4.20005 20.1333 4.63338 19.8333 5.13338 19.8333C5.63338 19.8333 6.06672 20.1333 6.06672 20.4666C6.06672 20.8333 5.63338 21.1 5.13338 21.1Z" fill="white" stroke="white" stroke-width="0.5"/>
</svg>
