<svg width="41" height="12" viewBox="0 0 41 12" fill="none" xmlns="http://www.w3.org/2000/svg">
<path d="M37.9626 10.9999L37.5782 9.38183H33.2835L32.6001 10.9884L29.1578 10.9941C30.7966 7.67625 32.4389 4.3596 34.0847 1.04418C34.3648 0.48182 34.862 0.195605 35.5948 0.198482C36.1552 0.202797 37.0691 0.202796 38.3384 0.199919L41 10.9956L37.9626 10.9999ZM34.2504 7.16546H37.0179L35.9843 3.10954L34.2504 7.16546ZM12.0608 0.197043L15.5219 0.199919L10.1714 11.0013L6.66763 10.9985C5.78655 8.14538 4.91643 5.28992 4.05729 2.43211C3.88646 1.86256 3.54821 1.46416 2.89733 1.27575C2.31821 1.10747 1.353 0.84858 0 0.496204V0.201358H5.52988C6.48654 0.201358 7.04517 0.591129 7.22454 1.39081C7.40563 2.19192 7.86004 4.23139 8.59121 7.50921L12.0608 0.197043ZM20.2779 0.199919L17.5412 10.9985L14.2475 10.9956L16.9808 0.197043L20.2779 0.199919ZM26.9575 0C27.9432 0 29.1852 0.258889 29.8993 0.496204L29.3218 2.73559C28.6761 2.51697 27.6135 2.22213 26.72 2.2322C25.4217 2.25089 24.6188 2.7097 24.6188 3.14981C24.6188 3.86607 26.0128 4.22708 27.4478 5.00949C29.0861 5.90122 29.3013 6.70234 29.2808 7.57249C29.2586 9.37896 27.4478 11.161 23.628 11.161C21.8855 11.1394 21.2568 11.0157 19.8355 10.5914L20.4368 8.25423C21.8838 8.76482 22.497 8.92734 23.7339 8.92734C24.8665 8.92734 25.8385 8.54189 25.8471 7.87021C25.8539 7.39271 25.5054 7.15539 24.2344 6.5657C22.9634 5.97457 21.1799 5.1562 21.2038 3.51369C21.2329 1.41094 23.5989 0 26.9592 0H26.9575Z" fill="#CDFE00"/>
</svg>
