<svg width="24" height="24" viewBox="0 0 24 24" fill="none" xmlns="http://www.w3.org/2000/svg">
<path d="M18.5927 20.0001H5.03635C4.40582 20.0001 3.93264 19.4237 4.05552 18.8052L6.25913 7.7143C6.35212 7.24629 6.76281 6.90918 7.23996 6.90918H16.3223C16.7973 6.90918 17.2067 7.2433 17.302 7.70863L19.5724 18.7995C19.6993 19.4196 19.2256 20.0001 18.5927 20.0001Z" stroke="white" stroke-width="1.5"/>
<path d="M9.85352 6.79982C9.50245 6.38901 9.27071 5.87706 9.18673 5.32682C9.10274 4.77658 9.17017 4.21198 9.38074 3.7023C9.59132 3.19263 9.93587 2.76006 10.3721 2.45767C10.8084 2.15529 11.3173 1.99625 11.8365 2.00007C12.3558 2.00389 12.8627 2.1704 13.295 2.47917C13.7273 2.78795 14.0663 3.22555 14.2704 3.73827C14.4744 4.251 14.5347 4.81654 14.4437 5.36549C14.3527 5.91445 14.1144 6.42293 13.7581 6.82855" stroke="white" stroke-width="1.5"/>
</svg>
