<svg width="80" height="58" viewBox="0 0 80 58" fill="none" xmlns="http://www.w3.org/2000/svg">
<g clip-path="url(#clip0_219_3015)">
<path d="M27.3254 21.793C29.0956 21.793 30.8064 21.8206 32.5171 21.7792C33.1717 21.7654 33.4543 21.9171 33.4246 22.5792C33.365 24.2344 33.5436 23.9861 31.9221 23.9861C29.8394 23.9999 27.7568 23.9723 25.6741 23.9999C25.0791 24.0137 24.856 23.862 24.856 23.2688C24.8758 19.1125 24.8758 14.9562 24.856 10.7999C24.856 10.2482 25.0791 10.0964 25.6444 10.0964C27.965 10.124 30.3006 10.124 32.6212 10.0964C33.2609 10.0964 33.4394 10.3171 33.4246 10.8689C33.3799 12.5378 33.6179 12.2757 31.8774 12.2895C30.5386 12.3033 29.1998 12.3171 27.8609 12.2895C27.4146 12.2895 27.251 12.4137 27.2659 12.8413C27.2807 13.6688 27.2956 14.4964 27.251 15.324C27.2361 15.793 27.3998 15.9723 27.9204 15.9585C29.3188 15.9309 30.7022 15.9723 32.0857 15.9447C32.6659 15.9309 32.9188 16.0551 32.9039 16.662C32.8741 18.1654 32.9188 18.1654 31.2973 18.1654H27.3254V21.793Z" fill="white"/>
<path d="M38.2001 21.7931C39.9703 21.7931 41.6811 21.8207 43.3918 21.7793C44.0761 21.7655 44.2993 21.9724 44.2844 22.6069C44.2398 24.1793 44.3885 23.9862 42.8117 23.9862C40.6993 24 38.5869 23.9724 36.4893 24C35.8497 24.0138 35.686 23.8069 35.686 23.2552C35.7009 19.131 35.7158 15.0207 35.686 10.9103C35.686 10.3172 35.8497 10.0828 36.5191 10.0966C38.8298 10.1241 41.1356 10.1241 43.4364 10.0966C44.091 10.0828 44.2993 10.3034 44.2844 10.8966C44.2398 12.4966 44.4034 12.2897 42.7522 12.3034C41.4133 12.3034 40.0745 12.3172 38.7356 12.2897C38.2893 12.2897 38.1108 12.4138 38.1257 12.8414C38.1555 13.669 38.1555 14.4966 38.1257 15.3241C38.1108 15.7931 38.2596 15.9724 38.7951 15.9586C40.2083 15.931 41.6216 15.9724 43.0348 15.9448C43.5852 15.931 43.7786 16.1103 43.7637 16.6207C43.7042 18.4138 44.0166 18.1517 42.1125 18.1655C40.8183 18.1793 39.5389 18.1655 38.2001 18.1655V21.7931Z" fill="white"/>
<path d="M49.372 21.793C51.1125 21.793 52.734 21.8206 54.3554 21.7792C55.0844 21.7516 55.2926 21.9861 55.2629 22.6344C55.2183 24.2068 55.3968 23.9861 53.7753 23.9861C51.6034 23.9999 49.4166 23.9723 47.2447 23.9999C46.6497 24.0137 46.486 23.8206 46.4711 23.2964C46.4243 22.5386 46.621 21.785 47.0364 21.1309C47.6166 20.2068 48.1373 19.2551 48.6728 18.3171C48.5984 18.2482 48.5687 18.2068 48.524 18.193C48.167 18.1102 47.5273 18.0689 47.4976 17.9171C47.3786 17.3516 47.4381 16.7447 47.4976 16.1516C47.4976 16.0688 47.8844 15.9309 48.048 15.9723C49.61 16.262 50.4728 15.6137 50.9786 14.2895C51.2315 13.6551 51.648 13.0757 52.0497 12.3585C51.7521 12.3309 51.5141 12.3033 51.291 12.3033C50.0116 12.3033 48.7174 12.2895 47.4232 12.3033C46.9026 12.3171 46.7389 12.1378 46.7389 11.6688C46.7835 9.83437 46.5158 10.124 48.3753 10.1102C50.2348 10.0964 52.243 10.124 54.1621 10.0964C54.7571 10.0964 54.9059 10.2757 54.9356 10.8137C55.01 11.724 54.6381 12.4551 54.1918 13.1999L52.6893 15.8206C52.8083 15.8757 52.853 15.9309 52.9125 15.9447C53.2844 16.0137 53.9389 16.0275 53.9687 16.1654C54.0877 16.7309 54.043 17.3378 54.0133 17.9309C53.9984 18.0137 53.7604 18.124 53.6116 18.1516C53.4394 18.1768 53.2645 18.1815 53.091 18.1654C51.3654 18.1792 51.3654 18.1792 50.5769 19.6275C50.205 20.3171 49.8034 21.0068 49.372 21.793Z" fill="white"/>
<path d="M62.0611 15.1173L63.7718 11.6828C63.8176 11.6027 63.8574 11.5198 63.8908 11.4346C64.5305 10.0966 65.0958 9.82078 66.628 10.1104C67.2231 10.2346 66.9553 10.5656 66.8214 10.8415C65.9883 12.5518 65.1404 14.2622 64.3074 15.9863C63.995 16.607 63.6677 17.2277 63.385 17.8622C63.2841 18.1184 63.2338 18.3894 63.2363 18.6622C63.2214 20.2208 63.2214 21.7932 63.2363 23.3518C63.2512 23.807 63.1024 24.0139 62.5669 24.0001C60.4842 23.9587 60.871 24.2484 60.8264 22.4139C60.8189 22.3451 60.8189 22.2758 60.8264 22.207C61.2429 19.3104 60.3801 16.6897 58.9074 14.1794C58.2677 13.0759 57.7619 11.8897 57.1817 10.7587C56.9586 10.3311 57.0032 10.138 57.5685 10.0966C59.4429 10.0001 59.4429 9.98629 60.2164 11.5311C60.7817 12.6759 61.3322 13.8346 61.8974 14.9794C61.9123 15.007 61.9569 15.0346 62.0611 15.1173Z" fill="white"/>
<path d="M17.9388 15.2137C18.6974 13.6826 19.4412 12.2895 20.0809 10.8551C20.3487 10.2619 20.6908 10.0826 21.3602 10.0964C23.0859 10.1378 23.1007 10.1102 22.3867 11.5999C21.4644 13.5033 20.4974 15.393 19.59 17.2964C19.3581 17.8231 19.2272 18.3832 19.2032 18.9516C19.1437 20.4137 19.1735 21.8895 19.1883 23.3654C19.2032 23.8344 19.0247 24.0137 18.504 23.9999C16.4512 23.9447 16.7933 24.2757 16.7784 22.4688C16.7635 17.9033 16.7784 17.9033 14.309 13.1723C13.8925 12.3723 13.5206 11.5447 13.104 10.7447C12.866 10.2757 13.0297 10.0964 13.5503 10.1102H13.6991C15.8264 10.1654 15.2313 9.7516 16.1685 11.5861C16.7635 12.7447 17.2991 13.9171 17.9388 15.2137Z" fill="white"/>
</g>
<path d="M29.7245 42.66L26.9645 47.976V51H25.5965V47.976L22.8245 42.66H24.3485L26.2805 46.752L28.2125 42.66H29.7245ZM36.8702 47.532C36.8702 47.78 36.8542 48.004 36.8222 48.204H31.7702C31.8102 48.732 32.0062 49.156 32.3582 49.476C32.7102 49.796 33.1422 49.956 33.6542 49.956C34.3902 49.956 34.9102 49.648 35.2142 49.032H36.6902C36.4902 49.64 36.1262 50.14 35.5982 50.532C35.0782 50.916 34.4302 51.108 33.6542 51.108C33.0222 51.108 32.4542 50.968 31.9502 50.688C31.4542 50.4 31.0622 50 30.7742 49.488C30.4942 48.968 30.3542 48.368 30.3542 47.688C30.3542 47.008 30.4902 46.412 30.7622 45.9C31.0422 45.38 31.4302 44.98 31.9262 44.7C32.4302 44.42 33.0062 44.28 33.6542 44.28C34.2782 44.28 34.8342 44.416 35.3222 44.688C35.8102 44.96 36.1902 45.344 36.4622 45.84C36.7342 46.328 36.8702 46.892 36.8702 47.532ZM35.4422 47.1C35.4342 46.596 35.2542 46.192 34.9022 45.888C34.5502 45.584 34.1142 45.432 33.5942 45.432C33.1222 45.432 32.7182 45.584 32.3822 45.888C32.0462 46.184 31.8462 46.588 31.7822 47.1H35.4422ZM44.2764 47.532C44.2764 47.78 44.2604 48.004 44.2284 48.204H39.1764C39.2164 48.732 39.4124 49.156 39.7644 49.476C40.1164 49.796 40.5484 49.956 41.0604 49.956C41.7964 49.956 42.3164 49.648 42.6204 49.032H44.0964C43.8964 49.64 43.5324 50.14 43.0044 50.532C42.4844 50.916 41.8364 51.108 41.0604 51.108C40.4284 51.108 39.8604 50.968 39.3564 50.688C38.8604 50.4 38.4684 50 38.1804 49.488C37.9004 48.968 37.7604 48.368 37.7604 47.688C37.7604 47.008 37.8964 46.412 38.1684 45.9C38.4484 45.38 38.8364 44.98 39.3324 44.7C39.8364 44.42 40.4124 44.28 41.0604 44.28C41.6844 44.28 42.2404 44.416 42.7284 44.688C43.2164 44.96 43.5964 45.344 43.8684 45.84C44.1404 46.328 44.2764 46.892 44.2764 47.532ZM42.8484 47.1C42.8404 46.596 42.6604 46.192 42.3084 45.888C41.9564 45.584 41.5204 45.432 41.0004 45.432C40.5284 45.432 40.1244 45.584 39.7884 45.888C39.4524 46.184 39.2524 46.588 39.1884 47.1H42.8484ZM46.8347 49.884H49.8347V51H45.2507V49.884L48.2627 45.504H45.2507V44.388H49.8347V45.504L46.8347 49.884ZM57.2231 44.388L53.1671 54.108H51.7511L53.0951 50.892L50.4911 44.388H52.0151L53.8751 49.428L55.8071 44.388H57.2231Z" fill="white"/>
<defs>
<clipPath id="clip0_219_3015">
<rect width="54" height="14" fill="white" transform="translate(13 10)"/>
</clipPath>
</defs>
</svg>
